<svg width="24" height="24" viewBox="0 0 24 24" fill="none" xmlns="http://www.w3.org/2000/svg">
<path fill-rule="evenodd" clip-rule="evenodd" d="M21.751 15.908C21.638 15.583 21.366 15.339 21.03 15.262L15.066 13.893C14.737 13.819 14.393 13.912 14.15 14.146C14.007 14.282 14.004 14.286 13.354 15.527C11.224 14.557 9.479 12.818 8.475 10.644C9.714 9.995 9.717 9.992 9.854 9.85C10.088 9.606 10.182 9.262 10.107 8.934L8.738 2.97C8.661 2.634 8.416 2.361 8.091 2.248C7.853 2.166 7.608 2.104 7.366 2.065C7.117 2.022 6.86 2 6.6 2C4.063 2 2 4.063 2 6.6C2 15.092 8.908 22 17.4 22C19.936 22 22 19.937 22 17.4C22 17.142 21.977 16.887 21.935 16.639C21.895 16.389 21.833 16.144 21.751 15.908ZM17.4 20C10.011 20 4 13.988 4 6.6C4 5.166 5.166 4 6.6 4C6.709 4 6.817 4.007 6.927 4.021L7.988 8.642C7.8567 8.71031 7.71619 8.7838 7.57913 8.85547L7.45 8.923C6.588 9.373 5.908 9.729 6.265 10.514C7.441 13.86 10.14 16.56 13.446 17.72C14.2883 18.0575 14.6151 17.4325 15.067 16.5684L15.073 16.557C15.1249 16.4586 15.1784 16.356 15.2314 16.2543C15.2743 16.172 15.3168 16.0903 15.358 16.012L19.978 17.072C19.993 17.18 20 17.289 20 17.4C20 18.834 18.834 20 17.4 20Z" fill="#59C13F"/>
<path d="M12.9996 8C14.6536 8 15.9996 9.346 15.9996 11C15.9996 11.553 16.4466 12 16.9996 12C17.5526 12 17.9996 11.553 17.9996 11C17.9996 8.243 15.7566 6 12.9996 6C12.4476 6 11.9996 6.447 11.9996 7C11.9996 7.553 12.4476 8 12.9996 8Z" fill="#59C13F"/>
<path d="M19.9996 11C19.9996 7.141 16.8586 4 12.9996 4C12.4476 4 11.9996 3.553 11.9996 3C11.9996 2.447 12.4476 2 12.9996 2C17.9626 2 21.9996 6.037 21.9996 11C21.9996 11.553 21.5526 12 20.9996 12C20.4466 12 19.9996 11.553 19.9996 11Z" fill="#59C13F"/>
</svg>
