<svg width="12" height="12" viewBox="6 6 12 12" fill="none" xmlns="http://www.w3.org/2000/svg">
<g id="Icon/Outline/checkmark-circle">
<path id="Mask" fill-rule="evenodd" clip-rule="evenodd" d="M14.7046 8.39443L10.9206 13.3634L9.28759 11.2774C8.94759 10.8414 8.31759 10.7654 7.88359 11.1064C7.44859 11.4464 7.37159 12.0754 7.71259 12.5094L10.1436 15.6164C10.3336 15.8584 10.6236 15.9994 10.9316 15.9994H10.9386C11.2476 15.9984 11.5396 15.8524 11.7266 15.6054L16.2956 9.60543C16.6306 9.16543 16.5456 8.53943 16.1056 8.20443C15.6646 7.86943 15.0386 7.95543 14.7046 8.39443Z" fill="#231F20"/>
<mask id="mask0" mask-type="alpha" maskUnits="userSpaceOnUse" x="7" y="8" width="10" height="8">
<path id="Mask_2" fill-rule="evenodd" clip-rule="evenodd" d="M14.7046 8.39443L10.9206 13.3634L9.28759 11.2774C8.94759 10.8414 8.31759 10.7654 7.88359 11.1064C7.44859 11.4464 7.37159 12.0754 7.71259 12.5094L10.1436 15.6164C10.3336 15.8584 10.6236 15.9994 10.9316 15.9994H10.9386C11.2476 15.9984 11.5396 15.8524 11.7266 15.6054L16.2956 9.60543C16.6306 9.16543 16.5456 8.53943 16.1056 8.20443C15.6646 7.86943 15.0386 7.95543 14.7046 8.39443Z" fill="white"/>
</mask>
<g mask="url(#mask0)">
<g id="&#240;&#159;&#142;&#168; Color">
<rect id="Base" width="24" height="24" fill="#5CBB47"/>
</g>
</g>
</g>
</svg>
