<svg width="24" height="23" viewBox="0 0 24 23" fill="none" xmlns="http://www.w3.org/2000/svg">
<path fill-rule="evenodd" clip-rule="evenodd" d="M5.46621 9.93292C5.46621 9.72199 5.53714 9.51012 5.68274 9.33559C6.01221 8.93986 6.60114 8.88666 6.99687 9.21612L12.0098 13.3937L17.0143 9.36639C17.4157 9.04346 18.0037 9.10692 18.3266 9.50826C18.6495 9.91052 18.5861 10.4976 18.1847 10.8215L12.5847 15.3276C12.2385 15.6057 11.7438 15.602 11.4022 15.3173L5.80221 10.6507C5.58101 10.4659 5.46621 10.2008 5.46621 9.93292Z" fill="#231F20"/>
<mask id="mask0" mask-type="alpha" maskUnits="userSpaceOnUse" x="5" y="8" width="14" height="8">
<path fill-rule="evenodd" clip-rule="evenodd" d="M5.46621 9.93292C5.46621 9.72199 5.53714 9.51012 5.68274 9.33559C6.01221 8.93986 6.60114 8.88666 6.99687 9.21612L12.0098 13.3937L17.0143 9.36639C17.4157 9.04346 18.0037 9.10692 18.3266 9.50826C18.6495 9.91052 18.5861 10.4976 18.1847 10.8215L12.5847 15.3276C12.2385 15.6057 11.7438 15.602 11.4022 15.3173L5.80221 10.6507C5.58101 10.4659 5.46621 10.2008 5.46621 9.93292Z" fill="white"/>
<path d="M5.46621 9.93292C5.46621 9.72199 5.53714 9.51012 5.68274 9.33559C6.01221 8.93986 6.60114 8.88666 6.99688 9.21612L12.0098 13.3937L17.0143 9.36639C17.4157 9.04346 18.0037 9.10692 18.3266 9.50826C18.6495 9.91052 18.5861 10.4976 18.1847 10.8215L12.5847 15.3276C12.2385 15.6057 11.7438 15.602 11.4022 15.3173L5.80221 10.6507C5.58101 10.4659 5.46621 10.2008 5.46621 9.93292" stroke="white" stroke-width="0.5"/>
</mask>
<g mask="url(#mask0)">
<rect x="23.1995" y="0.600037" width="22.4" height="22.4" transform="rotate(90 23.1995 0.600037)" fill="#59C13F"/>
</g>
</svg>
