<svg width="24" height="24" viewBox="0 0 24 24" fill="none" xmlns="http://www.w3.org/2000/svg">
<path fill-rule="evenodd" clip-rule="evenodd" d="M16.5563 6.65687L12.3137 10.8995L8.07107 6.65687C7.68004 6.26584 7.04718 6.26654 6.65685 6.65687C6.26653 7.04719 6.26582 7.68005 6.65685 8.07108L10.8995 12.3137L6.65685 16.5564C6.26653 16.9467 6.26582 17.5795 6.65685 17.9706C7.04788 18.3616 7.68074 18.3609 8.07107 17.9706L12.3137 13.7279L16.5563 17.9706C16.9474 18.3616 17.5802 18.3609 17.9706 17.9706C18.3609 17.5803 18.3616 16.9474 17.9706 16.5564L13.7279 12.3137L17.9706 8.07108C18.3609 7.68076 18.3616 7.0479 17.9706 6.65687C17.5795 6.26584 16.9467 6.26654 16.5563 6.65687Z" fill="#5CBB47"/>
</svg>
