<svg width="32" height="32" viewBox="0 0 32 32" fill="none" xmlns="http://www.w3.org/2000/svg">
<path d="M28.3294 14.9653H28.3334C29.0681 14.9653 29.6654 15.56 29.6667 16.2947C29.6774 19.856 28.3001 23.2093 25.7881 25.7347C23.2774 28.26 19.9334 29.656 16.3721 29.6667H16.3334C12.7854 29.6667 9.44806 28.2907 6.93206 25.788C4.40673 23.2773 3.01073 19.9333 3.00006 16.372C2.98939 12.8093 4.36673 9.45733 6.87873 6.932C9.3894 4.40667 12.7334 3.01067 16.2947 3C17.3547 3.016 18.4347 3.12267 19.4694 3.37067C20.1841 3.544 20.6254 4.264 20.4521 4.98C20.2801 5.69467 19.5561 6.13467 18.8441 5.964C18.0161 5.764 17.1374 5.68 16.3027 5.66667C13.4534 5.67467 10.7774 6.792 8.76939 8.812C6.76006 10.832 5.65873 13.5147 5.66673 16.364C5.67473 19.2133 6.79206 21.888 8.81206 23.8973C10.8254 25.8987 13.4947 27 16.3334 27H16.3641C19.2134 26.992 21.8894 25.8747 23.8974 23.8547C25.9067 21.8333 27.0081 19.152 27.0001 16.3027C26.9987 15.5667 27.5934 14.9667 28.3294 14.9653Z" fill="#59C13F"/>
<path d="M11.3908 15.3905C11.9121 14.8692 12.7548 14.8692 13.2761 15.3905L16.2681 18.3825L24.6641 8.78786C25.1495 8.23719 25.9908 8.17852 26.5455 8.66386C27.0988 9.14786 27.1548 9.99052 26.6695 10.5452L17.3361 21.2119C17.0935 21.4892 16.7468 21.6532 16.3775 21.6665H16.3335C15.9801 21.6665 15.6415 21.5265 15.3908 21.2759L11.3908 17.2759C10.8695 16.7545 10.8695 15.9119 11.3908 15.3905Z" fill="#59C13F"/>
</svg>
