<svg width="32" height="32" viewBox="0 0 32 32" fill="none" xmlns="http://www.w3.org/2000/svg">
<g id="Icon/Outline/checkmark-circle-2">
<path id="Mask" fill-rule="evenodd" clip-rule="evenodd" d="M27.9959 14.6323H27.9999C28.7346 14.6323 29.3319 15.227 29.3332 15.9617C29.3439 19.523 27.9666 22.8763 25.4546 25.4017C22.9439 27.927 19.5999 29.323 16.0386 29.3337H15.9999C12.4519 29.3337 9.11457 27.9577 6.59857 25.455C4.07323 22.9443 2.67723 19.6003 2.66657 16.039C2.6559 12.4763 4.03323 9.12433 6.54523 6.59899C9.0559 4.07366 12.3999 2.67766 15.9612 2.66699C17.0212 2.68299 18.1012 2.78966 19.1359 3.03766C19.8506 3.21099 20.2919 3.93099 20.1186 4.64699C19.9466 5.36166 19.2226 5.80166 18.5106 5.63099C17.6826 5.43099 16.8039 5.34699 15.9692 5.33366C13.1199 5.34166 10.4439 6.45899 8.4359 8.47899C6.42657 10.499 5.32523 13.1817 5.33323 16.031C5.34123 18.8803 6.45857 21.555 8.47857 23.5643C10.4919 25.5657 13.1612 26.667 15.9999 26.667H16.0306C18.8799 26.659 21.5559 25.5417 23.5639 23.5217C25.5732 21.5003 26.6746 18.819 26.6666 15.9697C26.6652 15.2337 27.2599 14.6337 27.9959 14.6323ZM11.0573 15.0575C11.5786 14.5362 12.4213 14.5362 12.9426 15.0575L15.9346 18.0495L24.3306 8.45485C24.816 7.90418 25.6573 7.84552 26.212 8.33085C26.7653 8.81485 26.8213 9.65752 26.336 10.2122L17.0026 20.8788C16.76 21.1562 16.4133 21.3202 16.044 21.3335H16C15.6466 21.3335 15.308 21.1935 15.0573 20.9428L11.0573 16.9428C10.536 16.4215 10.536 15.5788 11.0573 15.0575Z" fill="#59C13F"/>
<mask id="mask0" mask-type="alpha" maskUnits="userSpaceOnUse" x="2" y="2" width="28" height="28">
<path id="Mask_2" fill-rule="evenodd" clip-rule="evenodd" d="M27.9959 14.6323H27.9999C28.7346 14.6323 29.3319 15.227 29.3332 15.9617C29.3439 19.523 27.9666 22.8763 25.4546 25.4017C22.9439 27.927 19.5999 29.323 16.0386 29.3337H15.9999C12.4519 29.3337 9.11457 27.9577 6.59857 25.455C4.07323 22.9443 2.67723 19.6003 2.66657 16.039C2.6559 12.4763 4.03323 9.12433 6.54523 6.59899C9.0559 4.07366 12.3999 2.67766 15.9612 2.66699C17.0212 2.68299 18.1012 2.78966 19.1359 3.03766C19.8506 3.21099 20.2919 3.93099 20.1186 4.64699C19.9466 5.36166 19.2226 5.80166 18.5106 5.63099C17.6826 5.43099 16.8039 5.34699 15.9692 5.33366C13.1199 5.34166 10.4439 6.45899 8.4359 8.47899C6.42657 10.499 5.32523 13.1817 5.33323 16.031C5.34123 18.8803 6.45857 21.555 8.47857 23.5643C10.4919 25.5657 13.1612 26.667 15.9999 26.667H16.0306C18.8799 26.659 21.5559 25.5417 23.5639 23.5217C25.5732 21.5003 26.6746 18.819 26.6666 15.9697C26.6652 15.2337 27.2599 14.6337 27.9959 14.6323ZM11.0573 15.0575C11.5786 14.5362 12.4213 14.5362 12.9426 15.0575L15.9346 18.0495L24.3306 8.45485C24.816 7.90418 25.6573 7.84552 26.212 8.33085C26.7653 8.81485 26.8213 9.65752 26.336 10.2122L17.0026 20.8788C16.76 21.1562 16.4133 21.3202 16.044 21.3335H16C15.6466 21.3335 15.308 21.1935 15.0573 20.9428L11.0573 16.9428C10.536 16.4215 10.536 15.5788 11.0573 15.0575Z" fill="white"/>
</mask>
<g mask="url(#mask0)">
<g id="&#240;&#159;&#142;&#168; Color">
<rect id="Base" width="32" height="32" fill="#59C13F"/>
</g>
</g>
</g>
</svg>
