<svg width="24" height="24" viewBox="0 0 24 24" fill="none" xmlns="http://www.w3.org/2000/svg">
<path fill-rule="evenodd" clip-rule="evenodd" d="M7.0002 11.9993C7.0002 11.4473 7.4482 10.9993 8.0002 10.9993C8.5522 10.9993 9.0002 11.4473 9.0002 11.9993C9.0002 12.5513 8.5522 12.9993 8.0002 12.9993C7.4482 12.9993 7.0002 12.5513 7.0002 11.9993ZM12.0002 10.9993C11.4482 10.9993 11.0002 11.4473 11.0002 11.9993C11.0002 12.5513 11.4482 12.9993 12.0002 12.9993C12.5522 12.9993 13.0002 12.5513 13.0002 11.9993C13.0002 11.4473 12.5522 10.9993 12.0002 10.9993ZM16.0002 10.9993C15.4482 10.9993 15.0002 11.4473 15.0002 11.9993C15.0002 12.5513 15.4482 12.9993 16.0002 12.9993C16.5522 12.9993 17.0002 12.5513 17.0002 11.9993C17.0002 11.4473 16.5522 10.9993 16.0002 10.9993ZM19.8986 13.2942C19.3916 16.5482 16.7686 19.2472 13.5196 19.8562C11.9506 20.1522 10.3526 19.9832 8.9026 19.3692C8.4916 19.1952 8.0666 19.1072 7.6496 19.1072C7.4596 19.1072 7.2716 19.1252 7.0866 19.1622L4.2746 19.7242L4.8376 16.9072C4.9556 16.3222 4.8836 15.6962 4.6306 15.0972C4.0166 13.6472 3.8486 12.0502 4.1436 10.4802C4.7526 7.23117 7.4506 4.60817 10.7056 4.10117C13.2956 3.69817 15.8286 4.51417 17.6566 6.34217C19.4856 8.17117 20.3026 10.7052 19.8986 13.2942ZM19.0716 4.92817C16.7866 2.64417 13.6266 1.62517 10.3976 2.12417C6.3206 2.76017 2.9406 6.04417 2.1776 10.1112C1.8096 12.0692 2.0216 14.0632 2.7886 15.8762C2.8856 16.1072 2.9156 16.3222 2.8776 16.5152L2.0196 20.8032C1.9536 21.1312 2.0566 21.4702 2.2936 21.7062C2.4826 21.8962 2.7376 21.9992 3.0006 21.9992C3.0656 21.9992 3.1306 21.9932 3.1966 21.9802L7.4796 21.1232C7.7256 21.0762 7.9636 21.1452 8.1226 21.2112C9.9376 21.9782 11.9316 22.1892 13.8876 21.8222C17.9556 21.0592 21.2396 17.6792 21.8756 13.6022C22.3776 10.3752 21.3566 7.21317 19.0716 4.92817Z" fill="#5FBA46"/>
</svg>
