<svg width="50" height="50" viewBox="0 0 50 50" fill="none" xmlns="http://www.w3.org/2000/svg">
<path fill-rule="evenodd" clip-rule="evenodd" d="M25.0002 22.9157C23.2773 22.9157 21.8752 21.5136 21.8752 19.7907C21.8752 18.0678 23.2773 16.6657 25.0002 16.6657C26.7231 16.6657 28.1252 18.0678 28.1252 19.7907C28.1252 21.5136 26.7231 22.9157 25.0002 22.9157ZM25.0002 12.4991C20.9793 12.4991 17.7085 15.7699 17.7085 19.7907C17.7085 23.8116 20.9793 27.0824 25.0002 27.0824C29.021 27.0824 32.2918 23.8116 32.2918 19.7907C32.2918 15.7699 29.021 12.4991 25.0002 12.4991ZM25.0002 40.9292C21.5106 37.6292 12.5002 28.3647 12.5002 20.6709C12.5002 13.8688 18.1064 8.33341 25.0002 8.33341C31.8939 8.33341 37.5002 13.8688 37.5002 20.6709C37.5002 28.3647 28.4898 37.6292 25.0002 40.9292ZM25.0002 4.16675C15.8106 4.16675 8.3335 11.5688 8.3335 20.6709C8.3335 32.0772 23.0189 44.7938 23.6439 45.3293C24.0356 45.6647 24.5168 45.8334 25.0002 45.8334C25.4835 45.8334 25.9647 45.6647 26.3564 45.3293C26.9814 44.7938 41.6668 32.0772 41.6668 20.6709C41.6668 11.5688 34.1897 4.16675 25.0002 4.16675Z" fill="#59C13F"/>
<mask id="mask0" mask-type="alpha" maskUnits="userSpaceOnUse" x="8" y="4" width="34" height="42">
<path fill-rule="evenodd" clip-rule="evenodd" d="M25.0002 22.9157C23.2773 22.9157 21.8752 21.5136 21.8752 19.7907C21.8752 18.0678 23.2773 16.6657 25.0002 16.6657C26.7231 16.6657 28.1252 18.0678 28.1252 19.7907C28.1252 21.5136 26.7231 22.9157 25.0002 22.9157ZM25.0002 12.4991C20.9793 12.4991 17.7085 15.7699 17.7085 19.7907C17.7085 23.8116 20.9793 27.0824 25.0002 27.0824C29.021 27.0824 32.2918 23.8116 32.2918 19.7907C32.2918 15.7699 29.021 12.4991 25.0002 12.4991ZM25.0002 40.9292C21.5106 37.6292 12.5002 28.3647 12.5002 20.6709C12.5002 13.8688 18.1064 8.33341 25.0002 8.33341C31.8939 8.33341 37.5002 13.8688 37.5002 20.6709C37.5002 28.3647 28.4898 37.6292 25.0002 40.9292ZM25.0002 4.16675C15.8106 4.16675 8.3335 11.5688 8.3335 20.6709C8.3335 32.0772 23.0189 44.7938 23.6439 45.3293C24.0356 45.6647 24.5168 45.8334 25.0002 45.8334C25.4835 45.8334 25.9647 45.6647 26.3564 45.3293C26.9814 44.7938 41.6668 32.0772 41.6668 20.6709C41.6668 11.5688 34.1897 4.16675 25.0002 4.16675Z" fill="white"/>
</mask>
<g mask="url(#mask0)">
<rect width="50" height="50" fill="#59C13F"/>
</g>
</svg>
