<svg width="54" height="54" viewBox="0 0 54 54" fill="none" xmlns="http://www.w3.org/2000/svg">
<path fill-rule="evenodd" clip-rule="evenodd" d="M27 24.7489C25.1393 24.7489 23.625 23.2346 23.625 21.3739C23.625 19.5131 25.1393 17.9989 27 17.9989C28.8608 17.9989 30.375 19.5131 30.375 21.3739C30.375 23.2346 28.8608 24.7489 27 24.7489ZM27 13.4989C22.6575 13.4989 19.125 17.0314 19.125 21.3739C19.125 25.7164 22.6575 29.2489 27 29.2489C31.3425 29.2489 34.875 25.7164 34.875 21.3739C34.875 17.0314 31.3425 13.4989 27 13.4989ZM27 44.2035C23.2313 40.6395 13.5 30.6337 13.5 22.3245C13.5 14.9782 19.5548 9 27 9C34.4453 9 40.5 14.9782 40.5 22.3245C40.5 30.6337 30.7688 40.6395 27 44.2035ZM27 4.5C17.0753 4.5 9 12.4942 9 22.3245C9 34.6432 24.8602 48.3772 25.5352 48.9555C25.9583 49.3177 26.478 49.5 27 49.5C27.522 49.5 28.0417 49.3177 28.4648 48.9555C29.1397 48.3772 45 34.6432 45 22.3245C45 12.4942 36.9247 4.5 27 4.5Z" fill="white"/>
<mask id="mask0" mask-type="alpha" maskUnits="userSpaceOnUse" x="9" y="4" width="36" height="46">
<path fill-rule="evenodd" clip-rule="evenodd" d="M27 24.7489C25.1393 24.7489 23.625 23.2346 23.625 21.3739C23.625 19.5131 25.1393 17.9989 27 17.9989C28.8608 17.9989 30.375 19.5131 30.375 21.3739C30.375 23.2346 28.8608 24.7489 27 24.7489ZM27 13.4989C22.6575 13.4989 19.125 17.0314 19.125 21.3739C19.125 25.7164 22.6575 29.2489 27 29.2489C31.3425 29.2489 34.875 25.7164 34.875 21.3739C34.875 17.0314 31.3425 13.4989 27 13.4989ZM27 44.2035C23.2313 40.6395 13.5 30.6337 13.5 22.3245C13.5 14.9782 19.5548 9 27 9C34.4453 9 40.5 14.9782 40.5 22.3245C40.5 30.6337 30.7688 40.6395 27 44.2035ZM27 4.5C17.0753 4.5 9 12.4942 9 22.3245C9 34.6432 24.8602 48.3772 25.5352 48.9555C25.9583 49.3177 26.478 49.5 27 49.5C27.522 49.5 28.0417 49.3177 28.4648 48.9555C29.1397 48.3772 45 34.6432 45 22.3245C45 12.4942 36.9247 4.5 27 4.5Z" fill="white"/>
</mask>
<g mask="url(#mask0)">
<rect width="54" height="54" fill="white"/>
</g>
</svg>
