<svg width="54" height="54" viewBox="0 0 54 54" fill="none" xmlns="http://www.w3.org/2000/svg">
<path fill-rule="evenodd" clip-rule="evenodd" d="M42.728 45.0001H36.0005V29.2501C36.0005 28.0058 34.9925 27.0001 33.7505 27.0001H20.2505C19.0062 27.0001 18.0005 28.0058 18.0005 29.2501V45.0001H11.2505L11.264 26.0618L26.996 9.97205L42.7505 26.1541L42.728 45.0001ZM22.5005 45H31.5005V31.5H22.5005V45ZM45.9545 22.9163L28.6092 5.17728C27.761 4.31103 26.24 4.31103 25.3917 5.17728L8.04424 22.9185C7.22299 23.7623 6.75049 24.9413 6.75049 26.154V45C6.75049 47.4818 8.65624 49.5 10.9985 49.5H20.2505H33.7505H43.0002C45.3425 49.5 47.2505 47.4818 47.2505 45V26.154C47.2505 24.9413 46.778 23.7623 45.9545 22.9163Z" fill="#5FBA46"/>
<mask id="mask0" mask-type="alpha" maskUnits="userSpaceOnUse" x="6" y="4" width="42" height="46">
<path fill-rule="evenodd" clip-rule="evenodd" d="M42.728 45.0001H36.0005V29.2501C36.0005 28.0058 34.9925 27.0001 33.7505 27.0001H20.2505C19.0062 27.0001 18.0005 28.0058 18.0005 29.2501V45.0001H11.2505L11.264 26.0618L26.996 9.97205L42.7505 26.1541L42.728 45.0001ZM22.5005 45H31.5005V31.5H22.5005V45ZM45.9545 22.9163L28.6092 5.17728C27.761 4.31103 26.24 4.31103 25.3917 5.17728L8.04424 22.9185C7.22299 23.7623 6.75049 24.9413 6.75049 26.154V45C6.75049 47.4818 8.65624 49.5 10.9985 49.5H20.2505H33.7505H43.0002C45.3425 49.5 47.2505 47.4818 47.2505 45V26.154C47.2505 24.9413 46.778 23.7623 45.9545 22.9163Z" fill="white"/>
</mask>
<g mask="url(#mask0)">
<rect width="54" height="54" fill="#5FBA46"/>
</g>
</svg>
