<svg width="54" height="54" viewBox="0 0 54 54" fill="none" xmlns="http://www.w3.org/2000/svg">
<path fill-rule="evenodd" clip-rule="evenodd" d="M32.8884 43.992C35.2486 40.6215 37.7034 35.6648 38.1939 29.25H44.8426C43.9809 36.117 39.2424 41.7825 32.8884 43.992ZM9.15516 29.25H15.8872C16.3507 35.6895 18.7739 40.626 21.1657 44.0122C14.7824 41.814 10.0214 36.1373 9.15516 29.25ZM21.2354 9.96522C18.8684 13.3357 16.3912 18.3082 15.8962 24.75H9.15516C10.0237 17.838 14.8184 12.1432 21.2354 9.96522ZM20.4278 24.75C21.1163 17.388 24.8828 12.2625 27.0586 9.89323C29.3086 12.303 33.0166 17.3812 33.6578 24.75H20.4278ZM20.43 29.25H33.6645C32.976 36.6233 29.2005 41.7488 27.027 44.118C24.6713 41.6205 21.0578 36.612 20.43 29.25ZM44.8424 24.75H38.2004C37.7392 18.3398 35.3429 13.419 32.9624 10.0373C39.2804 12.2648 43.9852 17.91 44.8424 24.75ZM49.5 27C49.5 14.616 39.4403 4.5405 27.063 4.5045C27.054 4.5045 27.045 4.50225 27.0338 4.50225C27.0248 4.50225 27.0113 4.5 27 4.5C14.5935 4.5 4.5 14.5958 4.5 27C4.5 39.4065 14.5935 49.5 27 49.5C27.0135 49.5 27.0248 49.4978 27.0338 49.4978C27.0383 49.4978 27.0405 49.5 27.045 49.5C27.0518 49.5 27.0585 49.4955 27.063 49.4955C39.4403 49.4618 49.5 39.384 49.5 27Z" fill="#59C13F"/>
<mask id="mask0" mask-type="alpha" maskUnits="userSpaceOnUse" x="4" y="4" width="46" height="46">
<path fill-rule="evenodd" clip-rule="evenodd" d="M32.8884 43.992C35.2486 40.6215 37.7034 35.6648 38.1939 29.25H44.8426C43.9809 36.117 39.2424 41.7825 32.8884 43.992ZM9.15516 29.25H15.8872C16.3507 35.6895 18.7739 40.626 21.1657 44.0122C14.7824 41.814 10.0214 36.1373 9.15516 29.25ZM21.2354 9.96522C18.8684 13.3357 16.3912 18.3082 15.8962 24.75H9.15516C10.0237 17.838 14.8184 12.1432 21.2354 9.96522ZM20.4278 24.75C21.1163 17.388 24.8828 12.2625 27.0586 9.89323C29.3086 12.303 33.0166 17.3812 33.6578 24.75H20.4278ZM20.43 29.25H33.6645C32.976 36.6233 29.2005 41.7488 27.027 44.118C24.6713 41.6205 21.0578 36.612 20.43 29.25ZM44.8424 24.75H38.2004C37.7392 18.3398 35.3429 13.419 32.9624 10.0373C39.2804 12.2648 43.9852 17.91 44.8424 24.75ZM49.5 27C49.5 14.616 39.4403 4.5405 27.063 4.5045C27.054 4.5045 27.045 4.50225 27.0338 4.50225C27.0248 4.50225 27.0113 4.5 27 4.5C14.5935 4.5 4.5 14.5958 4.5 27C4.5 39.4065 14.5935 49.5 27 49.5C27.0135 49.5 27.0248 49.4978 27.0338 49.4978C27.0383 49.4978 27.0405 49.5 27.045 49.5C27.0518 49.5 27.0585 49.4955 27.063 49.4955C39.4403 49.4618 49.5 39.384 49.5 27Z" fill="white"/>
</mask>
<g mask="url(#mask0)">
<rect width="54" height="54" fill="#59C13F"/>
</g>
</svg>
