<svg width="54" height="54" viewBox="0 0 54 54" fill="none" xmlns="http://www.w3.org/2000/svg">
<path fill-rule="evenodd" clip-rule="evenodd" d="M33.75 42.75V33.75H42.75L42.7523 42.75H33.75ZM42.75 29.25H33.75C31.2683 29.25 29.25 31.2682 29.25 33.75V42.75C29.25 45.2317 31.2683 47.25 33.75 47.25H42.75C45.2318 47.25 47.25 45.2317 47.25 42.75V33.75C47.25 31.2682 45.2318 29.25 42.75 29.25ZM11.25 42.75V33.75H20.25L20.2523 42.75H11.25ZM20.25 29.25H11.25C8.76825 29.25 6.75 31.2682 6.75 33.75V42.75C6.75 45.2317 8.76825 47.25 11.25 47.25H20.25C22.7318 47.25 24.75 45.2317 24.75 42.75V33.75C24.75 31.2682 22.7318 29.25 20.25 29.25ZM33.75 20.25V11.25H42.75L42.7523 20.25H33.75ZM42.75 6.75H33.75C31.2683 6.75 29.25 8.76825 29.25 11.25V20.25C29.25 22.7318 31.2683 24.75 33.75 24.75H42.75C45.2318 24.75 47.25 22.7318 47.25 20.25V11.25C47.25 8.76825 45.2318 6.75 42.75 6.75ZM11.25 20.25V11.25H20.25L20.2523 20.25H11.25ZM20.25 6.75H11.25C8.76825 6.75 6.75 8.76825 6.75 11.25V20.25C6.75 22.7318 8.76825 24.75 11.25 24.75H20.25C22.7318 24.75 24.75 22.7318 24.75 20.25V11.25C24.75 8.76825 22.7318 6.75 20.25 6.75Z" fill="white"/>
<mask id="mask0" mask-type="alpha" maskUnits="userSpaceOnUse" x="6" y="6" width="42" height="42">
<path fill-rule="evenodd" clip-rule="evenodd" d="M33.75 42.75V33.75H42.75L42.7523 42.75H33.75ZM42.75 29.25H33.75C31.2683 29.25 29.25 31.2682 29.25 33.75V42.75C29.25 45.2317 31.2683 47.25 33.75 47.25H42.75C45.2318 47.25 47.25 45.2317 47.25 42.75V33.75C47.25 31.2682 45.2318 29.25 42.75 29.25ZM11.25 42.75V33.75H20.25L20.2523 42.75H11.25ZM20.25 29.25H11.25C8.76825 29.25 6.75 31.2682 6.75 33.75V42.75C6.75 45.2317 8.76825 47.25 11.25 47.25H20.25C22.7318 47.25 24.75 45.2317 24.75 42.75V33.75C24.75 31.2682 22.7318 29.25 20.25 29.25ZM33.75 20.25V11.25H42.75L42.7523 20.25H33.75ZM42.75 6.75H33.75C31.2683 6.75 29.25 8.76825 29.25 11.25V20.25C29.25 22.7318 31.2683 24.75 33.75 24.75H42.75C45.2318 24.75 47.25 22.7318 47.25 20.25V11.25C47.25 8.76825 45.2318 6.75 42.75 6.75ZM11.25 20.25V11.25H20.25L20.2523 20.25H11.25ZM20.25 6.75H11.25C8.76825 6.75 6.75 8.76825 6.75 11.25V20.25C6.75 22.7318 8.76825 24.75 11.25 24.75H20.25C22.7318 24.75 24.75 22.7318 24.75 20.25V11.25C24.75 8.76825 22.7318 6.75 20.25 6.75Z" fill="white"/>
</mask>
<g mask="url(#mask0)">
<rect width="54" height="54" fill="white"/>
</g>
</svg>
