<svg width="54" height="54" viewBox="0 0 54 54" fill="none" xmlns="http://www.w3.org/2000/svg">
<path fill-rule="evenodd" clip-rule="evenodd" d="M27 9.32957L11.25 18.1901V18.5163C11.25 29.1813 17.0235 39.0566 26.3205 44.2878L27 44.6703L27.6795 44.2878C36.9765 39.0566 42.75 29.1813 42.75 18.5163V18.1901L27 9.32957ZM27 49.1636C26.2372 49.1636 25.4745 48.9746 24.7972 48.5921L24.1155 48.2073C13.4032 42.1841 6.75 30.8058 6.75 18.5163V18.1901C6.75 16.5723 7.6275 15.0693 9.0405 14.2706L24.795 5.41008C26.1563 4.64508 27.846 4.64283 29.2028 5.40783L44.955 14.2683C46.3725 15.0693 47.25 16.5723 47.25 18.1901V18.5163C47.25 30.8058 40.5967 42.1841 29.8845 48.2073L29.205 48.5898C28.5255 48.9723 27.7628 49.1636 27 49.1636Z" fill="#5FBA46"/>
<mask id="mask0" mask-type="alpha" maskUnits="userSpaceOnUse" x="6" y="4" width="42" height="46">
<path fill-rule="evenodd" clip-rule="evenodd" d="M27 9.32957L11.25 18.1901V18.5163C11.25 29.1813 17.0235 39.0566 26.3205 44.2878L27 44.6703L27.6795 44.2878C36.9765 39.0566 42.75 29.1813 42.75 18.5163V18.1901L27 9.32957ZM27 49.1636C26.2372 49.1636 25.4745 48.9746 24.7972 48.5921L24.1155 48.2073C13.4032 42.1841 6.75 30.8058 6.75 18.5163V18.1901C6.75 16.5723 7.6275 15.0693 9.0405 14.2706L24.795 5.41008C26.1563 4.64508 27.846 4.64283 29.2028 5.40783L44.955 14.2683C46.3725 15.0693 47.25 16.5723 47.25 18.1901V18.5163C47.25 30.8058 40.5967 42.1841 29.8845 48.2073L29.205 48.5898C28.5255 48.9723 27.7628 49.1636 27 49.1636Z" fill="white"/>
</mask>
<g mask="url(#mask0)">
<rect width="54" height="54" fill="#5FBA46"/>
</g>
</svg>
