<svg width="54" height="54" viewBox="0 0 54 54" fill="none" xmlns="http://www.w3.org/2000/svg">
<path fill-rule="evenodd" clip-rule="evenodd" d="M16.2441 13.5C14.3001 13.5 12.4776 14.2515 11.1141 15.6172C8.28363 18.4522 8.28363 23.067 11.1164 25.9065L26.9991 41.8162L42.8841 25.9065C45.7169 23.067 45.7169 18.4522 42.8841 15.6172C40.1571 12.8835 35.3511 12.888 32.6241 15.6172L28.5921 19.656C27.7461 20.5042 26.2521 20.5042 25.4061 19.656L21.3741 15.615C20.0106 14.2515 18.1904 13.5 16.2441 13.5ZM26.9991 47.25C26.4029 47.25 25.8291 47.0137 25.4084 46.5885L7.93038 29.0835C3.34938 24.4935 3.34938 17.0257 7.93038 12.4357C10.1444 10.2217 13.0964 9 16.2441 9C19.3919 9 22.3461 10.2217 24.5579 12.4357L26.9991 14.8815L29.4404 12.438C31.6544 10.2217 34.6064 9 37.7564 9C40.9019 9 43.8561 10.2217 46.0679 12.4357C50.6511 17.0257 50.6511 24.4935 46.0701 29.0835L28.5921 46.5907C28.1691 47.0137 27.5976 47.25 26.9991 47.25Z" fill="white"/>
<mask id="mask0" mask-type="alpha" maskUnits="userSpaceOnUse" x="4" y="9" width="46" height="39">
<path fill-rule="evenodd" clip-rule="evenodd" d="M16.2441 13.5C14.3001 13.5 12.4776 14.2515 11.1141 15.6172C8.28363 18.4522 8.28363 23.067 11.1164 25.9065L26.9991 41.8162L42.8841 25.9065C45.7169 23.067 45.7169 18.4522 42.8841 15.6172C40.1571 12.8835 35.3511 12.888 32.6241 15.6172L28.5921 19.656C27.7461 20.5042 26.2521 20.5042 25.4061 19.656L21.3741 15.615C20.0106 14.2515 18.1904 13.5 16.2441 13.5ZM26.9991 47.25C26.4029 47.25 25.8291 47.0137 25.4084 46.5885L7.93038 29.0835C3.34938 24.4935 3.34938 17.0257 7.93038 12.4357C10.1444 10.2217 13.0964 9 16.2441 9C19.3919 9 22.3461 10.2217 24.5579 12.4357L26.9991 14.8815L29.4404 12.438C31.6544 10.2217 34.6064 9 37.7564 9C40.9019 9 43.8561 10.2217 46.0679 12.4357C50.6511 17.0257 50.6511 24.4935 46.0701 29.0835L28.5921 46.5907C28.1691 47.0137 27.5976 47.25 26.9991 47.25Z" fill="white"/>
</mask>
<g mask="url(#mask0)">
<rect width="54" height="54" fill="white"/>
</g>
</svg>
