<svg width="54" height="54" viewBox="0 0 54 54" fill="none" xmlns="http://www.w3.org/2000/svg">
<path fill-rule="evenodd" clip-rule="evenodd" d="M47.2499 27C47.2499 25.758 46.2441 24.75 44.9999 24.75C43.7556 24.75 42.7499 25.758 42.7499 27V32.1682L33.2076 21.0352C32.4966 20.2027 31.2861 20.0047 30.3411 20.5717L20.7449 26.3295L10.7301 14.31C9.93364 13.3582 8.51839 13.2232 7.55764 14.022C6.60589 14.8162 6.47539 16.236 7.26964 17.19L18.5196 30.69C19.2329 31.5427 20.4591 31.752 21.4086 31.1782L31.0274 25.407L40.1084 36H33.7499C32.5056 36 31.4999 37.008 31.4999 38.25C31.4999 39.492 32.5056 40.5 33.7499 40.5H44.9999C45.2789 40.5 45.5556 40.4393 45.8189 40.3335C45.9291 40.2908 46.0146 40.2188 46.1159 40.1625C46.2329 40.0928 46.3589 40.05 46.4624 39.9578C46.4849 39.9398 46.4939 39.9128 46.5141 39.8925C46.6379 39.78 46.7234 39.6427 46.8179 39.5055C46.8921 39.3975 46.9799 39.303 47.0316 39.186C47.0879 39.0667 47.1059 38.934 47.1374 38.8057C47.1801 38.6483 47.2274 38.4953 47.2319 38.3333C47.2341 38.304 47.2499 38.2792 47.2499 38.25V27Z" fill="#5FBA46"/>
<mask id="mask0" mask-type="alpha" maskUnits="userSpaceOnUse" x="6" y="13" width="42" height="28">
<path fill-rule="evenodd" clip-rule="evenodd" d="M47.2499 27C47.2499 25.758 46.2441 24.75 44.9999 24.75C43.7556 24.75 42.7499 25.758 42.7499 27V32.1682L33.2076 21.0352C32.4966 20.2027 31.2861 20.0047 30.3411 20.5717L20.7449 26.3295L10.7301 14.31C9.93364 13.3582 8.51839 13.2232 7.55764 14.022C6.60589 14.8162 6.47539 16.236 7.26964 17.19L18.5196 30.69C19.2329 31.5427 20.4591 31.752 21.4086 31.1782L31.0274 25.407L40.1084 36H33.7499C32.5056 36 31.4999 37.008 31.4999 38.25C31.4999 39.492 32.5056 40.5 33.7499 40.5H44.9999C45.2789 40.5 45.5556 40.4393 45.8189 40.3335C45.9291 40.2908 46.0146 40.2188 46.1159 40.1625C46.2329 40.0928 46.3589 40.05 46.4624 39.9578C46.4849 39.9398 46.4939 39.9128 46.5141 39.8925C46.6379 39.78 46.7234 39.6427 46.8179 39.5055C46.8921 39.3975 46.9799 39.303 47.0316 39.186C47.0879 39.0667 47.1059 38.934 47.1374 38.8057C47.1801 38.6483 47.2274 38.4953 47.2319 38.3333C47.2341 38.304 47.2499 38.2792 47.2499 38.25V27Z" fill="white"/>
</mask>
<g mask="url(#mask0)">
<rect width="54" height="54" fill="#5FBA46"/>
</g>
</svg>
