<svg width="54" height="54" viewBox="0 0 54 54" fill="none" xmlns="http://www.w3.org/2000/svg">
<path fill-rule="evenodd" clip-rule="evenodd" d="M20.25 29.25V27C20.25 23.2785 23.2785 20.25 27 20.25H29.25V12.7508C29.25 11.9227 28.5772 11.25 27.7493 11.25H12.7508C11.9227 11.25 11.25 11.9227 11.25 12.7508V27.7493C11.25 28.5772 11.9227 29.25 12.7508 29.25H20.25ZM20.25 33.75H12.7508C9.441 33.75 6.75 31.059 6.75 27.7493V12.7508C6.75 9.441 9.441 6.75 12.7508 6.75H27.7493C31.059 6.75 33.75 9.441 33.75 12.7508V20.25H40.5C44.2215 20.25 47.25 23.2785 47.25 27V40.5C47.25 44.2215 44.2215 47.25 40.5 47.25H27C23.2785 47.25 20.25 44.2215 20.25 40.5V33.75ZM24.75 27C24.75 25.7603 25.7603 24.75 27 24.75H40.5C41.742 24.75 42.75 25.7603 42.75 27V40.5C42.75 41.7397 41.742 42.75 40.5 42.75H27C25.7603 42.75 24.75 41.7397 24.75 40.5V27Z" fill="#5FBA46"/>
<mask id="mask0" mask-type="alpha" maskUnits="userSpaceOnUse" x="6" y="6" width="42" height="42">
<path fill-rule="evenodd" clip-rule="evenodd" d="M20.25 29.25V27C20.25 23.2785 23.2785 20.25 27 20.25H29.25V12.7508C29.25 11.9227 28.5772 11.25 27.7493 11.25H12.7508C11.9227 11.25 11.25 11.9227 11.25 12.7508V27.7493C11.25 28.5772 11.9227 29.25 12.7508 29.25H20.25ZM20.25 33.75H12.7508C9.441 33.75 6.75 31.059 6.75 27.7493V12.7508C6.75 9.441 9.441 6.75 12.7508 6.75H27.7493C31.059 6.75 33.75 9.441 33.75 12.7508V20.25H40.5C44.2215 20.25 47.25 23.2785 47.25 27V40.5C47.25 44.2215 44.2215 47.25 40.5 47.25H27C23.2785 47.25 20.25 44.2215 20.25 40.5V33.75ZM24.75 27C24.75 25.7603 25.7603 24.75 27 24.75H40.5C41.742 24.75 42.75 25.7603 42.75 27V40.5C42.75 41.7397 41.742 42.75 40.5 42.75H27C25.7603 42.75 24.75 41.7397 24.75 40.5V27Z" fill="white"/>
</mask>
<g mask="url(#mask0)">
<rect width="54" height="54" fill="#5FBA46"/>
</g>
</svg>
