<svg width="50" height="50" viewBox="0 0 50 50" fill="none" xmlns="http://www.w3.org/2000/svg">
<path fill-rule="evenodd" clip-rule="evenodd" d="M18.75 27.0833V25C18.75 21.5542 21.5542 18.75 25 18.75H27.0833V11.8063C27.0833 11.0396 26.4604 10.4167 25.6938 10.4167H11.8063C11.0396 10.4167 10.4167 11.0396 10.4167 11.8063V25.6938C10.4167 26.4604 11.0396 27.0833 11.8063 27.0833H18.75ZM18.75 31.25H11.8063C8.74167 31.25 6.25 28.7583 6.25 25.6938V11.8063C6.25 8.74167 8.74167 6.25 11.8063 6.25H25.6938C28.7583 6.25 31.25 8.74167 31.25 11.8063V18.75H37.5C40.9458 18.75 43.75 21.5542 43.75 25V37.5C43.75 40.9458 40.9458 43.75 37.5 43.75H25C21.5542 43.75 18.75 40.9458 18.75 37.5V31.25ZM22.9167 25C22.9167 23.8521 23.8521 22.9167 25 22.9167H37.5C38.65 22.9167 39.5833 23.8521 39.5833 25V37.5C39.5833 38.6479 38.65 39.5833 37.5 39.5833H25C23.8521 39.5833 22.9167 38.6479 22.9167 37.5V25Z" fill="#5FBA46"/>
<mask id="mask0" mask-type="alpha" maskUnits="userSpaceOnUse" x="6" y="6" width="38" height="38">
<path fill-rule="evenodd" clip-rule="evenodd" d="M18.75 27.0833V25C18.75 21.5542 21.5542 18.75 25 18.75H27.0833V11.8063C27.0833 11.0396 26.4604 10.4167 25.6938 10.4167H11.8063C11.0396 10.4167 10.4167 11.0396 10.4167 11.8063V25.6938C10.4167 26.4604 11.0396 27.0833 11.8063 27.0833H18.75ZM18.75 31.25H11.8063C8.74167 31.25 6.25 28.7583 6.25 25.6938V11.8063C6.25 8.74167 8.74167 6.25 11.8063 6.25H25.6938C28.7583 6.25 31.25 8.74167 31.25 11.8063V18.75H37.5C40.9458 18.75 43.75 21.5542 43.75 25V37.5C43.75 40.9458 40.9458 43.75 37.5 43.75H25C21.5542 43.75 18.75 40.9458 18.75 37.5V31.25ZM22.9167 25C22.9167 23.8521 23.8521 22.9167 25 22.9167H37.5C38.65 22.9167 39.5833 23.8521 39.5833 25V37.5C39.5833 38.6479 38.65 39.5833 37.5 39.5833H25C23.8521 39.5833 22.9167 38.6479 22.9167 37.5V25Z" fill="white"/>
</mask>
<g mask="url(#mask0)">
<rect width="50" height="50" fill="#5FBA46"/>
</g>
</svg>
