<svg width="50" height="50" viewBox="0 0 50 50" fill="none" xmlns="http://www.w3.org/2000/svg">
<path fill-rule="evenodd" clip-rule="evenodd" d="M37.4998 20.8333C37.4998 19.6854 36.5665 18.75 35.4165 18.75C34.2665 18.75 33.3332 19.6854 33.3332 20.8333C33.3332 21.9813 34.2665 22.9167 35.4165 22.9167C36.5665 22.9167 37.4998 21.9813 37.4998 20.8333ZM41.6665 20.8333C41.6665 24.2792 38.8623 27.0833 35.4165 27.0833C31.9707 27.0833 29.1665 24.2792 29.1665 20.8333C29.1665 17.3875 31.9707 14.5833 35.4165 14.5833C38.8623 14.5833 41.6665 17.3875 41.6665 20.8333ZM22.9165 14.5833C22.9165 12.2854 21.0478 10.4167 18.7498 10.4167C16.4519 10.4167 14.5832 12.2854 14.5832 14.5833C14.5832 16.8813 16.4519 18.75 18.7498 18.75C21.0478 18.75 22.9165 16.8813 22.9165 14.5833ZM27.0832 14.5833C27.0832 19.1792 23.3457 22.9167 18.7498 22.9167C14.154 22.9167 10.4165 19.1792 10.4165 14.5833C10.4165 9.9875 14.154 6.25 18.7498 6.25C23.3457 6.25 27.0832 9.9875 27.0832 14.5833ZM29.0415 31.3458C30.8519 29.9458 33.0811 29.1667 35.4165 29.1667C41.1603 29.1667 45.8332 33.8396 45.8332 39.5833C45.8332 40.7333 44.9019 41.6667 43.7498 41.6667C42.5978 41.6667 41.6665 40.7333 41.6665 39.5833C41.6665 36.1375 38.8623 33.3333 35.4165 33.3333C33.9936 33.3333 32.6415 33.8208 31.5498 34.6854C32.6832 36.7604 33.3332 39.1396 33.3332 41.6667C33.3332 42.8167 32.4019 43.75 31.2498 43.75C30.0978 43.75 29.1665 42.8167 29.1665 41.6667C29.1665 35.9229 24.4936 31.25 18.7498 31.25C13.0061 31.25 8.33317 35.9229 8.33317 41.6667C8.33317 42.8167 7.40192 43.75 6.24984 43.75C5.09775 43.75 4.1665 42.8167 4.1665 41.6667C4.1665 33.625 10.7103 27.0833 18.7498 27.0833C22.7644 27.0833 26.4019 28.7146 29.0415 31.3458Z" fill="#5FBA46"/>
<mask id="mask0" mask-type="alpha" maskUnits="userSpaceOnUse" x="4" y="6" width="42" height="38">
<path fill-rule="evenodd" clip-rule="evenodd" d="M37.4998 20.8333C37.4998 19.6854 36.5665 18.75 35.4165 18.75C34.2665 18.75 33.3332 19.6854 33.3332 20.8333C33.3332 21.9813 34.2665 22.9167 35.4165 22.9167C36.5665 22.9167 37.4998 21.9813 37.4998 20.8333ZM41.6665 20.8333C41.6665 24.2792 38.8623 27.0833 35.4165 27.0833C31.9707 27.0833 29.1665 24.2792 29.1665 20.8333C29.1665 17.3875 31.9707 14.5833 35.4165 14.5833C38.8623 14.5833 41.6665 17.3875 41.6665 20.8333ZM22.9165 14.5833C22.9165 12.2854 21.0478 10.4167 18.7498 10.4167C16.4519 10.4167 14.5832 12.2854 14.5832 14.5833C14.5832 16.8813 16.4519 18.75 18.7498 18.75C21.0478 18.75 22.9165 16.8813 22.9165 14.5833ZM27.0832 14.5833C27.0832 19.1792 23.3457 22.9167 18.7498 22.9167C14.154 22.9167 10.4165 19.1792 10.4165 14.5833C10.4165 9.9875 14.154 6.25 18.7498 6.25C23.3457 6.25 27.0832 9.9875 27.0832 14.5833ZM29.0415 31.3458C30.8519 29.9458 33.0811 29.1667 35.4165 29.1667C41.1603 29.1667 45.8332 33.8396 45.8332 39.5833C45.8332 40.7333 44.9019 41.6667 43.7498 41.6667C42.5978 41.6667 41.6665 40.7333 41.6665 39.5833C41.6665 36.1375 38.8623 33.3333 35.4165 33.3333C33.9936 33.3333 32.6415 33.8208 31.5498 34.6854C32.6832 36.7604 33.3332 39.1396 33.3332 41.6667C33.3332 42.8167 32.4019 43.75 31.2498 43.75C30.0978 43.75 29.1665 42.8167 29.1665 41.6667C29.1665 35.9229 24.4936 31.25 18.7498 31.25C13.0061 31.25 8.33317 35.9229 8.33317 41.6667C8.33317 42.8167 7.40192 43.75 6.24984 43.75C5.09775 43.75 4.1665 42.8167 4.1665 41.6667C4.1665 33.625 10.7103 27.0833 18.7498 27.0833C22.7644 27.0833 26.4019 28.7146 29.0415 31.3458Z" fill="white"/>
</mask>
<g mask="url(#mask0)">
<rect width="50" height="50" fill="#5FBA46"/>
</g>
</svg>
