<svg width="28" height="28" viewBox="0 0 28 28" fill="none" xmlns="http://www.w3.org/2000/svg">
<g id="Icon/Outline/arrow-right">
<path id="Mask" fill-rule="evenodd" clip-rule="evenodd" d="M12.25 9.35037V18.56L17.8745 13.9972L12.25 9.35037ZM12.1986 21.0007C11.8405 21.0007 11.4788 20.9237 11.1416 20.765C10.3856 20.4092 9.91663 19.6999 9.91663 18.9147V9.08437C9.91663 8.30037 10.3856 7.59104 11.1416 7.2352C11.9956 6.8327 13.0083 6.94937 13.7188 7.5362L19.6676 12.4525C20.1448 12.8445 20.4166 13.4092 20.4166 13.9995C20.4166 14.5899 20.1448 15.1557 19.6676 15.5477L13.7188 20.4617C13.2895 20.8175 12.7481 21.0007 12.1986 21.0007Z" fill="#4C789D"/>
<mask id="mask0" mask-type="alpha" maskUnits="userSpaceOnUse" x="9" y="6" width="12" height="16">
<path id="Mask_2" fill-rule="evenodd" clip-rule="evenodd" d="M12.25 9.35037V18.56L17.8745 13.9972L12.25 9.35037ZM12.1986 21.0007C11.8405 21.0007 11.4788 20.9237 11.1416 20.765C10.3856 20.4092 9.91663 19.6999 9.91663 18.9147V9.08437C9.91663 8.30037 10.3856 7.59104 11.1416 7.2352C11.9956 6.8327 13.0083 6.94937 13.7188 7.5362L19.6676 12.4525C20.1448 12.8445 20.4166 13.4092 20.4166 13.9995C20.4166 14.5899 20.1448 15.1557 19.6676 15.5477L13.7188 20.4617C13.2895 20.8175 12.7481 21.0007 12.1986 21.0007Z" fill="#4C789D"/>
</mask>
<g mask="url(#mask0)">
<g id="&#240;&#159;&#142;&#168; Color">
<rect id="Base" width="28" height="28" fill="#4C789D"/>
</g>
</g>
</g>
</svg>
