<svg width="50" height="50" viewBox="0 0 50 50" fill="none" xmlns="http://www.w3.org/2000/svg">
<path fill-rule="evenodd" clip-rule="evenodd" d="M39.5833 39.5834C39.5833 40.7334 38.6479 41.6667 37.5 41.6667H12.5C11.3521 41.6667 10.4167 40.7334 10.4167 39.5834V16.6667C10.4167 15.5167 11.3521 14.5834 12.5 14.5834V16.6667C12.5 18.9647 14.3687 20.8334 16.6667 20.8334H33.3333C35.6313 20.8334 37.5 18.9647 37.5 16.6667V14.5834C38.6479 14.5834 39.5833 15.5167 39.5833 16.6667V39.5834ZM16.6667 8.33342L33.3333 8.33966V10.4167V16.6667H16.6667V10.4167V8.33342ZM37.5 10.4167V8.33342C37.5 6.0355 35.6312 4.16675 33.3333 4.16675H16.6667C14.3687 4.16675 12.5 6.0355 12.5 8.33342V10.4167C9.05417 10.4167 6.25 13.2209 6.25 16.6667V39.5834C6.25 43.0293 9.05417 45.8334 12.5 45.8334H37.5C40.9458 45.8334 43.75 43.0293 43.75 39.5834V16.6667C43.75 13.2209 40.9458 10.4167 37.5 10.4167Z" fill="#5FBA46"/>
<mask id="mask0" mask-type="alpha" maskUnits="userSpaceOnUse" x="6" y="4" width="38" height="42">
<path fill-rule="evenodd" clip-rule="evenodd" d="M39.5833 39.5834C39.5833 40.7334 38.6479 41.6667 37.5 41.6667H12.5C11.3521 41.6667 10.4167 40.7334 10.4167 39.5834V16.6667C10.4167 15.5167 11.3521 14.5834 12.5 14.5834V16.6667C12.5 18.9647 14.3687 20.8334 16.6667 20.8334H33.3333C35.6313 20.8334 37.5 18.9647 37.5 16.6667V14.5834C38.6479 14.5834 39.5833 15.5167 39.5833 16.6667V39.5834ZM16.6667 8.33342L33.3333 8.33966V10.4167V16.6667H16.6667V10.4167V8.33342ZM37.5 10.4167V8.33342C37.5 6.0355 35.6312 4.16675 33.3333 4.16675H16.6667C14.3687 4.16675 12.5 6.0355 12.5 8.33342V10.4167C9.05417 10.4167 6.25 13.2209 6.25 16.6667V39.5834C6.25 43.0293 9.05417 45.8334 12.5 45.8334H37.5C40.9458 45.8334 43.75 43.0293 43.75 39.5834V16.6667C43.75 13.2209 40.9458 10.4167 37.5 10.4167Z" fill="white"/>
</mask>
<g mask="url(#mask0)">
<rect width="50" height="50" fill="#5FBA46"/>
</g>
</svg>
