<svg width="18" height="18" viewBox="-2 -2 19 22" fill="none" xmlns="http://www.w3.org/2000/svg">
<path d="M5.73633 15.3C5.73633 14.584 6.0152 13.8972 6.51159 13.3909C7.00798 12.8845 7.68123 12.6001 8.38323 12.6001C9.08523 12.6001 9.75847 12.8845 10.2549 13.3909C10.7513 13.8972 11.0301 14.584 11.0301 15.3C11.0301 16.0161 10.7513 16.7029 10.2549 17.2092C9.75847 17.7155 9.08523 18 8.38323 18C7.68123 18 7.00798 17.7155 6.51159 17.2092C6.0152 16.7029 5.73633 16.0161 5.73633 15.3ZM1.28859 5.5409L1.76599 5.16585C1.8515 5.08909 1.95125 5.03063 2.05932 4.99393C2.16739 4.95723 2.28159 4.94303 2.39514 4.95219C2.50869 4.96135 2.61928 4.99366 2.72036 5.04723C2.82143 5.1008 2.91094 5.17452 2.98356 5.26403C3.13191 5.44718 3.20469 5.68196 3.18656 5.91881C3.16842 6.15567 3.06078 6.37607 2.88635 6.5335L2.40798 6.90757C1.60621 7.62723 1.48975 8.92518 2.14907 9.7872C2.30107 9.98953 2.49144 10.1586 2.70885 10.2842C2.92626 10.4099 3.16624 10.4896 3.41451 10.5187C3.66277 10.5477 3.91422 10.5255 4.15388 10.4533C4.39353 10.3811 4.61648 10.2604 4.80944 10.0984L9.11569 6.49521C9.48398 6.18595 9.90953 5.95546 10.367 5.81749C10.8244 5.67952 11.3044 5.63689 11.7784 5.69213C12.2523 5.74738 12.7105 5.89937 13.1257 6.13905C13.5408 6.37873 13.9044 6.7012 14.1948 7.08724C15.4346 8.70918 15.219 11.1067 13.7117 12.4577L12.7925 13.2824C12.7074 13.3591 12.6081 13.4175 12.5005 13.4543C12.3928 13.491 12.279 13.5052 12.1659 13.4962C12.0527 13.4871 11.9425 13.4549 11.8418 13.4015C11.7411 13.3481 11.652 13.2745 11.5797 13.1852C11.4311 13.0027 11.3576 12.7686 11.3749 12.532C11.3921 12.2954 11.4987 12.0748 11.6721 11.9167L12.5923 11.092C13.395 10.3714 13.5115 9.07638 12.8512 8.21239C12.699 8.01029 12.5086 7.84147 12.2912 7.71595C12.0738 7.59044 11.8338 7.5108 11.5856 7.48176C11.3375 7.45273 11.0861 7.47489 10.8465 7.54694C10.6069 7.61899 10.3839 7.73945 10.1908 7.90115L5.8836 11.5034C4.3253 12.8072 2.05282 12.5421 0.804446 10.9114C-0.4343 9.29139 -0.218699 6.89088 1.28762 5.5409H1.28859ZM5.55249 6.03573L2.46573 2.8861C2.35765 2.77605 2.27945 2.63926 2.23878 2.48911C2.1981 2.33897 2.19636 2.18062 2.23372 2.02959C2.27107 1.87855 2.34625 1.74 2.45188 1.62751C2.55751 1.51501 2.68998 1.43243 2.8363 1.38786L7.24747 0.037879C7.40006 -0.008784 7.56219 -0.0124034 7.71664 0.0274055C7.87109 0.0672144 8.01208 0.148964 8.12462 0.263966C8.23716 0.378968 8.31706 0.522926 8.35582 0.680539C8.39457 0.838152 8.39074 1.00353 8.34473 1.1591L7.0232 5.65871C6.97939 5.80789 6.89835 5.94291 6.78802 6.05055C6.67768 6.15818 6.54184 6.23475 6.39379 6.27276C6.24573 6.31076 6.09054 6.30889 5.94341 6.26734C5.79627 6.22579 5.66223 6.14598 5.55442 6.03573H5.55249Z" fill="#59C13F"/>
</svg>
