<svg width="18" height="18" viewBox="0 0 18 18" fill="none" xmlns="http://www.w3.org/2000/svg">
<g id="Icon/Outline/pin">
<path id="Mask" fill-rule="evenodd" clip-rule="evenodd" d="M9 8.24974C8.37975 8.24974 7.875 7.74499 7.875 7.12474C7.875 6.50449 8.37975 5.99974 9 5.99974C9.62025 5.99974 10.125 6.50449 10.125 7.12474C10.125 7.74499 9.62025 8.24974 9 8.24974ZM9 4.49974C7.5525 4.49974 6.375 5.67724 6.375 7.12474C6.375 8.57224 7.5525 9.74974 9 9.74974C10.4475 9.74974 11.625 8.57224 11.625 7.12474C11.625 5.67724 10.4475 4.49974 9 4.49974ZM9 14.7345C7.74375 13.5465 4.5 10.2113 4.5 7.4415C4.5 4.99275 6.51825 3 9 3C11.4818 3 13.5 4.99275 13.5 7.4415C13.5 10.2113 10.2562 13.5465 9 14.7345ZM9 1.5C5.69175 1.5 3 4.16475 3 7.4415C3 11.5477 8.28675 16.1257 8.51175 16.3185C8.65275 16.4392 8.826 16.5 9 16.5C9.174 16.5 9.34725 16.4392 9.48825 16.3185C9.71325 16.1257 15 11.5477 15 7.4415C15 4.16475 12.3082 1.5 9 1.5Z" fill="#5CBB47"/>
<mask id="mask0" mask-type="alpha" maskUnits="userSpaceOnUse" x="3" y="1" width="12" height="16">
<path id="Mask_2" fill-rule="evenodd" clip-rule="evenodd" d="M9 8.24974C8.37975 8.24974 7.875 7.74499 7.875 7.12474C7.875 6.50449 8.37975 5.99974 9 5.99974C9.62025 5.99974 10.125 6.50449 10.125 7.12474C10.125 7.74499 9.62025 8.24974 9 8.24974ZM9 4.49974C7.5525 4.49974 6.375 5.67724 6.375 7.12474C6.375 8.57224 7.5525 9.74974 9 9.74974C10.4475 9.74974 11.625 8.57224 11.625 7.12474C11.625 5.67724 10.4475 4.49974 9 4.49974ZM9 14.7345C7.74375 13.5465 4.5 10.2113 4.5 7.4415C4.5 4.99275 6.51825 3 9 3C11.4818 3 13.5 4.99275 13.5 7.4415C13.5 10.2113 10.2562 13.5465 9 14.7345ZM9 1.5C5.69175 1.5 3 4.16475 3 7.4415C3 11.5477 8.28675 16.1257 8.51175 16.3185C8.65275 16.4392 8.826 16.5 9 16.5C9.174 16.5 9.34725 16.4392 9.48825 16.3185C9.71325 16.1257 15 11.5477 15 7.4415C15 4.16475 12.3082 1.5 9 1.5Z" fill="white"/>
</mask>
<g mask="url(#mask0)">
<g id="&#240;&#159;&#142;&#168; Color">
<rect id="Base" width="18" height="18" fill="#5CBB47"/>
</g>
</g>
</g>
</svg>
