<svg width="18" height="18" viewBox="0 0 18 18" fill="none" xmlns="http://www.w3.org/2000/svg">
<g id="Icon/Outline/shield">
<path id="Mask" fill-rule="evenodd" clip-rule="evenodd" d="M8.99999 3.10947L3.74999 6.06297V6.17172C3.74999 9.72672 5.67449 13.0185 8.77349 14.7622L8.99999 14.8897L9.22649 14.7622C12.3255 13.0185 14.25 9.72672 14.25 6.17172V6.06297L8.99999 3.10947ZM9 16.3875C8.74575 16.3875 8.4915 16.3245 8.26575 16.197L8.0385 16.0687C4.46775 14.061 2.25 10.2682 2.25 6.1717V6.06295C2.25 5.5237 2.5425 5.0227 3.0135 4.75645L8.265 1.80295C8.71875 1.54795 9.282 1.5472 9.73425 1.8022L14.985 4.7557C15.4575 5.0227 15.75 5.5237 15.75 6.06295V6.1717C15.75 10.2682 13.5322 14.061 9.9615 16.0687L9.735 16.1962C9.5085 16.3237 9.25425 16.3875 9 16.3875Z" fill="#5CBB47"/>
<mask id="mask0" mask-type="alpha" maskUnits="userSpaceOnUse" x="2" y="1" width="14" height="16">
<path id="Mask_2" fill-rule="evenodd" clip-rule="evenodd" d="M8.99999 3.10947L3.74999 6.06297V6.17172C3.74999 9.72672 5.67449 13.0185 8.77349 14.7622L8.99999 14.8897L9.22649 14.7622C12.3255 13.0185 14.25 9.72672 14.25 6.17172V6.06297L8.99999 3.10947ZM9 16.3875C8.74575 16.3875 8.4915 16.3245 8.26575 16.197L8.0385 16.0687C4.46775 14.061 2.25 10.2682 2.25 6.1717V6.06295C2.25 5.5237 2.5425 5.0227 3.0135 4.75645L8.265 1.80295C8.71875 1.54795 9.282 1.5472 9.73425 1.8022L14.985 4.7557C15.4575 5.0227 15.75 5.5237 15.75 6.06295V6.1717C15.75 10.2682 13.5322 14.061 9.9615 16.0687L9.735 16.1962C9.5085 16.3237 9.25425 16.3875 9 16.3875Z" fill="white"/>
</mask>
<g mask="url(#mask0)">
<g id="&#240;&#159;&#142;&#168; Color">
<rect id="Base" width="18" height="18" fill="#5CBB47"/>
</g>
</g>
</g>
</svg>
