<svg width="15" height="9" viewBox="0 0 15 9" fill="none" xmlns="http://www.w3.org/2000/svg">
<path opacity="0.25" d="M7.5 0C4.63409 0 2.03513 1.57824 0.117367 4.14173C-0.0391224 4.35175 -0.0391224 4.64516 0.117367 4.85518C2.03513 7.42176 4.63409 9 7.5 9C10.3659 9 12.9649 7.42176 14.8826 4.85827C15.0391 4.64825 15.0391 4.35484 14.8826 4.14482C12.9649 1.57824 10.3659 0 7.5 0ZM7.70558 7.66884C5.80316 7.78929 4.23213 6.21105 4.35179 4.29307C4.44998 2.71174 5.72338 1.42999 7.29442 1.33116C9.19684 1.21071 10.7679 2.78895 10.6482 4.70693C10.5469 6.28517 9.27355 7.56692 7.70558 7.66884ZM7.61046 6.20487C6.58561 6.26973 5.73872 5.42038 5.80623 4.38881C5.85839 3.53638 6.54572 2.84763 7.39261 2.79204C8.41746 2.72718 9.26435 3.57653 9.19684 4.6081C9.14161 5.46362 8.45428 6.15237 7.61046 6.20487Z" fill="black"/>
</svg>
