<svg width="42" height="42" viewBox="0 0 42 42" fill="none" xmlns="http://www.w3.org/2000/svg">
<path fill-rule="evenodd" clip-rule="evenodd" d="M26.6352 13.4885L18.7519 23.8406L15.3498 19.4947C14.6415 18.5864 13.329 18.4281 12.4248 19.1385C11.5185 19.8468 11.3581 21.1572 12.0685 22.0614L17.1331 28.5343C17.529 29.0385 18.1331 29.3322 18.7748 29.3322H18.7894C19.4331 29.3301 20.0415 29.026 20.431 28.5114L29.9498 16.0114C30.6477 15.0947 30.4706 13.7906 29.554 13.0926C28.6352 12.3947 27.331 12.5739 26.6352 13.4885ZM21.0026 37.6665C11.813 37.6665 4.33594 30.1894 4.33594 20.9998C4.33594 11.8102 11.813 4.33313 21.0026 4.33313C30.1922 4.33313 37.6693 11.8102 37.6693 20.9998C37.6693 30.1894 30.1922 37.6665 21.0026 37.6665ZM21.0013 0.166504C9.49505 0.166504 0.167969 9.49567 0.167969 20.9998C0.167969 32.504 9.49505 41.8332 21.0013 41.8332C32.5076 41.8332 41.8346 32.504 41.8346 20.9998C41.8346 9.49567 32.5076 0.166504 21.0013 0.166504Z" fill="white"/>
</svg>
