<svg width="40" height="38" viewBox="0 0 40 38" fill="none" xmlns="http://www.w3.org/2000/svg">
<path fill-rule="evenodd" clip-rule="evenodd" d="M33.5013 33.5833C32.3513 33.5833 31.418 32.65 31.418 31.5C31.418 30.35 32.3513 29.4167 33.5013 29.4167C34.6513 29.4167 35.5846 30.35 35.5846 31.5C35.5846 32.65 34.6513 33.5833 33.5013 33.5833ZM6.41927 21.0833C5.26927 21.0833 4.33594 20.15 4.33594 19C4.33594 17.85 5.26927 16.9166 6.41927 16.9166C7.56927 16.9166 8.5026 17.85 8.5026 19C8.5026 20.15 7.56927 21.0833 6.41927 21.0833ZM33.5013 4.41667C34.6513 4.41667 35.5846 5.35 35.5846 6.5C35.5846 7.65 34.6513 8.58333 33.5013 8.58333C32.3513 8.58333 31.418 7.65 31.418 6.5C31.418 5.35 32.3513 4.41667 33.5013 4.41667ZM33.5013 25.25C31.7992 25.25 30.2576 25.9375 29.1284 27.0437L12.5971 19.6979C12.6242 19.4667 12.668 19.2375 12.668 19C12.668 18.7625 12.6242 18.5333 12.5971 18.3021L29.1284 10.9562C30.2576 12.0625 31.7992 12.75 33.5013 12.75C36.9471 12.75 39.7513 9.94583 39.7513 6.5C39.7513 3.05417 36.9471 0.25 33.5013 0.25C30.0555 0.25 27.2513 3.05417 27.2513 6.5C27.2513 6.7375 27.2951 6.96667 27.3221 7.19792L10.7909 14.5437C9.66172 13.4375 8.12005 12.75 6.41797 12.75C2.97214 12.75 0.167969 15.5542 0.167969 19C0.167969 22.4458 2.97214 25.25 6.41797 25.25C8.12005 25.25 9.66172 24.5625 10.7909 23.4562L27.3221 30.8021C27.2951 31.0333 27.2513 31.2625 27.2513 31.5C27.2513 34.9458 30.0555 37.75 33.5013 37.75C36.9471 37.75 39.7513 34.9458 39.7513 31.5C39.7513 28.0542 36.9471 25.25 33.5013 25.25Z" fill="white"/>
</svg>
