<svg width="38" height="38" viewBox="0 0 38 38" fill="none" xmlns="http://www.w3.org/2000/svg">
<path fill-rule="evenodd" clip-rule="evenodd" d="M31.0001 26.375L19.0001 33.2646L7.00009 26.375L10.5293 24.8729L17.9626 29.1396C18.2834 29.325 18.6418 29.4167 19.0001 29.4167C19.3584 29.4167 19.7147 29.325 20.0376 29.1396L27.4709 24.8709L31.0001 26.375ZM17.9626 20.8063C18.2834 20.9917 18.6418 21.0834 19.0001 21.0834C19.3584 21.0834 19.7147 20.9917 20.0376 20.8063L27.4709 16.5375L31.0001 18.0417L19.0001 24.9313L7.00009 18.0417L10.5293 16.5375L17.9626 20.8063ZM19.0001 4.59798L31.0001 9.7084L19.0001 16.598L7.00009 9.7084L19.0001 4.59798ZM37.7455 17.6417C37.6976 16.8521 37.208 16.1584 36.4809 15.8479L31.9976 13.9396L36.7038 11.2375C37.3893 10.8459 37.7913 10.0979 37.7455 9.30837C37.6976 8.52087 37.208 7.82503 36.4809 7.51462L19.8143 0.416699C19.2934 0.193783 18.7038 0.193783 18.183 0.416699L1.51633 7.51462C0.789251 7.82503 0.299668 8.52087 0.253835 9.30837C0.205918 10.0979 0.610085 10.8459 1.2955 11.2375L5.99967 13.9396L1.51633 15.8479C0.789251 16.1584 0.299668 16.8521 0.253835 17.6417C0.205918 18.4313 0.610085 19.1792 1.2955 19.5709L5.99967 22.2729L1.51633 24.1813C0.789251 24.4917 0.299668 25.1854 0.253835 25.975C0.205918 26.7646 0.610085 27.5125 1.2955 27.9042L17.9622 37.4729C18.283 37.6584 18.6413 37.75 18.9997 37.75C19.358 37.75 19.7143 37.6584 20.0372 37.4729L36.7038 27.9042C37.3893 27.5125 37.7913 26.7646 37.7455 25.975C37.6976 25.1875 37.208 24.4917 36.483 24.1813L31.9997 22.2709L36.7038 19.5709C37.3893 19.1792 37.7913 18.4313 37.7455 17.6417Z" fill="white"/>
</svg>
