<svg width="42" height="38" viewBox="0 0 42 38" fill="none" xmlns="http://www.w3.org/2000/svg">
<path fill-rule="evenodd" clip-rule="evenodd" d="M35.5846 31.5C35.5846 32.65 34.6513 33.5833 33.5013 33.5833C32.3513 33.5833 31.418 32.65 31.418 31.5C31.418 30.35 32.3513 29.4167 33.5013 29.4167C34.6513 29.4167 35.5846 30.35 35.5846 31.5ZM21.0026 25.25H4.33594L4.36927 4.41663H27.2526L27.2193 25.25H21.0026ZM10.5846 31.5C10.5846 32.65 9.6513 33.5833 8.5013 33.5833C7.3513 33.5833 6.41797 32.65 6.41797 31.5C6.41797 30.35 7.3513 29.4167 8.5013 29.4167C9.6513 29.4167 10.5846 30.35 10.5846 31.5ZM37.668 20.0001V25.2501H31.418V15.0021L37.668 20.0001ZM41.0534 17.3729L31.418 9.66458V4.41667C31.418 2.11875 29.7242 0.25 27.6409 0.25H3.94297C1.86172 0.25 0.167969 2.11875 0.167969 4.41667V25.25C0.167969 27.0687 1.23672 28.6021 2.71172 29.1708C2.42005 29.8917 2.2513 30.675 2.2513 31.5C2.2513 34.9458 5.05547 37.75 8.5013 37.75C11.9471 37.75 14.7513 34.9458 14.7513 31.5C14.7513 30.7646 14.6013 30.0708 14.3659 29.4167H21.0013H27.6367C27.4013 30.0708 27.2513 30.7646 27.2513 31.5C27.2513 34.9458 30.0555 37.75 33.5013 37.75C36.9471 37.75 39.7513 34.9458 39.7513 31.5C39.7513 30.7646 39.6013 30.0708 39.3659 29.4167H39.7513C40.9034 29.4167 41.8346 28.4854 41.8346 27.3333V19C41.8346 18.3667 41.5471 17.7687 41.0534 17.3729Z" fill="white"/>
</svg>
