<svg width="28" height="28" viewBox="0 0 28 28" fill="none" xmlns="http://www.w3.org/2000/svg">
<g id="Icon/Outline/arrow-ios-right">
<path id="Mask" fill-rule="evenodd" clip-rule="evenodd" d="M11.6661 22.1666C11.4024 22.1666 11.1376 22.078 10.9194 21.896C10.4247 21.4841 10.3582 20.748 10.7701 20.2533L15.9921 13.9871L10.9579 7.73146C10.5542 7.2298 10.6336 6.4948 11.1352 6.09113C11.6381 5.68746 12.3719 5.7668 12.7767 6.26846L18.4094 13.2685C18.7571 13.7013 18.7524 14.3196 18.3966 14.7466L12.5632 21.7466C12.3322 22.0231 12.0009 22.1666 11.6661 22.1666Z" fill="#FFFFFF"/>
<mask id="mask0" mask-type="alpha" maskUnits="userSpaceOnUse" x="10" y="5" width="9" height="18">
<g id="Mask_2">
<path fill-rule="evenodd" clip-rule="evenodd" d="M11.6661 22.1666C11.4024 22.1666 11.1376 22.078 10.9194 21.896C10.4247 21.4841 10.3582 20.748 10.7701 20.2533L15.9921 13.9871L10.9579 7.73146C10.5542 7.2298 10.6336 6.4948 11.1352 6.09113C11.6381 5.68746 12.3719 5.7668 12.7767 6.26846L18.4094 13.2685C18.7571 13.7013 18.7524 14.3196 18.3966 14.7466L12.5632 21.7466C12.3322 22.0231 12.0009 22.1666 11.6661 22.1666Z" fill="white"/>
<path d="M11.6661 22.1666C11.4024 22.1666 11.1376 22.078 10.9194 21.896C10.4247 21.4841 10.3582 20.748 10.7701 20.2533L15.9921 13.9871L10.9579 7.73146C10.5542 7.2298 10.6336 6.4948 11.1352 6.09113C11.6381 5.68746 12.3719 5.7668 12.7767 6.26846L18.4094 13.2685C18.7571 13.7013 18.7524 14.3196 18.3966 14.7466L12.5632 21.7466C12.3322 22.0231 12.0009 22.1666 11.6661 22.1666" stroke="white" stroke-width="0.5"/>
</g>
</mask>
<g mask="url(#mask0)">
<g id="&#240;&#159;&#142;&#168; Color">
<rect id="Base" width="28" height="28" fill="#FFFFFF"/>
</g>
</g>
</g>
</svg>
