<svg width="44" height="38" viewBox="0 0 44 38" fill="none" xmlns="http://www.w3.org/2000/svg">
<path fill-rule="evenodd" clip-rule="evenodd" d="M42.1743 15.5126C42.1592 15.5457 42.1441 15.5788 42.13 15.6125C42.1157 15.6474 42.1044 15.6838 42.0932 15.7201C42.075 15.7792 42.0568 15.838 42.0258 15.8896C41.9642 15.9917 41.8837 16.0774 41.8029 16.1635C41.7799 16.188 41.7568 16.2125 41.7341 16.2375C41.7089 16.2636 41.6866 16.2922 41.6643 16.3208C41.6332 16.3607 41.6022 16.4006 41.5633 16.4333C41.4466 16.5286 41.3118 16.5949 41.1774 16.6609C41.1679 16.6656 41.1583 16.6703 41.1487 16.675C41.1203 16.6888 41.0933 16.7061 41.0663 16.7235C41.0279 16.7481 40.9894 16.7728 40.9466 16.7875C40.7216 16.8708 40.4821 16.9167 40.2341 16.9167C40.1216 16.9167 40.005 16.9083 39.8904 16.8875L31.0362 15.4188C29.9008 15.2313 29.1341 14.1583 29.3216 13.0229C29.5091 11.8896 30.58 11.1125 31.7175 11.3104L35.1425 11.8771C32.5487 7.32292 27.5966 4.41667 22.1466 4.41667C15.9821 4.41667 10.5508 7.99583 8.30706 13.5313C7.97997 14.3438 7.19873 14.8333 6.37581 14.8333C6.11539 14.8333 5.85081 14.7854 5.59456 14.6813C4.52789 14.25 4.01331 13.0354 4.44664 11.9688C7.32998 4.85 14.2779 0.25 22.1466 0.25C29.255 0.25 35.7154 4.14583 38.9758 10.225L39.7446 6.11458C39.9571 4.98542 41.0487 4.2375 42.1758 4.45417C43.3071 4.66458 44.0529 5.75417 43.8404 6.88542L42.28 15.2188C42.26 15.325 42.2172 15.4188 42.1743 15.5126ZM35.6946 24.4692C36.1258 23.4005 37.3425 22.888 38.4071 23.3192C39.4737 23.7505 39.9883 24.9651 39.555 26.0317C36.6717 33.1505 29.7237 37.7505 21.855 37.7505C14.7467 37.7505 8.28624 33.8546 5.02582 27.7755L4.25499 31.8838C4.06957 32.8859 3.19457 33.5838 2.20916 33.5838C2.08207 33.5838 1.95291 33.5713 1.82374 33.5463C0.692488 33.3359 -0.0512617 32.2463 0.161238 31.1151L1.72166 22.7817C1.73749 22.6999 1.77256 22.6273 1.80779 22.5543C1.82817 22.5121 1.84861 22.4698 1.86541 22.4255C1.88188 22.384 1.89626 22.341 1.91068 22.298C1.94184 22.2049 1.97312 22.1115 2.02582 22.0317C2.05657 21.9843 2.09677 21.9464 2.13722 21.9082C2.16255 21.8843 2.18797 21.8603 2.21124 21.8338C2.22959 21.8126 2.24773 21.7912 2.26585 21.7698C2.365 21.6529 2.46326 21.5371 2.58832 21.4526C2.6006 21.4436 2.61528 21.4383 2.62978 21.433C2.64234 21.4284 2.65477 21.4239 2.66541 21.4171C2.86749 21.2859 3.08416 21.1838 3.32374 21.1317C3.33833 21.1284 3.35353 21.1292 3.36868 21.1301C3.38165 21.1308 3.39458 21.1316 3.40707 21.1296C3.63624 21.0921 3.86749 21.0692 4.11124 21.1109L12.9654 22.5817C14.1008 22.7671 14.8675 23.8421 14.68 24.9776C14.5112 25.9963 13.6279 26.7192 12.6258 26.7192C12.5133 26.7192 12.3987 26.7109 12.2842 26.6901L8.85916 26.1234C11.4529 30.6776 16.405 33.5838 21.855 33.5838C28.0196 33.5838 33.4508 30.0046 35.6946 24.4692Z" fill="white"/>
</svg>
