<svg width="721" height="445" viewBox="0 0 721 445" fill="none" xmlns="http://www.w3.org/2000/svg">
<path d="M177.365 250.32H207.98V293.553H177.365V352H123.742V293.553H12.9707L10.5586 259.783L123.186 81.8438H177.365V250.32ZM63.9961 250.32H123.742V154.949L120.217 161.072L63.9961 250.32ZM679.455 250.32H710.07V293.553H679.455V352H625.832V293.553H515.061L512.648 259.783L625.275 81.8438H679.455V250.32ZM566.086 250.32H625.832V154.949L622.307 161.072L566.086 250.32Z" fill="white"/>
<path d="M360 352C285.593 352 225 291.406 225 217C225 142.493 285.593 82 360 82C434.406 82 495 142.493 495 217C495 291.406 434.406 352 360 352ZM360 111.742C302.028 111.742 254.843 158.927 254.843 216.899C254.843 274.872 302.028 322.056 360 322.056C417.972 322.056 465.157 274.872 465.157 216.899C465.257 158.927 417.972 111.742 360 111.742Z" fill="white"/>
<path d="M359.998 306.328C310.696 306.328 270.67 266.201 270.67 217C270.67 167.698 310.797 127.672 359.998 127.672C409.199 127.672 449.326 167.698 449.326 217C449.326 266.301 409.3 306.328 359.998 306.328ZM359.998 157.414C327.13 157.414 300.413 184.132 300.413 217C300.413 249.868 327.13 276.585 359.998 276.585C392.866 276.585 419.584 249.868 419.584 217C419.584 184.132 392.866 157.414 359.998 157.414Z" fill="white"/>
<path d="M359.999 263.176C385.502 263.176 406.176 242.502 406.176 216.999C406.176 191.497 385.502 170.823 359.999 170.823C334.497 170.823 313.823 191.497 313.823 216.999C313.823 242.502 334.497 263.176 359.999 263.176Z" fill="white"/>
</svg>
