<svg width="38" height="38" viewBox="0 0 38 38" fill="none" xmlns="http://www.w3.org/2000/svg">
<path fill-rule="evenodd" clip-rule="evenodd" d="M8.58203 27.3333C8.58203 26.1875 9.51953 25.25 10.6654 25.25C11.8112 25.25 12.7487 26.1875 12.7487 27.3333C12.7487 28.4792 11.8112 29.4167 10.6654 29.4167C9.51953 29.4167 8.58203 28.4792 8.58203 27.3333ZM18.9974 25.25H27.3307C28.4766 25.25 29.4141 26.1875 29.4141 27.3333C29.4141 28.4792 28.4766 29.4167 27.3307 29.4167H18.9974C17.8516 29.4167 16.9141 28.4792 16.9141 27.3333C16.9141 26.1875 17.8516 25.25 18.9974 25.25ZM31.5013 33.5834H6.5013C5.35339 33.5834 4.41797 32.65 4.41797 31.5V21.0834H33.5846V31.5C33.5846 32.65 32.6492 33.5834 31.5013 33.5834ZM11.3781 5.56871C11.7323 4.85829 12.4469 4.41663 13.2406 4.41663H24.7573C25.551 4.41663 26.2656 4.85829 26.6198 5.56871L32.2948 16.9166H5.70312L11.3781 5.56871ZM37.3104 17.6292L30.3479 3.70417C29.2833 1.575 27.1417 0.25 24.7583 0.25H13.2417C10.8583 0.25 8.71667 1.575 7.65208 3.70417L0.689583 17.6292C0.402083 18.2042 0.25 18.85 0.25 19.4917V31.5C0.25 34.9458 3.05417 37.75 6.5 37.75H31.5C34.9458 37.75 37.75 34.9458 37.75 31.5V19.4917C37.75 18.85 37.5979 18.2042 37.3104 17.6292Z" fill="white"/>
</svg>
