<svg width="284" height="264" viewBox="0 0 284 264" fill="none" xmlns="http://www.w3.org/2000/svg">
<path d="M124.647 0V52.8282C108.073 53.7489 95.5281 56.8565 87.0111 62.1508C78.4942 67.215 72.5093 75.6168 69.0565 87.3564C65.6036 98.8658 63.8772 115.439 63.8772 137.077H124.647V263.105H0V143.292C0 93.8017 10.4736 57.547 31.4207 34.5282C52.598 11.5094 83.6734 0 124.647 0ZM283.47 0V52.8282C266.897 53.7489 254.351 56.7414 245.834 61.8055C237.318 66.6395 231.102 75.0414 227.189 87.0111C223.506 98.7507 221.665 115.439 221.665 137.077H283.47V263.105H158.133V143.292C158.133 93.8017 168.606 57.547 189.553 34.5282C210.501 11.5094 241.806 0 283.47 0Z" fill="#F5F5F5"/>
</svg>
