<svg width="50" height="50" viewBox="0 0 50 50" fill="none" xmlns="http://www.w3.org/2000/svg">
<path d="M31.224 20.5785V20.7785H31.424H37.8652C38.934 20.7785 39.8005 21.6449 39.8005 22.7137V31.2902C39.8005 32.359 38.934 33.2254 37.8652 33.2254H31.424H31.224V33.4254V39.8667C31.224 40.9355 30.3575 41.802 29.2887 41.802H20.7122C19.6435 41.802 18.777 40.9355 18.777 39.8667V33.4254V33.2254H18.577H12.1357C11.067 33.2254 10.2005 32.359 10.2005 31.2902V22.7137C10.2005 21.6449 11.067 20.7785 12.1357 20.7785H18.577H18.777V20.5785V14.1372C18.777 13.0684 19.6435 12.202 20.7122 12.202H29.2887C30.3575 12.202 31.224 13.0684 31.224 14.1372V20.5785ZM35.73 29.355H35.93V29.155V24.8489V24.6489H35.73H29.2887C28.22 24.6489 27.3535 23.7825 27.3535 22.7137V16.2724V16.0724H27.1535H22.8475H22.6475V16.2724V22.7137C22.6475 23.7825 21.781 24.6489 20.7122 24.6489H14.2709H14.0709V24.8489V29.155V29.355H14.2709H20.7122C21.781 29.355 22.6475 30.2215 22.6475 31.2902V37.7315V37.9315H22.8475H27.1535H27.3535V37.7315V31.2902C27.3535 30.2215 28.22 29.355 29.2887 29.355H35.73Z" fill="#203C88" stroke="#FCFCFC" stroke-width="0.4"/>
</svg>
