<svg width="50" height="50" viewBox="0 0 50 50" fill="none" xmlns="http://www.w3.org/2000/svg">
<path d="M41.7239 44.644C39.9666 39.4963 38.6819 32.7996 38.2613 26.5295L38.188 25.4361H27.5503C27.4052 24.0935 27.294 22.8218 27.2155 21.652L27.1421 20.5586H12.7068L12.6334 21.652C12.2112 27.947 10.8473 37.1831 8.27828 44.644H5V46.9877H45V44.644H41.7239ZM36.0042 27.7798C36.4822 33.6168 37.6628 39.7291 39.2538 44.644H31.5706C29.7494 39.3549 28.5337 33.1733 27.8299 27.7798H36.0042ZM14.8915 22.9023H24.9574C25.4501 29.0721 26.7616 37.5362 29.0987 44.644H10.7502C13.0874 37.5358 14.399 29.072 14.8915 22.9023Z" fill="#203C88" stroke="#203C88"/>
<path d="M19.8927 17.547L20.6827 17.6943C20.7205 17.7013 21.6233 17.867 22.8346 17.867C24.5465 17.867 26.9203 17.5338 28.5075 15.9466C31.1793 13.2748 30.2942 8.33094 30.2552 8.12172L30.1079 7.33172L29.3179 7.18445C29.2801 7.17742 28.3774 7.01172 27.1661 7.01172C25.4542 7.01172 23.0804 7.34492 21.4932 8.93219C18.8214 11.6039 19.7065 16.5478 19.7454 16.757L19.8927 17.547ZM23.1504 10.5895C24.1704 9.56953 25.8971 9.35547 27.1661 9.35547C27.4959 9.35547 27.7978 9.37031 28.0535 9.39016C28.1607 10.8028 28.0516 13.0879 26.8502 14.2892C25.8303 15.3091 24.1036 15.5232 22.8346 15.5232C22.5076 15.5232 22.2079 15.5085 21.9536 15.489C21.8586 14.2296 21.8775 11.8623 23.1504 10.5895Z" fill="#203C88" stroke="#203C88"/>
</svg>
