<svg width="50" height="50" viewBox="0 0 50 50" fill="none" xmlns="http://www.w3.org/2000/svg">
<path d="M21.0299 45.6007C19.2813 45.6007 17.5329 44.951 16.1993 43.6506C15.5685 43.0354 15.0677 42.319 14.7109 41.5214C13.7879 39.4575 12.143 37.8125 10.0791 36.8895C9.28143 36.5328 8.5651 36.032 7.94991 35.4011C5.34306 32.7276 5.35107 28.3851 7.9678 25.7208C9.03239 24.6369 10.3872 23.9464 11.8857 23.724C12.7382 23.5975 13.4962 23.2173 14.0778 22.6247L14.1229 22.5792C15.7447 20.9573 18.058 20.2474 20.6363 20.5802C23.1074 20.8992 25.5434 22.15 27.4956 24.1022C29.4478 26.0544 30.6986 28.4904 31.0176 30.9615C31.3504 33.5399 30.6405 35.8531 29.0186 37.475L28.9777 37.5156C28.3834 38.0999 28.0029 38.8587 27.877 39.7107C27.6553 41.2102 26.965 42.5659 25.8809 43.6313C24.5454 44.9439 22.7875 45.6007 21.0299 45.6007ZM19.4324 22.7203C17.986 22.7203 16.6641 23.1864 15.6971 24.1534L15.6672 24.1836C14.7429 25.1255 13.5484 25.728 12.2124 25.9262C11.197 26.077 10.2784 26.5454 9.556 27.2808C7.78102 29.088 7.77553 32.0336 9.54376 33.8469C9.96199 34.2758 10.4479 34.6158 10.9879 34.8573C13.5523 36.0042 15.5962 38.0481 16.7431 40.6125C16.9847 41.1526 17.3246 41.6385 17.7535 42.0567C19.5673 43.8255 22.5133 43.8195 24.3205 42.0436C25.0562 41.3206 25.5245 40.4014 25.6747 39.3853C25.8721 38.05 26.4743 36.8547 27.4165 35.9287L27.4445 35.9009C28.5673 34.7781 29.0521 33.1252 28.8096 31.2467C28.5532 29.2609 27.5275 27.2827 25.9213 25.6765C23.9881 23.7432 21.5742 22.7203 19.4324 22.7203Z" fill="#203C88" stroke="#203C88" stroke-width="0.6"/>
<path d="M28.4419 19.2802C27.1579 19.2802 26.0081 18.8272 25.1543 17.9734C24.1579 16.977 23.7074 15.5771 23.8859 14.0315C24.0532 12.5821 24.7644 11.1649 25.8885 10.0408C27.0126 8.91677 28.4298 8.20556 29.8791 8.03815C31.4248 7.8599 32.8246 8.31027 33.8211 9.30659C34.8175 10.3031 35.268 11.703 35.0896 13.2486C34.9223 14.698 34.211 16.1152 33.0869 17.2392C31.9629 18.3633 30.5456 19.0745 29.0963 19.2419C28.8749 19.2675 28.6565 19.2802 28.4419 19.2802ZM30.5235 10.2268C30.3967 10.2268 30.2669 10.2344 30.1345 10.2497C29.182 10.3597 28.2331 10.8445 27.4627 11.6149C26.6923 12.3853 26.2074 13.3342 26.0974 14.2868C25.9985 15.1431 26.2227 15.8933 26.7285 16.3992C27.2344 16.9051 27.9848 17.1291 28.8409 17.0303C29.7934 16.9203 30.7423 16.4355 31.5128 15.665C32.2832 14.8946 32.7681 13.9458 32.878 12.9932C32.9769 12.1369 32.7527 11.3867 32.2468 10.8808C31.8192 10.4532 31.2169 10.2268 30.5235 10.2268Z" fill="#203C88" stroke="#203C88" stroke-width="0.6"/>
<path d="M13.4986 19.8465C12.2146 19.8465 11.0648 19.3936 10.211 18.5399C9.21456 17.5434 8.76405 16.1436 8.94252 14.5979C9.10986 13.1486 9.82107 11.7314 10.9452 10.6073C12.0692 9.48322 13.4865 8.77201 14.9358 8.6046C16.4816 8.4262 17.8813 8.87672 18.8777 9.87304C19.8742 10.8695 20.3247 12.2694 20.1462 13.8151C19.9789 15.2644 19.2677 16.6816 18.1436 17.8057C17.0196 18.9298 15.6023 19.641 14.1529 19.8083C13.9317 19.8339 13.7132 19.8465 13.4986 19.8465ZM15.5802 10.7933C15.4534 10.7933 15.3236 10.8009 15.1912 10.8162C14.2387 10.9261 13.2898 11.411 12.5194 12.1814C11.7489 12.9519 11.2641 13.9008 11.1541 14.8533C11.0552 15.7097 11.2793 16.4598 11.7852 16.9657C12.291 17.4715 13.041 17.6958 13.8976 17.5968C14.8502 17.4868 15.7991 17.0019 16.5695 16.2315C17.3399 15.4611 17.8248 14.5122 17.9347 13.5597C18.0336 12.7033 17.8094 11.9532 17.3036 11.4473C16.876 11.0196 16.2736 10.7933 15.5802 10.7933Z" fill="#203C88" stroke="#203C88" stroke-width="0.6"/>
<path d="M37.2886 28.1259C36.0047 28.1259 34.8548 27.6729 34.0011 26.8192C33.0046 25.8228 32.5541 24.4229 32.7326 22.8773C32.8999 21.4279 33.6111 20.0107 34.7352 18.8866C35.8592 17.7626 37.2766 17.0514 38.7259 16.884C40.2714 16.7052 41.6714 17.1561 42.6679 18.1525C43.6643 19.1488 44.1148 20.5488 43.9364 22.0944C43.769 23.5437 43.0578 24.961 41.9338 26.0851C40.8097 27.2091 39.3924 27.9203 37.9431 28.0877C37.7217 28.1132 37.5033 28.1259 37.2886 28.1259ZM39.3703 19.0726C39.2434 19.0726 39.1137 19.0802 38.9813 19.0955C38.0287 19.2055 37.0798 19.6903 36.3094 20.4608C35.539 21.2312 35.0541 22.18 34.9441 23.1326C34.8453 23.9889 35.0694 24.7391 35.5753 25.245C36.0811 25.7508 36.8315 25.9752 37.6877 25.876C38.6402 25.7661 39.5891 25.2812 40.3595 24.5108C41.13 23.7404 41.6148 22.7915 41.7247 21.839C41.8237 20.9826 41.5995 20.2324 41.0937 19.7266C40.666 19.2989 40.0637 19.0726 39.3703 19.0726Z" fill="#203C88" stroke="#203C88" stroke-width="0.6"/>
<path d="M36.5401 42.8876C35.2562 42.8876 34.1063 42.4346 33.2525 41.5809C32.2561 40.5845 31.8056 39.1846 31.984 37.639C32.1514 36.1896 32.8626 34.7724 33.9867 33.6483C35.1107 32.5243 36.528 31.8131 37.9774 31.6457C39.5228 31.467 40.9228 31.9178 41.9193 32.9142C42.9158 33.9105 43.3663 35.3105 43.1878 36.8561C43.0205 38.3054 42.3093 39.7227 41.1852 40.8468C40.0611 41.9708 38.6438 42.682 37.1945 42.8494C36.9732 42.875 36.7547 42.8876 36.5401 42.8876ZM38.6217 33.8344C38.4949 33.8344 38.3651 33.842 38.2327 33.8573C37.2802 33.9672 36.3313 34.4521 35.5609 35.2225C34.7904 35.993 34.3055 36.9418 34.1956 37.8943C34.0967 38.7507 34.3208 39.5009 34.8267 40.0067C35.3325 40.5126 36.083 40.7368 36.9391 40.6378C37.8917 40.5278 38.8406 40.043 39.611 39.2726C40.3814 38.5022 40.8663 37.5533 40.9762 36.6007C41.0751 35.7444 40.8509 34.9942 40.3451 34.4883C39.9175 34.0607 39.3152 33.8344 38.6217 33.8344Z" fill="#203C88" stroke="#203C88" stroke-width="0.6"/>
</svg>
