<svg width="50" height="50" viewBox="0 0 50 50" fill="none" xmlns="http://www.w3.org/2000/svg">
<path d="M42.6306 15.8258C42.6229 16.522 42.5254 17.1978 42.3496 17.8424L32.0584 7.67586C32.7324 7.48424 33.4418 7.37753 34.1742 7.3694L34.148 5C28.4245 5.0635 23.7845 9.76194 23.8046 15.4708L23.8138 23.8137L15.4736 23.8046C15.461 23.8045 15.4493 23.8045 15.4367 23.8045C9.74203 23.8045 5.06327 28.4371 5 34.1479L7.3694 34.1741C7.37714 33.477 7.4739 32.8007 7.64845 32.1558L17.9396 42.3221C17.2658 42.5149 16.5572 42.6225 15.8257 42.6305L15.852 44.9999C21.5486 44.9367 26.1887 40.2408 26.1956 34.5292L26.186 26.1861L34.532 26.1955C40.2407 26.1887 44.9366 21.5487 44.9999 15.8521L42.6306 15.8258ZM26.1834 23.8164L26.1782 19.1303L30.9274 23.8218L26.1834 23.8164ZM15.4396 26.174C15.449 26.174 15.4587 26.1741 15.4681 26.1741L15.6974 26.1743L23.8256 34.2041L23.826 34.5292C23.8249 35.5149 23.6449 36.4613 23.3177 37.3379L12.5591 26.7097C13.455 26.364 14.4264 26.174 15.4396 26.174ZM20.2291 41.2529L8.68466 29.8487C9.16039 29.1211 9.75001 28.4747 10.4272 27.9344L22.1193 39.4846C21.5874 40.1695 20.9486 40.7673 20.2291 41.2529ZM23.8219 30.8695L19.0729 26.1781L23.8165 26.1834L23.8219 30.8695ZM34.303 23.8257L26.1746 15.7959L26.1742 15.4653C26.1707 14.4784 26.3478 13.5308 26.6736 12.6534L37.4327 23.2821C36.5306 23.6319 35.5522 23.8247 34.532 23.826L34.303 23.8257ZM39.564 22.0567L27.8713 10.5058C28.4033 9.82205 29.0433 9.22531 29.7646 8.74074L41.3092 20.1453C40.8323 20.8711 40.2419 21.5166 39.564 22.0567Z" fill="#203C88"/>
</svg>
