<svg width="50" height="50" viewBox="0 0 50 50" fill="none" xmlns="http://www.w3.org/2000/svg">
<path d="M39.133 13.0267C38.8314 13.0267 38.5314 12.92 38.2914 12.7C34.613 9.34667 29.893 7.5 24.9997 7.5C20.1064 7.5 15.3864 9.34667 11.708 12.7017C11.1964 13.1667 10.4064 13.1283 9.94137 12.62C9.47637 12.11 9.51304 11.3183 10.023 10.8533C14.1647 7.07833 19.483 5 24.9997 5C30.5164 5 35.8347 7.07833 39.9764 10.8533C40.4864 11.3183 40.523 12.1083 40.058 12.62C39.8114 12.89 39.473 13.0267 39.133 13.0267Z" fill="#203C88"/>
<path d="M41.2501 21.194C40.8484 21.194 40.4518 21.0006 40.2118 20.6406C36.7418 15.474 31.0551 12.389 25.0001 12.389C18.9451 12.389 13.2584 15.474 9.78844 20.6406C9.40344 21.2156 8.62511 21.3673 8.05344 20.9823C7.48011 20.5973 7.32677 19.8206 7.71177 19.2473C11.6468 13.389 18.1101 9.89062 25.0001 9.89062C31.8901 9.89062 38.3534 13.389 42.2884 19.249C42.6734 19.8223 42.5218 20.599 41.9468 20.984C41.7334 21.1256 41.4918 21.194 41.2501 21.194Z" fill="#203C88"/>
<path d="M21.0515 45.0005C20.7299 45.0005 20.4082 44.8772 20.1632 44.6305C19.8899 44.3555 13.4849 37.8172 13.4849 31.5222C13.4849 24.9888 18.6499 19.6738 24.9999 19.6738C31.3499 19.6738 36.5149 24.9888 36.5149 31.5222C36.5149 32.2122 35.9549 32.7722 35.2649 32.7722C34.5749 32.7722 34.0149 32.2122 34.0149 31.5222C34.0149 26.3672 29.9715 22.1738 24.9999 22.1738C20.0282 22.1738 15.9849 26.3672 15.9849 31.5222C15.9849 36.8005 21.8799 42.8105 21.9399 42.8705C22.4265 43.3605 22.4232 44.1522 21.9315 44.6388C21.6882 44.8805 21.3699 45.0005 21.0515 45.0005Z" fill="#203C88"/>
<path d="M28.9485 44.9999C25.9419 44.9999 18.9719 39.2799 18.2969 32.9099C18.0585 30.6583 18.7752 28.3549 20.2119 26.7483C21.4619 25.3516 23.1502 24.5766 24.9652 24.5666H25.0002C26.7702 24.5666 28.4435 25.2616 29.7169 26.5266C31.0469 27.8483 31.7785 29.6233 31.7785 31.5233V32.3383C31.7785 34.3466 33.3419 35.9799 35.2652 35.9799C37.1885 35.9799 38.7535 34.3466 38.7535 32.3383V32.0533C38.7535 24.2699 33.1152 17.7949 25.9169 17.3149C22.1652 17.0599 18.5635 18.3566 15.7852 20.9533C12.9019 23.6499 11.2485 27.5033 11.2485 31.5233C11.2485 34.8299 12.3685 38.0516 14.4019 40.5949C14.8319 41.1349 14.7452 41.9199 14.2052 42.3516C13.6669 42.7833 12.8802 42.6966 12.4485 42.1549C10.0635 39.1699 8.74854 35.3933 8.74854 31.5216C8.74854 26.8116 10.6919 22.2933 14.0769 19.1266C17.3652 16.0499 21.6302 14.5183 26.0819 14.8183C34.5885 15.3866 41.2535 22.9566 41.2535 32.0516V32.3366C41.2535 35.7233 38.5669 38.4783 35.2652 38.4783C31.9635 38.4783 29.2785 35.7233 29.2785 32.3366V31.5216C29.2785 30.2916 28.8085 29.1483 27.9552 28.2983C27.1552 27.5016 26.1069 27.0649 25.0019 27.0649C24.9935 27.0649 24.9869 27.0649 24.9785 27.0649C23.5702 27.0716 22.6219 27.8033 22.0752 28.4149C21.1002 29.5033 20.6169 31.0866 20.7819 32.6466C21.3335 37.8433 27.3052 42.5016 28.9485 42.5016C29.6385 42.5016 30.1985 43.0616 30.1985 43.7516C30.1985 44.4416 29.6385 44.9999 28.9485 44.9999Z" fill="#203C88"/>
<path d="M33.5868 42.5554C29.1135 42.5554 23.6519 37.0887 23.6519 30.707C23.6519 30.017 24.2119 29.457 24.9019 29.457C25.5919 29.457 26.1519 30.017 26.1519 30.707C26.1519 35.6537 30.3102 40.0554 33.5868 40.0554C34.2768 40.0554 34.8368 40.6154 34.8368 41.3054C34.8368 41.9954 34.2768 42.5554 33.5868 42.5554Z" fill="#203C88"/>
</svg>
