<svg width="40" height="40" viewBox="0 0 40 40" fill="none" xmlns="http://www.w3.org/2000/svg">
<path d="M31.7331 19.2588C33.8026 18.9543 35.6803 18.0095 37.1633 16.5266C38.5751 15.1149 39.5043 13.3327 39.8504 11.3727C40.1885 9.45837 39.9508 7.51126 39.1629 5.74188C38.8287 4.99142 37.844 4.80938 37.2637 5.38993L32.4631 10.1904C32.2649 10.3885 31.9426 10.3885 31.7444 10.1904L29.8086 8.25485C29.6109 8.05704 29.6109 7.73517 29.8086 7.53735L34.6099 2.73626C35.1909 2.15532 35.0079 1.1711 34.2579 0.837196C32.4885 0.0492275 30.5413 -0.188585 28.6269 0.14954C26.6669 0.495634 24.8847 1.42485 23.4729 2.83665C21.9899 4.31954 21.0451 6.1972 20.7406 8.26657C20.4893 9.97438 20.6898 11.6831 21.3201 13.2616L17.8047 16.1492L9.95443 8.29931L11.3355 6.91829C11.8304 6.42345 11.7837 5.6061 11.2345 5.1711L5.92107 0.962665C5.45474 0.593368 4.78552 0.631962 4.36481 1.05266L1.05028 4.36704C0.62958 4.78766 0.59083 5.45681 0.960283 5.92321L5.16888 11.2364C5.60388 11.7856 6.42068 11.8329 6.91614 11.3374L8.29716 9.95642L15.985 17.6439L1.55442 29.4975C-0.366748 31.017 -0.53253 33.8759 1.19911 35.6074L4.3913 38.7995C6.12271 40.5308 8.98146 40.3656 10.5015 38.4441L22.3554 24.0142L23.5462 25.2049L21.8334 26.9177C21.3932 27.3578 21.374 28.0653 21.7897 28.5287L30.7197 38.4845C32.4761 40.4337 35.5056 40.5148 37.3627 38.6576L38.6564 37.3639C40.5174 35.5031 40.4292 32.4515 38.4622 30.7015C38.4614 30.7008 38.4606 30.7001 38.4599 30.6994L28.4581 21.8494C27.9943 21.439 27.291 21.4603 26.8529 21.8984L25.2034 23.5477L23.8501 22.1945L26.7379 18.6793C28.3165 19.3095 30.0252 19.51 31.7331 19.2588ZM6.18919 8.74993L3.44552 5.28618L5.28396 3.44782L8.74786 6.19134L6.18919 8.74993ZM27.7306 24.3351L36.9052 32.4531C37.3698 32.8668 37.6357 33.437 37.6539 34.0589C37.672 34.6813 37.4396 35.2664 36.9993 35.7067L35.7056 37.0004C35.2672 37.4387 34.6846 37.6717 34.0654 37.6551C33.4459 37.6389 32.8762 37.3764 32.4629 36.9177L24.2755 27.79L27.7306 24.3351ZM25.4987 16.4956L21.3621 21.5311C21.3615 21.5317 21.361 21.5324 21.3604 21.5331L8.68302 36.9656C8.67763 36.9721 8.67224 36.9788 8.66693 36.9856C8.01732 37.8127 6.79403 37.8877 6.04857 37.1423L2.85638 33.9502C2.11263 33.2065 2.18403 31.9831 3.01317 31.332C3.01989 31.3267 3.02653 31.3213 3.03317 31.3159L18.4664 18.6387C18.4668 18.6383 18.4672 18.638 18.4677 18.6376L23.5038 14.5008C23.9314 14.1496 24.055 13.5472 23.8004 13.056C22.3234 10.207 22.8578 6.7661 25.1301 4.49384C26.5294 3.09454 28.4239 2.35095 30.3396 2.35095C30.7523 2.35095 31.1661 2.38548 31.5761 2.4554L28.1513 5.88009C27.0398 6.99165 27.0398 8.80032 28.1514 9.91196L30.0871 11.8475C31.1989 12.9594 33.0083 12.9595 34.1203 11.8475L37.5444 8.42352C37.9389 10.7362 37.2068 13.1686 35.506 14.8694C33.2336 17.1416 29.7926 17.6759 26.9435 16.1991C26.4524 15.9444 25.8499 16.068 25.4987 16.4956Z" fill="#5FBA46"/>
</svg>
