<svg width="40" height="38" viewBox="0 0 40 38" fill="none" xmlns="http://www.w3.org/2000/svg">
<path d="M25.6739 18.5354C25.4038 17.4899 24.8511 16.5574 24.1032 15.8228L30.8383 4.15742L29.5664 3.42588C26.7059 1.78076 23.4495 0.894922 20.1494 0.864062C20.0902 0.863477 20.0312 0.863281 19.9722 0.863281C16.6301 0.863281 13.3342 1.74717 10.4296 3.42422L9.16103 4.15664L15.8966 15.8229C15.1487 16.5575 14.5959 17.4901 14.3259 18.5355H0.860352L0.862793 20.0028C0.868359 23.3026 1.7293 26.5656 3.35254 29.4391C5.02646 32.4019 7.47353 34.87 10.4296 36.5767L11.6981 37.3091L18.4323 25.6452C18.9316 25.7841 19.4569 25.8599 19.9999 25.8599C20.5429 25.8599 21.0682 25.7841 21.5675 25.6452L28.3012 37.3082L29.5706 36.5724C32.4255 34.9177 34.8209 32.5405 36.4978 29.698C38.2267 26.767 39.1405 23.4136 39.1405 20.0003V18.5354H25.6739ZM13.1966 5.28691C17.4924 3.30615 22.4883 3.30801 26.8006 5.2916L21.5675 14.3555C21.0682 14.2166 20.5429 14.1408 19.9999 14.1408C19.4569 14.1408 18.9316 14.2166 18.4323 14.3555L13.1966 5.28691ZM10.6595 33.2488C6.79609 30.5188 4.29971 26.1913 3.86152 21.4651H14.3259C14.596 22.5106 15.1487 23.4432 15.8966 24.1778L10.6595 33.2488ZM17.0701 20.0003C17.0701 18.3849 18.3844 17.0705 19.9999 17.0705C21.6154 17.0705 22.9297 18.3848 22.9297 20.0003C22.9297 21.6158 21.6154 22.9301 19.9999 22.9301C18.3844 22.9301 17.0701 21.6157 17.0701 20.0003ZM29.3377 33.2441L24.1032 24.1779C24.8511 23.4433 25.4039 22.5106 25.6739 21.4652H36.1437C35.7112 26.1758 33.2115 30.5015 29.3377 33.2441Z" fill="#5FBA46"/>
</svg>
