<svg width="42" height="42" viewBox="0 0 42 42" fill="none" xmlns="http://www.w3.org/2000/svg">
<path fill-rule="evenodd" clip-rule="evenodd" d="M26.6352 13.488L18.7519 23.8401L15.3498 19.4942C14.6415 18.5859 13.329 18.4276 12.4248 19.138C11.5185 19.8463 11.3581 21.1567 12.0685 22.0609L17.1331 28.5338C17.529 29.038 18.1331 29.3317 18.7748 29.3317H18.7894C19.4331 29.3297 20.0415 29.0255 20.431 28.5109L29.9498 16.0109C30.6477 15.0942 30.4706 13.7901 29.554 13.0922C28.6352 12.3942 27.331 12.5734 26.6352 13.488ZM21.0026 37.666C11.813 37.666 4.33594 30.1889 4.33594 20.9993C4.33594 11.8097 11.813 4.33264 21.0026 4.33264C30.1922 4.33264 37.6693 11.8097 37.6693 20.9993C37.6693 30.1889 30.1922 37.666 21.0026 37.666ZM21.0013 0.166016C9.49505 0.166016 0.167969 9.49518 0.167969 20.9994C0.167969 32.5035 9.49505 41.8327 21.0013 41.8327C32.5076 41.8327 41.8346 32.5035 41.8346 20.9994C41.8346 9.49518 32.5076 0.166016 21.0013 0.166016Z" fill="#5FBA46"/>
</svg>
