<svg width="50" height="50" viewBox="0 0 50 50" fill="none" xmlns="http://www.w3.org/2000/svg">
<path d="M39.5742 6.80583C38.6542 6.80583 37.9075 7.5525 37.9075 8.4725V9.86167C34.3275 6.74 29.7617 5 24.8958 5C13.925 5 5 13.9575 5 24.9667C5 25.8867 5.74667 26.6333 6.66667 26.6333C7.58667 26.6333 8.33333 25.8867 8.33333 24.9667C8.33333 15.795 15.7633 8.33333 24.8958 8.33333C28.9017 8.33333 32.665 9.75167 35.6317 12.2992H34.1042C33.1842 12.2992 32.4375 13.0458 32.4375 13.9658C32.4375 14.8858 33.1842 15.6325 34.1042 15.6325H39.5742C40.4942 15.6325 41.2408 14.8858 41.2408 13.9658V8.4725C41.2408 7.5525 40.4942 6.80583 39.5742 6.80583Z" fill="#5FBA46" stroke="#5FBA46"/>
<path d="M43.3329 23.3672C42.4129 23.3672 41.6662 24.1139 41.6662 25.0339C41.6662 34.2055 34.2362 41.6672 25.1037 41.6672C21.1446 41.6672 17.4212 40.2839 14.4712 37.7922H16.0721C16.9921 37.7922 17.7387 37.0455 17.7387 36.1255C17.7387 35.2055 16.9921 34.4589 16.0721 34.4589H10.6012C10.5862 34.4589 10.5729 34.463 10.5587 34.463C10.4954 34.4647 10.4329 34.473 10.3696 34.4822C10.3229 34.4889 10.2762 34.493 10.2304 34.5039C10.1754 34.5164 10.1212 34.5364 10.0671 34.5547C10.0171 34.5722 9.96624 34.5872 9.9179 34.6089C9.87207 34.6297 9.82874 34.6564 9.78457 34.6814C9.73207 34.7114 9.6804 34.7405 9.63124 34.7755C9.61874 34.7847 9.60457 34.7897 9.59207 34.7997C9.56374 34.8214 9.54207 34.848 9.5154 34.8714C9.47124 34.9097 9.42707 34.948 9.38707 34.9914C9.34957 35.0314 9.31707 35.073 9.28457 35.1155C9.25207 35.158 9.2204 35.2005 9.19124 35.2455C9.16207 35.2922 9.13707 35.3405 9.1129 35.3889C9.08874 35.4364 9.06624 35.4847 9.04707 35.5347C9.0279 35.5864 9.0129 35.638 8.99874 35.6914C8.9854 35.7422 8.97124 35.793 8.9629 35.8455C8.9529 35.9047 8.94874 35.9639 8.94457 36.0239C8.94207 36.058 8.93457 36.0914 8.93457 36.1264V41.6197C8.93457 42.5397 9.68124 43.2864 10.6012 43.2864C11.5212 43.2864 12.2679 42.5397 12.2679 41.6197V40.2947C15.8204 43.3189 20.3179 45.0005 25.1037 45.0005C36.0746 45.0005 44.9996 36.043 44.9996 25.0339C44.9996 24.1139 44.2529 23.3672 43.3329 23.3672Z" fill="#5FBA46" stroke="#5FBA46"/>
</svg>
