<svg width="50" height="50" viewBox="0 0 50 50" fill="none" xmlns="http://www.w3.org/2000/svg">
<path d="M35.8358 16.4117C35.5716 15.9733 35.0976 15.7056 34.5856 15.7056H29.5457L31.7681 6.81414C31.8775 6.37813 31.7792 5.91586 31.5024 5.56156C31.226 5.20727 30.8017 5 30.352 5H19.0625C18.3549 5 17.7496 5.50703 17.6256 6.20344L13.9759 24.7035C13.8999 25.1288 14.0163 25.5658 14.2936 25.8972C14.5709 26.2281 14.9807 26.4198 15.4128 26.4198H20.0498L19.2105 43.4594C19.1725 44.1445 19.6168 44.7635 20.2781 44.947C20.4076 44.983 20.539 45 20.6684 45C21.1992 45 21.702 44.7095 21.9594 44.2219L35.8767 17.8467C36.1151 17.3946 36.1 16.8502 35.8358 16.4117ZM22.4961 36.947L23.0502 25.0407C23.0726 24.6398 22.9291 24.248 22.6531 23.9565C22.3777 23.6655 21.9942 23.5 21.5928 23.5H17.1563L20.2849 7.91961H28.482L26.2595 16.8111C26.1501 17.2471 26.2484 17.7094 26.5253 18.0637C26.8017 18.418 27.226 18.6252 27.6756 18.6252H32.1647L22.4961 36.947Z" fill="#5FBA46" stroke="#5FBA46" stroke-width="0.4"/>
</svg>
