<svg width="50" height="50" viewBox="0 0 50 50" fill="none" xmlns="http://www.w3.org/2000/svg">
<path d="M37.2797 30.3915L34.8895 33.5961L33.6318 32.3315C32.7454 31.4404 31.4038 32.7869 32.2912 33.6792L34.3218 35.7209C34.731 36.1325 35.4059 36.0808 35.7503 35.6189L38.7961 31.5355C39.5482 30.5273 38.0328 29.3823 37.2797 30.3915Z" fill="#5FBA46" stroke="#5FBA46"/>
<path d="M42.4896 26.788V14.3204C42.4896 10.5594 39.4299 7.5 35.6693 7.5H11.8204C8.05969 7.5 5 10.5594 5 14.3204V41.3074C5 42.3044 6.16608 42.8375 6.922 42.2076L14.1275 36.203H26.8527C28.1207 39.8523 31.5936 42.4792 35.6693 42.4792C40.8142 42.4792 45 38.2935 45 33.1485C45 30.6927 44.046 28.4558 42.4896 26.788ZM26.3654 33.8593H13.703C13.429 33.8593 13.1635 33.9554 12.9529 34.1309L7.34375 38.8052V14.3204C7.34375 11.8518 9.35181 9.84375 11.8204 9.84375H35.6693C38.1375 9.84375 40.1459 11.8518 40.1459 14.3204V24.9637C38.8162 24.2337 37.2903 23.8177 35.6693 23.8177C30.5243 23.8177 26.3385 28.0035 26.3385 33.1485C26.3385 33.3875 26.3477 33.6246 26.3654 33.8593ZM35.6693 40.1352C31.8167 40.1352 28.6823 37.001 28.6823 33.1485C28.6823 29.2957 31.8167 26.1612 35.6693 26.1612C39.5218 26.1612 42.6562 29.2957 42.6562 33.1485C42.6562 37.001 39.5218 40.1352 35.6693 40.1352Z" fill="#5FBA46" stroke="#5FBA46"/>
<path d="M12.4482 17.3438H35.0419C35.6892 17.3438 36.2138 16.8188 36.2138 16.1719C36.2138 15.5246 35.6892 15 35.0419 15H12.4482C11.8013 15 11.2764 15.5246 11.2764 16.1719C11.2764 16.8188 11.8013 17.3438 12.4482 17.3438Z" fill="#5FBA46" stroke="#5FBA46"/>
<path d="M23.5108 22H12.4482C11.8013 22 11.2764 22.5246 11.2764 23.1719C11.2764 23.8192 11.8013 24.3438 12.4482 24.3438H23.5108C24.1581 24.3438 24.6827 23.8192 24.6827 23.1719C24.6827 22.5246 24.1581 22 23.5108 22Z" fill="#5FBA46" stroke="#5FBA46"/>
</svg>
