<svg width="50" height="50" viewBox="0 0 50 50" fill="none" xmlns="http://www.w3.org/2000/svg">
<path d="M27.0312 31.5625H20.625C19.7621 31.5625 19.0625 32.2621 19.0625 33.125C19.0625 33.9879 19.7621 34.6875 20.625 34.6875H27.0312C27.8942 34.6875 28.5938 33.9879 28.5938 33.125C28.5938 32.2621 27.8942 31.5625 27.0312 31.5625Z" fill="#5FBA46"/>
<path d="M35.625 25.3125H20.625C19.7621 25.3125 19.0625 26.0121 19.0625 26.875C19.0625 27.7379 19.7621 28.4375 20.625 28.4375H35.625C36.4879 28.4375 37.1875 27.7379 37.1875 26.875C37.1875 26.0121 36.4879 25.3125 35.625 25.3125Z" fill="#5FBA46"/>
<path d="M40.3125 11.25H38.75V9.6875C38.75 7.10281 36.6472 5 34.0625 5H9.6875C7.10281 5 5 7.10281 5 9.6875V34.0625C5 36.6472 7.10281 38.75 9.6875 38.75H11.25V40.3125C11.25 42.8972 13.3528 45 15.9375 45H33.8928L45 33.8395V15.9375C45 13.3528 42.8972 11.25 40.3125 11.25ZM11.25 15.9375V35.625H9.6875C8.82594 35.625 8.125 34.9241 8.125 34.0625V9.6875C8.125 8.82594 8.82594 8.125 9.6875 8.125H34.0625C34.9241 8.125 35.625 8.82594 35.625 9.6875V11.25H15.9375C13.3528 11.25 11.25 13.3528 11.25 15.9375ZM34.8351 39.6232V36.3195C34.8351 35.4579 35.536 34.757 36.3976 34.757H39.678L34.8351 39.6232ZM41.875 31.632H36.3976C33.8129 31.632 31.7101 33.7348 31.7101 36.3195V41.875H15.9375C15.0759 41.875 14.375 41.1741 14.375 40.3125V15.9375C14.375 15.0759 15.0759 14.375 15.9375 14.375H40.3125C41.1741 14.375 41.875 15.0759 41.875 15.9375V31.632Z" fill="#5FBA46"/>
<path d="M35.625 19.0625H20.625C19.7621 19.0625 19.0625 19.7621 19.0625 20.625C19.0625 21.4879 19.7621 22.1875 20.625 22.1875H35.625C36.4879 22.1875 37.1875 21.4879 37.1875 20.625C37.1875 19.7621 36.4879 19.0625 35.625 19.0625Z" fill="#5FBA46"/>
</svg>
