<svg width="8" height="9" viewBox="0 0 8 9" fill="none" xmlns="http://www.w3.org/2000/svg">
<path fill-rule="evenodd" clip-rule="evenodd" d="M2.39959 0.899587C2.5754 0.723772 2.81386 0.625 3.0625 0.625H4.9375C5.18614 0.625 5.4246 0.723772 5.60041 0.899587C5.77623 1.0754 5.875 1.31386 5.875 1.5625V1.875L7.4375 1.875C7.61009 1.875 7.75 2.01491 7.75 2.1875C7.75 2.36009 7.61009 2.5 7.4375 2.5L7.125 2.5V8.125C7.125 8.29076 7.05915 8.44973 6.94194 8.56694C6.82473 8.68415 6.66576 8.75 6.5 8.75H1.5C1.33424 8.75 1.17527 8.68415 1.05806 8.56694C0.940848 8.44973 0.875 8.29076 0.875 8.125V2.5L0.5625 2.5C0.389911 2.5 0.25 2.36009 0.25 2.1875C0.25 2.01491 0.389911 1.875 0.5625 1.875L1.18644 1.875C1.18679 1.875 1.18715 1.875 1.1875 1.875C1.18785 1.875 1.18821 1.875 1.18856 1.875L2.125 1.875V1.5625C2.125 1.31386 2.22377 1.0754 2.39959 0.899587ZM1.5 2.5V8.125H6.5V2.5L1.5 2.5ZM5.25 1.875L2.75 1.875V1.5625C2.75 1.47962 2.78292 1.40013 2.84153 1.34153C2.90013 1.28292 2.97962 1.25 3.0625 1.25H4.9375C5.02038 1.25 5.09987 1.28292 5.15847 1.34153C5.21708 1.40013 5.25 1.47962 5.25 1.5625V1.875ZM3.0625 3.75C3.23509 3.75 3.375 3.88991 3.375 4.0625V6.5625C3.375 6.73509 3.23509 6.875 3.0625 6.875C2.88991 6.875 2.75 6.73509 2.75 6.5625V4.0625C2.75 3.88991 2.88991 3.75 3.0625 3.75ZM4.625 4.0625C4.625 3.88991 4.76491 3.75 4.9375 3.75C5.11009 3.75 5.25 3.88991 5.25 4.0625V6.5625C5.25 6.73509 5.11009 6.875 4.9375 6.875C4.76491 6.875 4.625 6.73509 4.625 6.5625V4.0625Z" fill="#231F20"/>
</svg>
