<svg width="50" height="50" viewBox="0 0 50 50" fill="none" xmlns="http://www.w3.org/2000/svg">
<path opacity="0.15" d="M24.9999 50C11.221 50 0 38.7789 0 25C0 11.2024 11.221 0 24.9999 0C38.7789 0 50 11.2024 50 25C50 38.7789 38.7789 50 24.9999 50ZM24.9999 5.50781C14.2644 5.50781 5.52651 14.2457 5.52651 24.9814C5.52651 35.717 14.2644 44.4548 24.9999 44.4548C35.7356 44.4548 44.4734 35.717 44.4734 24.9814C44.4921 14.2457 35.7356 5.50781 24.9999 5.50781Z" fill="#59C13F"/>
<path opacity="0.15" d="M24.9997 41.5422C15.8698 41.5422 8.45752 34.1113 8.45752 25C8.45752 15.87 15.8884 8.45776 24.9997 8.45776C34.111 8.45776 41.5419 15.87 41.5419 25C41.5419 34.1299 34.1296 41.5422 24.9997 41.5422ZM24.9997 13.9656C18.9131 13.9656 13.9653 18.9133 13.9653 25C13.9653 31.0866 18.9131 36.0344 24.9997 36.0344C31.0863 36.0344 36.034 31.0866 36.034 25C36.034 18.9133 31.0863 13.9656 24.9997 13.9656Z" fill="#59C13F"/>
<path d="M24.9999 33.5511C29.7225 33.5511 33.5511 29.7226 33.5511 24.9999C33.5511 20.2772 29.7225 16.4487 24.9999 16.4487C20.2772 16.4487 16.4487 20.2772 16.4487 24.9999C16.4487 29.7226 20.2772 33.5511 24.9999 33.5511Z" fill="#59C13F"/>
</svg>
