<svg width="87" height="21" viewBox="0 0 87 21" fill="none" xmlns="http://www.w3.org/2000/svg">
<path fill-rule="evenodd" clip-rule="evenodd" d="M46.7839 5.13709C46.9931 5.34799 48.8757 10.3726 49.0726 10.9929C49.2686 11.6575 49.5455 12.2951 49.897 12.8911C50.5491 13.04 50.6107 12.3824 50.8076 11.8614C51.878 9.04511 53.5023 4.93858 54.3144 2.17195C54.8804 0.832058 54.9297 0.472272 53.9084 0.472272C52.8871 0.472272 52.9978 1.14222 52.5917 2.01067C52.2349 3.66072 50.8568 7.14693 50.3522 8.74735C50.3522 8.95825 50.3522 8.95825 50.0939 8.95825C49.2448 6.57623 48.2604 3.66072 47.3006 1.3035C47.0423 0.844465 46.5869 0.745213 46.2794 1.77495C45.7625 3.41259 45.0488 5.3604 44.4951 6.94841C44.4951 6.94841 43.8307 8.95825 43.7815 9.0575C43.4295 8.48704 43.1719 7.86273 43.0186 7.20895C42.2557 5.31077 41.5912 3.26372 40.939 1.36554C40.7791 1.00575 40.7791 0.794838 40.4222 0.583929C40.0646 0.450291 39.6778 0.416012 39.3025 0.484678C38.2934 0.645961 38.9456 1.46479 39.1548 2.0727C40.3853 5.41002 41.7512 9.41734 43.117 12.5933C43.1489 12.672 43.201 12.7408 43.2677 12.7928C43.3344 12.8448 43.4136 12.8782 43.4972 12.8895C43.5808 12.9008 43.6659 12.8898 43.7439 12.8573C43.8218 12.825 43.89 12.7724 43.9414 12.705C44.1382 12.3204 46.6362 5.13709 46.7839 5.13709Z" fill="#231F20"/>
<path fill-rule="evenodd" clip-rule="evenodd" d="M0.223752 0.681735C0.172888 0.88841 0.190166 1.10617 0.272972 1.30205C0.482156 2.1705 -0.133089 12.0708 0.0268739 12.4678C0.524945 12.6936 1.08337 12.746 1.61421 12.6167C1.8603 12.3562 1.76186 12.1081 1.76186 11.6986C1.76186 9.94931 1.90952 8.26205 1.90952 6.46312C1.97105 5.79318 2.02027 5.33414 2.02027 4.92473C2.02027 4.51531 2.02027 4.56494 2.11871 4.46569C2.21715 4.36644 3.82909 7.1951 3.98906 7.50526C4.29668 8.11317 4.89962 9.04366 5.30568 9.76327C5.92093 10.8922 6.22854 10.123 6.3762 9.86248C6.73305 9.4034 9.48932 4.52772 9.68627 4.42847C9.87081 4.62697 9.87081 9.5027 9.87081 9.86248C9.87081 12.5299 9.56315 12.7904 11.2366 12.6788C11.7535 12.6788 11.8027 12.2693 11.7535 11.8102C11.7535 10.9418 11.7535 9.9617 11.7535 9.09328C11.6181 6.88494 11.5196 4.36644 11.5196 2.1705C11.5196 1.90997 11.6181 0.929864 11.6181 0.780987C11.4675 0.609833 11.2634 0.495641 11.0397 0.45729C10.8159 0.41894 10.5859 0.458729 10.3876 0.570078C10.0308 0.780987 9.93232 1.24003 9.67395 1.55018C8.64031 3.39874 7.24986 5.49543 6.27776 7.24473C5.92093 7.86504 5.92093 7.65414 5.6133 7.24473C4.94884 6.26462 4.0875 4.57735 3.48455 3.59725L2.25406 1.55018C2.08302 1.19445 1.86351 0.864552 1.6019 0.570078C1.25737 0.321949 0.580594 0.520453 0.223752 0.681735Z" fill="#231F20"/>
<path fill-rule="evenodd" clip-rule="evenodd" d="M65.1561 6.42682C65.5916 6.06854 66.1083 5.8244 66.66 5.71618C67.2117 5.60794 67.7815 5.63897 68.3185 5.8065C69.9427 6.52607 70.1519 8.94533 69.4382 10.124C69.1343 10.5832 68.6964 10.9362 68.1851 11.134C67.6738 11.3318 67.1142 11.3646 66.5835 11.2281C66.0694 11.1259 65.5828 10.9144 65.1561 10.6078V6.42682ZM65.1561 4.67752C65.0794 3.32632 65.0794 1.97181 65.1561 0.62062C65.1561 0.0623322 64.9592 -0.0369187 64.4424 0.161583C63.2119 0.682653 63.212 0.471744 63.3842 1.60073C63.4827 2.17142 63.3842 8.78404 63.3842 9.71453C63.3842 11.5507 63.1258 11.9725 65.7714 12.7417C66.5247 12.901 67.3022 12.9051 68.057 12.7536C68.8119 12.6023 69.5287 12.2986 70.1642 11.8608C72.7605 9.71453 72.0469 3.66019 67.3095 4.11923C66.8966 4.14176 66.4854 4.19149 66.0789 4.26811C65.919 4.31773 65.316 4.67752 65.2422 4.67752H65.1561Z" fill="#231F20"/>
<path fill-rule="evenodd" clip-rule="evenodd" d="M29.2738 12.5802C29.4662 11.9332 29.5207 11.2525 29.4337 10.5828C29.3833 9.8807 29.3833 9.17582 29.4337 8.47371C29.5813 8.47371 29.7413 8.73423 30.049 9.04439C30.3566 9.35457 32.8914 12.022 33.2975 12.3197C33.4391 12.4526 33.6099 12.55 33.7959 12.6039C33.9819 12.6578 34.1779 12.6666 34.368 12.6298C34.7248 12.6298 35.2908 12.6298 35.4877 12.3818C35.4877 12.022 34.7741 11.4513 34.4664 11.1411C34.1588 10.8309 33.765 10.4339 33.4082 10.0121C32.6255 9.31758 31.8935 8.56715 31.2179 7.76654C31.2179 7.65488 34.0112 5.28525 34.5279 4.83862C34.7248 4.62771 34.934 4.57809 34.8848 4.26793C34.2514 4.07094 33.5739 4.07094 32.9406 4.26793C32.6945 4.37958 31.0088 5.91799 30.5534 6.3274C30.4058 6.47627 29.5321 7.40675 29.4337 7.35713C29.286 6.88568 29.4337 0.471568 29.3353 0.111782C29.2368 -0.248004 27.5018 0.322691 27.551 0.943012C27.6475 1.37886 27.6971 1.82394 27.6987 2.27049V11.1411C27.6987 11.4513 27.6003 12.3818 27.8095 12.5306C28.2882 12.654 28.7878 12.6709 29.2738 12.5802Z" fill="#231F20"/>
<path fill-rule="evenodd" clip-rule="evenodd" d="M16.0221 8.37466C16.5882 8.22579 18.4831 8.68483 18.5693 9.19349C18.6185 9.7424 18.6185 10.2946 18.5693 10.8435C18.2124 11.3026 15.7637 12.2207 14.9517 10.583C14.8421 10.3504 14.7854 10.0961 14.7854 9.83861C14.7854 9.58115 14.8421 9.32687 14.9517 9.09424C15.0698 8.90508 15.2262 8.74322 15.4107 8.61921C15.5951 8.49522 15.8035 8.41188 16.0221 8.37466ZM18.6185 7.75435C18.1403 7.43498 17.6055 7.21171 17.0434 7.09681C16.343 7.0186 15.6342 7.06904 14.9517 7.24569C14.3768 7.41166 13.87 7.7592 13.5058 8.23722C13.1415 8.71523 12.939 9.29844 12.9279 9.9012C12.9169 10.5039 13.098 11.0942 13.4446 11.5855C13.7911 12.0767 14.2849 12.4429 14.8532 12.6301C15.8264 12.9646 16.8823 12.9646 17.8556 12.6301C18.0648 12.5308 18.4708 12.2702 18.6185 12.2207C18.7661 12.171 18.8277 12.5805 19.0245 12.6797C19.2214 12.779 20.1443 12.6797 20.4027 12.4316C20.6611 12.1834 20.7103 12.2207 20.5503 11.8609C20.3122 11.3861 20.2263 10.8486 20.3043 10.3225V6.62536C20.3686 6.10187 20.2418 5.57267 19.9474 5.1366C18.9753 3.18879 13.1182 3.95798 13.5858 5.60804C14.0533 7.25809 14.8162 5.03734 17.4002 5.34751C18.7907 5.49638 18.6431 6.83627 18.6431 7.75435H18.6185Z" fill="#231F20"/>
<path fill-rule="evenodd" clip-rule="evenodd" d="M78.8504 7.50446H74.6298C74.6863 6.99504 74.9169 6.52135 75.282 6.16457C75.6805 5.81225 76.1811 5.59904 76.7093 5.55665C76.9845 5.53373 77.2614 5.56696 77.5236 5.65436C77.7858 5.74175 78.0278 5.88152 78.2351 6.06531C78.444 6.23849 78.6087 6.45943 78.7156 6.70974C78.8226 6.96006 78.8688 7.23251 78.8504 7.50446ZM74.519 8.83195C74.8267 8.68307 79.441 8.83195 80.2778 8.83195C81.1145 8.83195 80.733 6.06531 79.2072 4.93633C78.5839 4.46777 77.8418 4.18651 77.0666 4.12503C76.2915 4.06356 75.515 4.22437 74.8266 4.58889C74.1383 4.95342 73.5662 5.50681 73.1765 6.18515C72.7868 6.86349 72.5952 7.63914 72.6241 8.42253C72.5949 9.18338 72.7704 9.9381 73.1323 10.6065C73.494 11.2748 74.0285 11.832 74.679 12.2189C76.0449 13.1494 79.7117 13.0998 80.167 11.6606C80.733 9.81201 79.4041 10.8418 78.9365 11.0403C78.5432 11.2028 78.1289 11.3072 77.7061 11.3504C74.9867 11.6606 74.3222 9.24132 74.519 8.83195Z" fill="#231F20"/>
<path fill-rule="evenodd" clip-rule="evenodd" d="M56.0497 7.50591C56.0928 6.97602 56.3317 6.48179 56.7192 6.12107C57.1066 5.76035 57.6142 5.55943 58.1416 5.55811C59.1997 5.44645 60.4303 6.37694 60.2211 7.50591H56.0497ZM55.8405 8.74656C56.0989 8.74656 60.8855 8.74656 61.55 8.74656C62.2144 8.74656 62.1037 8.33715 62.0544 7.82848C62.0186 7.13962 61.8058 6.47199 61.437 5.89097C61.0681 5.30996 60.5559 4.83551 59.9506 4.51408C59.3452 4.19265 58.6675 4.03526 57.9837 4.05733C57.2998 4.07942 56.6334 4.28021 56.0497 4.64003C55.3934 5.031 54.8566 5.59681 54.4984 6.27531C54.1403 6.95381 53.9745 7.71874 54.0194 8.48602C53.9671 9.24342 54.1364 9.99969 54.5059 10.6612C54.8755 11.3227 55.4293 11.8604 56.0989 12.2079C57.8339 13.2873 61.2424 12.8283 61.55 11.6001C61.55 11.2403 61.7961 10.3594 61.2424 10.5703C60.5735 10.9516 59.8454 11.2158 59.089 11.3519C58.6858 11.4062 58.2759 11.3794 57.883 11.2729C57.4902 11.1664 57.1222 10.9825 56.8003 10.7315C56.3573 10.3718 55.6436 9.29243 55.8405 8.74656Z" fill="#231F20"/>
<path fill-rule="evenodd" clip-rule="evenodd" d="M83.4807 12.6301C83.7884 12.32 83.7391 12.1711 83.7391 11.7121V10.4714C83.7391 8.8338 83.4316 6.11679 85.3142 5.70738C85.7203 5.60813 85.8186 5.95551 86.3355 5.85626C86.6402 5.58057 86.8692 5.23012 87 4.83893C87 4.05733 85.7694 3.90845 84.6497 4.41712C84.2928 4.57839 83.9976 5.13668 83.7391 5.18631C83.7391 4.72727 83.8376 4.52877 83.5299 4.11935C83.1356 4.15749 82.7538 4.28016 82.4102 4.47914C81.9058 4.72727 81.8073 4.72727 81.9058 5.34759C82.0041 5.96792 81.9058 10.2233 81.9058 11.2407C81.9549 12.7915 81.9549 12.7418 83.4807 12.6301Z" fill="#231F20"/>
<path fill-rule="evenodd" clip-rule="evenodd" d="M23.4811 12.5805V12.4812C23.6239 11.2211 23.661 9.95122 23.5919 8.68489C23.5919 7.70478 23.8379 6.11676 24.9085 5.8066C25.7698 5.49644 25.819 6.31526 26.385 5.8066C27.7017 4.41708 25.9298 3.85879 24.8592 4.31783C23.7887 4.77687 23.9364 5.13665 23.6287 5.2359C23.604 5.03404 23.604 4.82986 23.6287 4.62799C23.6287 4.36746 23.518 4.36746 23.4195 4.21858C23.025 4.21534 22.6374 4.32272 22.2998 4.52874C21.7953 4.72724 21.6354 4.77687 21.7953 5.39718C21.9035 6.34833 21.9364 7.30665 21.8938 8.26307V11.0917C22.0045 12.6301 21.7953 12.7418 23.4811 12.5805Z" fill="#231F20"/>
<path fill-rule="evenodd" clip-rule="evenodd" d="M46.4287 14.2303C44.3973 14.4829 42.4 14.9614 40.473 15.657C39.8701 15.9175 39.2426 16.0664 38.6397 16.3269C37.4091 16.786 36.2525 17.1954 35.0343 17.6668C34.6282 17.8157 31.7243 18.6842 31.2198 18.7958C28.7588 19.4037 25.0673 20.1233 22.7171 19.044C21.5973 18.4857 21.4866 20.2225 24.0337 20.8428C25.5233 21.1059 27.0518 21.0381 28.5127 20.6443C29.7432 20.3839 31.2198 19.9248 32.3887 19.565C33.5578 19.2052 34.9359 18.7958 36.2033 18.436C36.5109 18.3243 36.757 18.2251 37.1139 18.1259L38.9965 17.5552C39.3533 17.4559 39.6118 17.307 39.9193 17.1954L41.8635 16.7363C42.2203 16.6371 42.4788 16.5378 42.7864 16.4262C45.3627 15.872 47.9904 15.5975 50.6247 15.6073C51.2768 15.6073 52.2488 15.7686 52.9134 15.8679C54.1438 16.0168 53.8731 15.3593 53.061 14.9374C50.9494 14.1217 48.6627 13.8779 46.4287 14.2303Z" fill="#231F20"/>
</svg>
