<svg width="50" height="50" viewBox="0 0 50 50" fill="none" xmlns="http://www.w3.org/2000/svg">
<circle cx="25" cy="25" r="25" fill="#59C13F"/>
<path fill-rule="evenodd" clip-rule="evenodd" d="M25.0001 23.8328C24.0352 23.8328 23.2501 23.0476 23.2501 22.0828C23.2501 21.118 24.0352 20.3328 25.0001 20.3328C25.9649 20.3328 26.7501 21.118 26.7501 22.0828C26.7501 23.0476 25.9649 23.8328 25.0001 23.8328ZM25.0001 17.9995C22.7484 17.9995 20.9167 19.8311 20.9167 22.0828C20.9167 24.3345 22.7484 26.1661 25.0001 26.1661C27.2517 26.1661 29.0834 24.3345 29.0834 22.0828C29.0834 19.8311 27.2517 17.9995 25.0001 17.9995ZM25.0001 33.9204C23.0459 32.0724 18.0001 26.8842 18.0001 22.5757C18.0001 18.7665 21.1396 15.6667 25.0001 15.6667C28.8606 15.6667 32.0001 18.7665 32.0001 22.5757C32.0001 26.8842 26.9542 32.0724 25.0001 33.9204ZM25.0001 13.3334C19.8539 13.3334 15.6667 17.4785 15.6667 22.5757C15.6667 28.9632 23.8906 36.0845 24.2406 36.3844C24.4599 36.5722 24.7294 36.6667 25.0001 36.6667C25.2707 36.6667 25.5402 36.5722 25.7596 36.3844C26.1096 36.0845 34.3334 28.9632 34.3334 22.5757C34.3334 17.4785 30.1462 13.3334 25.0001 13.3334Z" fill="white"/>
<mask id="mask0" mask-type="alpha" maskUnits="userSpaceOnUse" x="15" y="13" width="20" height="24">
<path fill-rule="evenodd" clip-rule="evenodd" d="M25.0001 23.8328C24.0352 23.8328 23.2501 23.0476 23.2501 22.0828C23.2501 21.118 24.0352 20.3328 25.0001 20.3328C25.9649 20.3328 26.7501 21.118 26.7501 22.0828C26.7501 23.0476 25.9649 23.8328 25.0001 23.8328ZM25.0001 17.9995C22.7484 17.9995 20.9167 19.8311 20.9167 22.0828C20.9167 24.3345 22.7484 26.1661 25.0001 26.1661C27.2517 26.1661 29.0834 24.3345 29.0834 22.0828C29.0834 19.8311 27.2517 17.9995 25.0001 17.9995ZM25.0001 33.9204C23.0459 32.0724 18.0001 26.8842 18.0001 22.5757C18.0001 18.7665 21.1396 15.6667 25.0001 15.6667C28.8606 15.6667 32.0001 18.7665 32.0001 22.5757C32.0001 26.8842 26.9542 32.0724 25.0001 33.9204ZM25.0001 13.3334C19.8539 13.3334 15.6667 17.4785 15.6667 22.5757C15.6667 28.9632 23.8906 36.0845 24.2406 36.3844C24.4599 36.5722 24.7294 36.6667 25.0001 36.6667C25.2707 36.6667 25.5402 36.5722 25.7596 36.3844C26.1096 36.0845 34.3334 28.9632 34.3334 22.5757C34.3334 17.4785 30.1462 13.3334 25.0001 13.3334Z" fill="white"/>
</mask>
<g mask="url(#mask0)">
<rect x="11" y="11" width="28" height="28" fill="white"/>
</g>
</svg>
