<svg width="32" height="32" viewBox="-6.5 -6.5 32 32" fill="none" xmlns="http://www.w3.org/2000/svg">
<path fill-rule="evenodd" clip-rule="evenodd" d="M17.0066 0H0.993428C0.444716 0 0 0.444714 0 0.993424V17.0065C0 17.5552 0.444716 18 0.993428 18H9.6144V11.0294H7.26862V8.31286H9.6144V6.30949C9.6144 3.98462 11.0343 2.71866 13.1083 2.71866C14.1018 2.71866 14.9556 2.79258 15.2044 2.82563V5.2553L13.766 5.25598C12.6381 5.25598 12.4197 5.79194 12.4197 6.57845V8.31286H15.1098L14.7595 11.0294H12.4197V18H17.0066C17.5552 18 18 17.5552 18 17.0065V0.993424C18 0.444714 17.5552 0 17.0066 0Z" fill="#59C13F"/>
</svg>
