<svg width="32" height="32" viewBox="-6.5 -6.5 32 32" fill="none" xmlns="http://www.w3.org/2000/svg">
<path fill-rule="evenodd" clip-rule="evenodd" d="M5.28931 0.05425C6.24926 0.0103776 6.55575 0 9.00002 0C11.4443 0 11.7507 0.0103776 12.7107 0.05425C13.6686 0.0980151 14.3229 0.250423 14.8953 0.473292C15.4872 0.70364 15.9891 1.01189 16.4895 1.51306C16.9898 2.01427 17.2975 2.51701 17.5275 3.10982C17.75 3.68324 17.9021 4.33857 17.9458 5.29811C17.9896 6.25965 18 6.56665 18 9.01499C18 11.4633 17.9896 11.7703 17.9458 12.7318C17.9021 13.6914 17.75 14.3467 17.5275 14.9201C17.2975 15.5129 16.9898 16.0157 16.4895 16.5169C15.9891 17.018 15.4872 17.3263 14.8953 17.5567C14.3229 17.7795 13.6686 17.9319 12.7107 17.9757C11.7507 18.0196 11.4443 18.0299 9.00002 18.0299C6.55575 18.0299 6.24926 18.0196 5.28931 17.9757C4.33137 17.9319 3.67712 17.7795 3.10466 17.5567C2.51283 17.3263 2.01092 17.018 1.51055 16.5169C1.01021 16.0157 0.702472 15.5129 0.472506 14.9201C0.250007 14.3467 0.0978523 13.6914 0.0541599 12.7318C0.0103604 11.7703 0 11.4633 0 9.01499C0 6.56665 0.0103604 6.25965 0.0541599 5.29811C0.0978523 4.33857 0.250007 3.68324 0.472506 3.10982C0.702472 2.51701 1.01021 2.01427 1.51055 1.51306C2.01092 1.01189 2.51283 0.70364 3.10466 0.473292C3.67712 0.250423 4.33137 0.0980151 5.28931 0.05425ZM13.5 6C14.3284 6 15 5.32843 15 4.5C15 3.67157 14.3284 3 13.5 3C12.6716 3 12 3.67157 12 4.5C12 5.32843 12.6716 6 13.5 6ZM9 12C10.6569 12 12 10.6569 12 9C12 7.34315 10.6569 6 9 6C7.34315 6 6 7.34315 6 9C6 10.6569 7.34315 12 9 12Z" fill="white"/>
</svg>
