<svg width="22" height="13" viewBox="0 0 22 13" fill="none" xmlns="http://www.w3.org/2000/svg">
<path d="M18.9341 8.26599C19.6639 9.00996 20.4341 9.70993 21.0887 10.5289C21.3778 10.8929 21.6515 11.2684 21.8609 11.6908C22.1577 12.2912 21.8889 12.9519 21.3733 12.9878L18.1683 12.9863C17.3417 13.0579 16.6822 12.7104 16.1278 12.1203C15.684 11.6483 15.2731 11.146 14.8464 10.6581C14.6715 10.4587 14.4884 10.2711 14.2697 10.1228C13.8321 9.82623 13.4523 9.91703 13.2023 10.3935C12.9477 10.8781 12.8899 11.4148 12.8649 11.9549C12.8306 12.7429 12.6024 12.9501 11.8443 12.9862C10.2242 13.066 8.6866 12.81 7.25822 11.9566C5.99891 11.2043 5.02236 10.1422 4.17239 8.93977C2.51748 6.59842 1.25014 4.02567 0.111107 1.38084C-0.14528 0.784952 0.042222 0.465084 0.671878 0.453762C1.71745 0.432554 2.76288 0.434063 3.80968 0.452253C4.23463 0.458744 4.51595 0.713249 4.68003 1.13244C5.24572 2.58483 5.9379 3.96665 6.80674 5.24748C7.03812 5.58848 7.27405 5.92948 7.61002 6.16949C7.9817 6.43524 8.26468 6.34716 8.43954 5.91484C8.55049 5.64071 8.59906 5.34544 8.62407 5.05184C8.70691 4.04175 8.71782 3.03338 8.57254 2.02684C8.48334 1.39865 8.14448 0.991982 7.54417 0.873108C7.23783 0.8125 7.28344 0.693474 7.43177 0.510898C7.68938 0.196011 7.93168 0 8.41467 0H12.0368C12.6071 0.117516 12.7337 0.385004 12.8118 0.984133L12.8149 5.18536C12.8087 5.4173 12.9258 6.10556 13.3259 6.25908C13.6461 6.36837 13.8572 6.10088 14.0493 5.88887C14.9166 4.92776 15.5355 3.79192 16.0885 2.61578C16.3339 2.09861 16.5449 1.56153 16.7494 1.02489C16.9009 0.626678 17.1386 0.430742 17.5682 0.439422L21.0543 0.442667C21.1577 0.442667 21.2623 0.444252 21.3624 0.46214C21.9498 0.566675 22.1108 0.830539 21.9294 1.42952C21.6435 2.36927 21.0873 3.15241 20.5434 3.93917C19.9621 4.77915 19.3403 5.59036 18.7638 6.43532C18.2341 7.20691 18.2761 7.59584 18.9341 8.26599Z" fill="white"/>
</svg>
