<svg width="32" height="32" viewBox="-2.5 -6.5 32 32" fill="none" xmlns="http://www.w3.org/2000/svg">
<path d="M25.6142 2.8C25.3056 1.7 24.4827 0.8 23.3511 0.5C21.2938 0 13.0643 0 13.0643 0C13.0643 0 4.83482 0 2.88032 0.5C1.74876 0.9 0.822948 1.7 0.514342 2.8C0 4.9 0 9 0 9C0 9 0 13.2 0.514342 15.2C0.822948 16.3 1.6459 17.2 2.77745 17.5C4.83482 18 12.9614 18 12.9614 18C12.9614 18 21.1909 18 23.1454 17.5C24.277 17.2 25.0999 16.4 25.4085 15.2C25.9228 13.2 25.9228 9 25.9228 9C25.9228 9 26.2315 4.9 25.6142 2.8ZM10.3897 12.8V5.2L17.2819 9L10.3897 12.8Z" fill="#59C13F"/>
</svg>
