<svg width="95" height="135" viewBox="0 0 95 135" fill="none" xmlns="http://www.w3.org/2000/svg">
<path d="M39.5172 78.5235C17.737 78.5235 0 60.9012 0 39.2618C0 17.5931 17.737 0 39.5172 0C61.2974 0 79.0346 17.5931 79.0346 39.2618C79.0346 60.9012 61.2974 78.5235 39.5172 78.5235ZM39.5172 8.64986C22.5476 8.64986 8.73571 22.3725 8.73571 39.2325C8.73571 56.0925 22.5476 69.815 39.5172 69.815C56.4869 69.815 70.2988 56.0925 70.2988 39.2325C70.3283 22.3725 56.4869 8.64986 39.5172 8.64986Z" fill="#59C13F"/>
<path d="M39.5168 65.2408C25.0851 65.2408 13.3687 53.5707 13.3687 39.2617C13.3687 24.9234 25.1146 13.2826 39.5168 13.2826C53.9189 13.2826 65.6648 24.9234 65.6648 39.2617C65.6648 53.6 53.9484 65.2408 39.5168 65.2408ZM39.5168 21.9325C29.8956 21.9325 22.0749 29.7028 22.0749 39.2617C22.0749 48.8206 29.8956 56.5908 39.5168 56.5908C49.1378 56.5908 56.9586 48.8206 56.9586 39.2617C56.9586 29.7028 49.1378 21.9325 39.5168 21.9325Z" fill="#59C13F"/>
<path d="M39.5171 52.691C46.9822 52.691 53.0339 46.6784 53.0339 39.2615C53.0339 31.8448 46.9822 25.8322 39.5171 25.8322C32.052 25.8322 26.0004 31.8448 26.0004 39.2615C26.0004 46.6784 32.052 52.691 39.5171 52.691Z" fill="#59C13F"/>
<path d="M45.3947 92.9241C46.5753 92.9535 47.5491 93.3054 48.3165 94.0384C49.0838 94.7421 49.4971 95.6511 49.4971 96.7652C49.4971 97.8795 49.1133 98.7885 48.3165 99.5215C47.5491 100.255 46.5753 100.606 45.3947 100.636V102.248H43.8897V100.636C42.7091 100.606 41.7353 100.255 40.9384 99.5508C40.1711 98.8471 39.7578 97.9088 39.7578 96.7947C39.7578 95.6804 40.1416 94.7714 40.9384 94.0384C41.7056 93.3054 42.7091 92.9535 43.8897 92.9241V91.2235H45.3947V92.9241ZM41.263 96.7652C41.263 97.5863 41.4991 98.2314 41.9418 98.7006C42.3844 99.1697 43.0338 99.4043 43.8307 99.4043L43.8897 99.375V94.1556L43.8307 94.1263C43.0043 94.1263 42.3844 94.3609 41.9418 94.83C41.4991 95.3285 41.263 95.9736 41.263 96.7652ZM47.9919 96.7652C47.9919 95.9736 47.7558 95.3285 47.3131 94.8593C46.8704 94.3902 46.2211 94.1556 45.4243 94.1556L45.3652 94.1849V99.4336L45.4243 99.4629C46.2211 99.4629 46.8409 99.2283 47.3131 98.7592C47.7853 98.2021 47.9919 97.5863 47.9919 96.7652Z" fill="#59C13F"/>
<path d="M57.3175 99.4033H53.1267L52.1233 102.248H50.5886L54.6024 91.2226H55.9009L59.826 102.248H58.2915L57.3175 99.4033ZM53.5694 98.1425H56.8747L55.2516 93.4217H55.1926L53.5694 98.1425Z" fill="#59C13F"/>
<path d="M63.6037 97.8201V102.248H62.0985V91.1933H66.3483C67.5288 91.1933 68.4437 91.4866 69.1225 92.1023C69.7717 92.7181 70.0964 93.5097 70.0964 94.5068C70.0964 95.5037 69.7717 96.2953 69.1225 96.9111C68.4732 97.4975 67.5288 97.8201 66.3483 97.8201H63.6037ZM63.6037 96.6472H66.3483C67.0861 96.6472 67.6764 96.442 68.0306 96.0314C68.4142 95.6209 68.5913 95.1225 68.5913 94.5068C68.5913 93.891 68.4142 93.3925 68.0306 92.982C67.6468 92.5714 67.0861 92.3662 66.3483 92.3662H63.6037V96.6472Z" fill="#59C13F"/>
<path d="M78.0054 100.166H78.0644L81.6064 91.1933H83.4647V102.218H81.9605V93.9789H81.9013L78.5366 102.248H77.5036L74.0507 93.715H73.9916V102.248H72.4866V91.1933H74.4639L78.0054 100.166Z" fill="#59C13F"/>
<path d="M45.9558 116.469H46.0148L49.5563 107.496H51.4157V118.521H49.9104V110.252H49.8515L46.487 118.521H45.4541L42.0012 109.988H41.9421V118.521H40.437V107.496H42.4143L45.9558 116.469Z" fill="#59C13F"/>
<path d="M60.5927 113.419H56.0478V117.348H61.3896V118.521H54.5426V107.496H61.301V108.669H56.0478V112.246H60.5927V113.419Z" fill="#59C13F"/>
<path d="M72.9312 121.219V118.521H64.7858V121.248H63.2807V117.348H64.0775C64.7563 117.348 65.258 116.879 65.5827 115.97C65.9072 115.061 66.1139 113.712 66.2319 111.953L66.4976 107.496H72.9607V117.348H74.4659V121.219H72.9312ZM67.7371 111.953C67.678 113.214 67.5305 114.299 67.324 115.178C67.1173 116.087 66.8222 116.791 66.4386 117.348H71.4262V108.669H67.9142L67.7371 111.953Z" fill="#59C13F"/>
<path d="M48.848 134.824H47.3429V124.972H41.9421V134.824H40.437V123.799H48.848V134.824Z" fill="#59C13F"/>
<path d="M60.505 130.279C60.505 131.628 60.0918 132.742 59.2359 133.622C58.38 134.501 57.2881 134.941 55.9601 134.941C54.6615 134.941 53.599 134.501 52.8022 133.622C52.0053 132.742 51.5922 131.628 51.5922 130.279V128.314C51.5922 126.966 52.0053 125.851 52.8022 124.972C53.599 124.063 54.6615 123.623 55.9601 123.623C57.2881 123.623 58.38 124.063 59.2359 124.972C60.0918 125.851 60.505 126.995 60.505 128.344V130.279ZM58.9999 128.314C58.9999 127.318 58.7342 126.467 58.1735 125.822C57.6128 125.177 56.875 124.854 55.9601 124.854C55.0747 124.854 54.3959 125.177 53.8647 125.822C53.3335 126.467 53.0973 127.288 53.0973 128.314V130.279C53.0973 131.305 53.363 132.126 53.8647 132.771C54.3959 133.416 55.0747 133.739 55.9601 133.739C56.9045 133.739 57.6423 133.416 58.1735 132.771C58.7342 132.126 58.9999 131.305 58.9999 130.279V128.314Z" fill="#59C13F"/>
<path d="M71.3665 123.799V134.824H69.8615V124.972H65.8477V128.989C65.8477 131.012 65.5822 132.478 65.051 133.417C64.5197 134.355 63.6638 134.824 62.4538 134.824H62.0407V133.651H62.3653C63.0736 133.651 63.5752 133.299 63.8704 132.566C64.1656 131.833 64.3426 130.66 64.3426 128.989V123.799H71.3665Z" fill="#59C13F"/>
<path d="M81.3707 123.799H82.8749V134.824H81.3707V126.409L81.3115 126.379L75.9693 134.824H74.4938V123.799H75.999V132.214L76.0579 132.244L81.3707 123.799Z" fill="#59C13F"/>
<path d="M93.9424 131.276L93.972 131.335C94.0016 132.361 93.6179 133.241 92.8799 133.944C92.142 134.648 91.1388 135 89.8986 135C88.6301 135 87.6269 134.56 86.8298 133.68C86.0326 132.801 85.6489 131.687 85.6489 130.309V128.344C85.6489 126.995 86.0326 125.852 86.8298 124.972C87.6269 124.092 88.6301 123.653 89.8986 123.653C91.1684 123.653 92.142 123.975 92.9096 124.649C93.6475 125.324 94.0016 126.204 94.0016 127.288L93.972 127.347H92.5258C92.5258 126.585 92.2888 125.969 91.8471 125.5C91.3745 125.06 90.755 124.825 89.8986 124.825C89.0719 124.825 88.3932 125.177 87.8922 125.822C87.39 126.497 87.1543 127.318 87.1543 128.315V130.279C87.1543 131.276 87.39 132.126 87.8922 132.801C88.3932 133.475 89.0719 133.798 89.8986 133.798C90.7254 133.798 91.3745 133.563 91.8471 133.123C92.2888 132.684 92.5258 132.068 92.5258 131.276H93.9424Z" fill="#59C13F"/>
</svg>
