<svg width="102" height="53" viewBox="0 0 102 53" fill="none" xmlns="http://www.w3.org/2000/svg">
<path d="M26.4247 52.8495C11.8605 52.8495 0 40.989 0 26.4248C0 11.8409 11.8605 0 26.4247 0C40.9889 0 52.8495 11.8409 52.8495 26.4248C52.8495 40.989 40.9889 52.8495 26.4247 52.8495ZM26.4247 5.82171C15.0773 5.82171 5.84147 15.0576 5.84147 26.4051C5.84147 37.7525 15.0773 46.9883 26.4247 46.9883C37.7722 46.9883 47.008 37.7525 47.008 26.4051C47.0277 15.0576 37.7722 5.82171 26.4247 5.82171Z" fill="#59C13F"/>
<path d="M26.4245 43.9097C16.7741 43.9097 8.93949 36.0552 8.93949 26.4247C8.93949 16.7744 16.7939 8.93973 26.4245 8.93973C36.055 8.93973 43.9093 16.7744 43.9093 26.4247C43.9093 36.075 36.0747 43.9097 26.4245 43.9097ZM26.4245 14.7615C19.9909 14.7615 14.7612 19.9912 14.7612 26.4247C14.7612 32.8582 19.9909 38.0879 26.4245 38.0879C32.8579 38.0879 38.0876 32.8582 38.0876 26.4247C38.0876 19.9912 32.8579 14.7615 26.4245 14.7615Z" fill="#59C13F"/>
<path d="M26.4246 35.4632C31.4165 35.4632 35.4632 31.4165 35.4632 26.4246C35.4632 21.4328 31.4165 17.3861 26.4246 17.3861C21.4328 17.3861 17.3862 21.4328 17.3862 26.4246C17.3862 31.4165 21.4328 35.4632 26.4246 35.4632Z" fill="#59C13F"/>
<path d="M63.9165 9.88534C64.8415 9.9088 65.6045 10.1905 66.2058 10.7772C66.8069 11.3404 67.1307 12.068 67.1307 12.9597C67.1307 13.8516 66.83 14.5791 66.2058 15.1658C65.6045 15.7525 64.8415 16.0342 63.9165 16.0577V17.3485H62.7373V16.0577C61.8123 16.0342 61.0493 15.7525 60.425 15.1893C59.8238 14.626 59.5 13.875 59.5 12.9833C59.5 12.0914 59.8007 11.3639 60.425 10.7772C61.0261 10.1905 61.8123 9.9088 62.7373 9.88534V8.52417H63.9165V9.88534ZM60.6793 12.9597C60.6793 13.6169 60.8643 14.1332 61.2112 14.5087C61.558 14.8842 62.0667 15.072 62.6911 15.072L62.7373 15.0485V10.871L62.6911 10.8476C62.0436 10.8476 61.558 11.0353 61.2112 11.4108C60.8643 11.8098 60.6793 12.3261 60.6793 12.9597ZM65.9514 12.9597C65.9514 12.3261 65.7664 11.8098 65.4195 11.4343C65.0727 11.0588 64.564 10.871 63.9397 10.871L63.8934 10.8945V15.0955L63.9397 15.1189C64.564 15.1189 65.0496 14.9312 65.4195 14.5557C65.7895 14.1098 65.9514 13.6169 65.9514 12.9597Z" fill="#59C13F"/>
<path d="M73.258 15.0712H69.9745L69.1884 17.3477H67.9859L71.1307 8.52346H72.1481L75.2234 17.3477H74.0211L73.258 15.0712ZM70.3214 14.0621H72.9111L71.6393 10.2836H71.5931L70.3214 14.0621Z" fill="#59C13F"/>
<path d="M78.1832 13.804V17.3478H77.0039V8.5H80.3336C81.2586 8.5 81.9754 8.73477 82.5072 9.22755C83.0159 9.72043 83.2702 10.3541 83.2702 11.1521C83.2702 11.95 83.0159 12.5836 82.5072 13.0765C81.9985 13.5458 81.2586 13.804 80.3336 13.804H78.1832ZM78.1832 12.8653H80.3336C80.9117 12.8653 81.3742 12.701 81.6517 12.3724C81.9523 12.0438 82.091 11.6449 82.091 11.1521C82.091 10.6592 81.9523 10.2602 81.6517 9.93164C81.351 9.60305 80.9117 9.43875 80.3336 9.43875H78.1832V12.8653Z" fill="#59C13F"/>
<path d="M89.4669 15.6815H89.5131L92.2883 8.5H93.7443V17.3243H92.5658V10.7296H92.5194L89.8831 17.3478H89.0738L86.3685 10.5183H86.3222V17.3478H85.1429V8.5H86.6922L89.4669 15.6815Z" fill="#59C13F"/>
<path d="M64.3561 28.7301H64.4023L67.1771 21.5485H68.6339V30.3728H67.4546V23.7546H67.4084L64.7723 30.3728H63.963L61.2577 23.5434H61.2114V30.3728H60.0321V21.5485H61.5814L64.3561 28.7301Z" fill="#59C13F"/>
<path d="M75.8241 26.2893H72.2632V29.4341H76.4485V30.3728H71.0839V21.5485H76.379V22.4873H72.2632V25.3506H75.8241V26.2893Z" fill="#59C13F"/>
<path d="M85.4914 32.532V30.3728H79.1094V32.5555H77.9302V29.4341H78.5544C79.0863 29.4341 79.4794 29.0586 79.7338 28.3311C79.988 27.6036 80.15 26.524 80.2424 25.1158L80.4506 21.5485H85.5145V29.4341H86.6938V32.532H85.4914ZM81.4217 25.1158C81.3754 26.125 81.2599 26.9933 81.098 27.6974C80.9361 28.4249 80.7049 28.9882 80.4044 29.4341H84.3121V22.4873H81.5605L81.4217 25.1158Z" fill="#59C13F"/>
<path d="M66.6222 43.4217H65.4429V35.5361H61.2114V43.4217H60.0321V34.5974H66.6222V43.4217Z" fill="#59C13F"/>
<path d="M75.7554 39.7839C75.7554 40.8634 75.4317 41.7553 74.7611 42.4593C74.0905 43.1634 73.235 43.5154 72.1945 43.5154C71.177 43.5154 70.3446 43.1634 69.7203 42.4593C69.0959 41.7553 68.7722 40.8634 68.7722 39.7839V38.2114C68.7722 37.1319 69.0959 36.2401 69.7203 35.536C70.3446 34.8085 71.177 34.4564 72.1945 34.4564C73.235 34.4564 74.0905 34.8085 74.7611 35.536C75.4317 36.2401 75.7554 37.1554 75.7554 38.2349V39.7839ZM74.5761 38.2114C74.5761 37.4135 74.368 36.7329 73.9287 36.2167C73.4893 35.7003 72.9113 35.4421 72.1945 35.4421C71.5008 35.4421 70.9689 35.7003 70.5527 36.2167C70.1365 36.7329 69.9515 37.3901 69.9515 38.2114V39.7839C69.9515 40.6053 70.1596 41.2624 70.5527 41.7787C70.9689 42.2951 71.5008 42.5532 72.1945 42.5532C72.9344 42.5532 73.5125 42.2951 73.9287 41.7787C74.368 41.2624 74.5761 40.6053 74.5761 39.7839V38.2114Z" fill="#59C13F"/>
<path d="M84.2654 34.5974V43.4217H83.0862V35.5361H79.9414V38.7513C79.9414 40.3707 79.7334 41.5442 79.3172 42.2952C78.9009 43.0462 78.2304 43.4217 77.2823 43.4217H76.9586V42.4829H77.213C77.7679 42.4829 78.1609 42.2012 78.3922 41.6145C78.6235 41.0278 78.7622 40.0891 78.7622 38.7513V34.5974H84.2654Z" fill="#59C13F"/>
<path d="M92.1037 34.5974H93.2822V43.4217H92.1037V36.6861L92.0573 36.6626L87.8717 43.4217H86.7156V34.5974H87.8949V41.333L87.9411 41.3564L92.1037 34.5974Z" fill="#59C13F"/>
<path d="M101.954 40.5819L101.977 40.6289C102 41.4503 101.699 42.1544 101.121 42.7177C100.543 43.2809 99.757 43.5625 98.7853 43.5625C97.7914 43.5625 97.0054 43.2105 96.3809 42.5064C95.7563 41.8024 95.4556 40.9105 95.4556 39.8075V38.2351C95.4556 37.1555 95.7563 36.2402 96.3809 35.5361C97.0054 34.8321 97.7914 34.4801 98.7853 34.4801C99.7802 34.4801 100.543 34.7382 101.144 35.278C101.723 35.8178 102 36.5219 102 37.3902L101.977 37.4371H100.844C100.844 36.8269 100.658 36.3341 100.312 35.9586C99.9416 35.6066 99.4563 35.4188 98.7853 35.4188C98.1375 35.4188 97.6058 35.7004 97.2133 36.2168C96.8198 36.7566 96.6351 37.4136 96.6351 38.2117V39.784C96.6351 40.5819 96.8198 41.2626 97.2133 41.8024C97.6058 42.3422 98.1375 42.6003 98.7853 42.6003C99.4331 42.6003 99.9416 42.4125 100.312 42.0605C100.658 41.7085 100.844 41.2157 100.844 40.5819H101.954Z" fill="#59C13F"/>
</svg>
