<svg width="34" height="42" viewBox="0 0 34 42" fill="none" xmlns="http://www.w3.org/2000/svg">
<path fill-rule="evenodd" clip-rule="evenodd" d="M21.167 23.0833H19.0837V21C19.0837 19.85 18.1524 18.9167 17.0003 18.9167C15.8483 18.9167 14.917 19.85 14.917 21V23.0833H12.8337C11.6816 23.0833 10.7503 24.0167 10.7503 25.1667C10.7503 26.3167 11.6816 27.25 12.8337 27.25H14.917V29.3333C14.917 30.4833 15.8483 31.4167 17.0003 31.4167C18.1524 31.4167 19.0837 30.4833 19.0837 29.3333V27.25H21.167C22.3191 27.25 23.2503 26.3167 23.2503 25.1667C23.2503 24.0167 22.3191 23.0833 21.167 23.0833ZM28.3423 37.6667H5.65689C5.01939 37.6667 4.50064 37.2 4.50064 36.625V5.37501C4.50064 4.80001 5.01939 4.33334 5.65689 4.33334H17.0006V10.8958C17.0006 14.1708 19.5361 16.8333 22.6548 16.8333H29.5006V36.625C29.5006 37.2 28.9819 37.6667 28.3423 37.6667ZM21.1673 6.37087L26.8798 12.6667H22.6548C21.834 12.6667 21.1673 11.8729 21.1673 10.8959V6.37087ZM33.1257 13.35L21.784 0.850005C21.3882 0.414588 20.8298 0.166672 20.2402 0.166672H5.6569C2.72148 0.166672 0.333984 2.50417 0.333984 5.375V36.625C0.333984 39.4958 2.72148 41.8333 5.6569 41.8333H28.3423C31.2777 41.8333 33.6673 39.4958 33.6673 36.625V14.75C33.6673 14.2313 33.4736 13.7333 33.1257 13.35Z" fill="#4C789D"/>
</svg>
