<svg width="44" height="44" viewBox="0 0 44 44" fill="none" xmlns="http://www.w3.org/2000/svg">
<path d="M36.9519 7.0485C28.6885 -1.21489 15.3126 -1.21614 7.0481 7.0485C-1.21537 15.3118 -1.2167 28.6878 7.0481 36.9524C15.3115 45.2158 28.6873 45.217 36.9519 36.9524C45.2153 28.6891 45.2166 15.3131 36.9519 7.0485ZM21.9999 39.3967C12.4077 39.3967 4.60366 31.5926 4.60366 22.0004C4.60366 12.4082 12.4077 4.60422 21.9999 4.60422C31.5921 4.60422 39.3961 12.4083 39.3961 22.0005C39.3961 31.5926 31.5921 39.3967 21.9999 39.3967ZM24.6275 11.3661H18.4959C17.4606 11.3661 16.6214 12.2054 16.6214 13.2406V20.1256H14.9922C13.9569 20.1256 13.1176 20.9648 13.1176 22.0001C13.1176 23.0353 13.9569 23.8746 14.9922 23.8746H16.6214V25.3812H14.9922C13.9569 25.3812 13.1176 26.2205 13.1176 27.2557C13.1176 28.291 13.9569 29.1303 14.9922 29.1303H16.6214V30.7595C16.6214 31.7948 17.4606 32.634 18.4959 32.634C19.5311 32.634 20.3704 31.7948 20.3704 30.7595V29.1303H23.7515C24.7868 29.1303 25.626 28.291 25.626 27.2557C25.626 26.2205 24.7868 25.3812 23.7515 25.3812H20.3704V23.8746H24.6275C28.0762 23.8746 30.8817 21.0691 30.8817 17.6204C30.8817 14.1716 28.0763 11.3661 24.6275 11.3661ZM24.6275 20.1255H20.3704V15.1151H24.6275C26.0087 15.1151 27.1327 16.239 27.1327 17.6202C27.1327 19.0015 26.0088 20.1255 24.6275 20.1255Z" fill="#4C789D" stroke="#4C789D" stroke-width="0.3"/>
</svg>
