<svg width="42" height="38" viewBox="0 0 42 38" fill="none" xmlns="http://www.w3.org/2000/svg">
<path fill-rule="evenodd" clip-rule="evenodd" d="M35.5837 31.5C35.5837 32.65 34.6503 33.5833 33.5003 33.5833C32.3503 33.5833 31.417 32.65 31.417 31.5C31.417 30.35 32.3503 29.4167 33.5003 29.4167C34.6503 29.4167 35.5837 30.35 35.5837 31.5ZM21.0003 25.25H4.33365L4.36699 4.41667H27.2503L27.217 25.25H21.0003ZM10.5837 31.5C10.5837 32.65 9.65032 33.5833 8.50032 33.5833C7.35033 33.5833 6.41699 32.65 6.41699 31.5C6.41699 30.35 7.35033 29.4167 8.50032 29.4167C9.65032 29.4167 10.5837 30.35 10.5837 31.5ZM37.667 20.0001V25.2501H31.417V15.0021L37.667 20.0001ZM41.0524 17.3729L31.417 9.66458V4.41667C31.417 2.11875 29.7232 0.25 27.6399 0.25H3.94199C1.86074 0.25 0.166992 2.11875 0.166992 4.41667V25.25C0.166992 27.0687 1.23574 28.6021 2.71074 29.1708C2.41908 29.8917 2.25033 30.675 2.25033 31.5C2.25033 34.9458 5.05449 37.75 8.50033 37.75C11.9462 37.75 14.7503 34.9458 14.7503 31.5C14.7503 30.7646 14.6003 30.0708 14.3649 29.4167H21.0003H27.6357C27.4003 30.0708 27.2503 30.7646 27.2503 31.5C27.2503 34.9458 30.0545 37.75 33.5003 37.75C36.9462 37.75 39.7503 34.9458 39.7503 31.5C39.7503 30.7646 39.6003 30.0708 39.3649 29.4167H39.7503C40.9024 29.4167 41.8337 28.4854 41.8337 27.3333V19C41.8337 18.3667 41.5462 17.7687 41.0524 17.3729Z" fill="#4C789D"/>
</svg>
