<svg width="28" height="28" viewBox="0 0 28 28" fill="none" xmlns="http://www.w3.org/2000/svg">
<path fill-rule="evenodd" clip-rule="evenodd" d="M25.9974 12.6313H26.0014C26.736 12.6313 27.3334 13.226 27.3347 13.9607C27.3454 17.522 25.968 20.8753 23.456 23.4007C20.9454 25.926 17.6014 27.322 14.04 27.3327H14.0014C10.4534 27.3327 7.11603 25.9567 4.60003 23.454C2.0747 20.9433 0.678697 17.5993 0.66803 14.038C0.657364 10.4753 2.0347 7.12335 4.5467 4.59802C7.05736 2.07268 10.4014 0.676682 13.9627 0.666016C15.0227 0.682016 16.1027 0.788682 17.1374 1.03668C17.852 1.21002 18.2934 1.93002 18.12 2.64602C17.948 3.36068 17.224 3.80068 16.512 3.63002C15.684 3.43002 14.8054 3.34602 13.9707 3.33268C11.1214 3.34068 8.44536 4.45802 6.43736 6.47802C4.42803 8.49802 3.3267 11.1807 3.3347 14.03C3.3427 16.8793 4.46003 19.554 6.48003 21.5633C8.49336 23.5647 11.1627 24.666 14.0014 24.666H14.032C16.8814 24.658 19.5574 23.5407 21.5654 21.5207C23.5747 19.4993 24.676 16.818 24.668 13.9687C24.6667 13.2327 25.2614 12.6327 25.9974 12.6313ZM9.05877 13.0565C9.5801 12.5352 10.4228 12.5352 10.9441 13.0565L13.9361 16.0485L22.3321 6.45387C22.8174 5.90321 23.6588 5.84454 24.2134 6.32987C24.7668 6.81387 24.8228 7.65654 24.3374 8.21121L15.0041 18.8779C14.7614 19.1552 14.4148 19.3192 14.0454 19.3325H14.0014C13.6481 19.3325 13.3094 19.1925 13.0588 18.9419L9.05877 14.9419C8.53743 14.4205 8.53743 13.5779 9.05877 13.0565Z" fill="white"/>
</svg>
