<svg xmlns="http://www.w3.org/2000/svg" viewBox="0 0 522.35 391.64"><defs><style>.cls-1{fill:#273655;}</style></defs><g id="Слой_2" data-name="Слой 2"><g id="Слой_1-2" data-name="Слой 1"><path class="cls-1" d="M14.43,380.9a6.91,6.91,0,0,1-2.19,4.68,7.2,7.2,0,0,1-4.94,1.63,6.8,6.8,0,0,1-3.81-1.08,7.07,7.07,0,0,1-2.56-3.05A11,11,0,0,1,0,378.56v-2.51a10.89,10.89,0,0,1,.91-4.58,7,7,0,0,1,2.6-3.08,7.1,7.1,0,0,1,3.9-1.08A6.94,6.94,0,0,1,12.33,369a7,7,0,0,1,2.1,4.65H12.78c-.41-3.29-2.19-4.94-5.36-4.94a5.1,5.1,0,0,0-4.2,2,8.58,8.58,0,0,0-1.56,5.45v2.37a8.65,8.65,0,0,0,1.52,5.35,4.91,4.91,0,0,0,4.12,2,5.45,5.45,0,0,0,3.87-1.23,5.87,5.87,0,0,0,1.61-3.69Z"/><path class="cls-1" d="M20,379.05v7.89H18.41V367.57H25a6.93,6.93,0,0,1,4.77,1.55,6.06,6.06,0,0,1,.07,8.45A7.14,7.14,0,0,1,25,379.05Zm0-1.38h5a5.29,5.29,0,0,0,3.64-1.13,4.07,4.07,0,0,0,1.25-3.16,4.22,4.22,0,0,0-1.25-3.2A5,5,0,0,0,25.11,369H20Z"/><polygon class="cls-1" points="45.87 377.66 36.82 377.66 36.82 385.56 47.23 385.56 47.23 386.94 35.18 386.94 35.18 367.57 47.16 367.57 47.16 368.96 36.82 368.96 36.82 376.27 45.87 376.27 45.87 377.66"/><path class="cls-1" d="M65,385.56h2.06v6.08H65.41v-4.7H50.81v4.7H49.17v-6.08h1.29a11.19,11.19,0,0,0,2.39-4.5,27.07,27.07,0,0,0,1.1-6.49l.34-7H65Zm-12.63,0h11V369H55.86l-.26,5.55a28.38,28.38,0,0,1-1,6.38,13.82,13.82,0,0,1-2.21,4.67"/><path class="cls-1" d="M83.78,380.9a6.91,6.91,0,0,1-2.19,4.68,7.18,7.18,0,0,1-4.94,1.63,6.85,6.85,0,0,1-3.81-1.08,7.07,7.07,0,0,1-2.56-3.05,11,11,0,0,1-.92-4.52v-2.51a11,11,0,0,1,.91-4.58,7,7,0,0,1,2.6-3.08,7.1,7.1,0,0,1,3.9-1.08,6.45,6.45,0,0,1,7,6.32H82.13c-.41-3.29-2.19-4.94-5.36-4.94a5.08,5.08,0,0,0-4.19,2A8.52,8.52,0,0,0,71,376.11v2.37a8.58,8.58,0,0,0,1.53,5.35,4.88,4.88,0,0,0,4.11,2,5.45,5.45,0,0,0,3.87-1.23,5.87,5.87,0,0,0,1.61-3.69Z"/><polygon class="cls-1" points="100.52 368.96 93.88 368.96 93.88 386.94 92.24 386.94 92.24 368.96 85.62 368.96 85.62 367.57 100.52 367.57 100.52 368.96"/><path class="cls-1" d="M103.64,386.94V367.58h5.72a7.4,7.4,0,0,1,4.72,1.28,4.57,4.57,0,0,1,1.61,3.79,4.25,4.25,0,0,1-.82,2.61,4.44,4.44,0,0,1-2.24,1.59,4.69,4.69,0,0,1,3.75,4.64,5,5,0,0,1-1.65,4,6.81,6.81,0,0,1-4.61,1.44Zm1.64-10.68h4.47a5,5,0,0,0,3.17-1,3.83,3.83,0,0,0,0-5.45,5.8,5.8,0,0,0-3.52-.88h-4.08Zm0,1.38v7.92h4.9a4.93,4.93,0,0,0,3.34-1.07,3.72,3.72,0,0,0,1.23-3,3.57,3.57,0,0,0-1.18-2.83,4.7,4.7,0,0,0-3.25-1.05Z"/><path class="cls-1" d="M130.79,381.5H122l-2,5.44h-1.71l7.32-19.37h1.56l7.33,19.37h-1.7Zm-8.29-1.38h7.77l-3.88-10.55Z"/><polygon class="cls-1" points="156.7 367.57 158.34 367.57 158.34 386.94 156.7 386.94 156.7 370.37 145.67 386.94 144.02 386.94 144.02 367.57 145.67 367.57 145.67 384.13 156.7 367.57"/><polygon class="cls-1" points="177.66 386.94 176.01 386.94 176.01 377.66 164.95 377.66 164.95 386.94 163.31 386.94 163.31 367.57 164.95 367.57 164.95 376.27 176.01 376.27 176.01 367.57 177.66 367.57 177.66 386.94"/><path class="cls-1" d="M197.19,385.56h2.06v6.08H197.6v-4.7H183v4.7h-1.64v-6.08h1.29a11.31,11.31,0,0,0,2.39-4.5,26.59,26.59,0,0,0,1.09-6.49l.35-7h10.71Zm-12.64,0h11V369h-7.5l-.27,5.55a27.84,27.84,0,0,1-1,6.38,13.82,13.82,0,0,1-2.22,4.67"/><polygon class="cls-1" points="215.31 367.57 216.94 367.57 216.94 386.94 215.31 386.94 215.31 370.37 204.28 386.94 202.63 386.94 202.63 367.57 204.28 367.57 204.28 384.13 215.31 367.57"/><path class="cls-1" d="M221.91,386.94V367.58h5.73a7.44,7.44,0,0,1,4.72,1.28,4.57,4.57,0,0,1,1.61,3.79,4.32,4.32,0,0,1-.82,2.61,4.49,4.49,0,0,1-2.24,1.59,4.69,4.69,0,0,1,3.75,4.64,5,5,0,0,1-1.66,4,6.79,6.79,0,0,1-4.61,1.44Zm1.64-10.68H228a5,5,0,0,0,3.17-1,3.8,3.8,0,0,0,0-5.45,5.76,5.76,0,0,0-3.51-.88h-4.09Zm0,1.38v7.92h4.91a4.92,4.92,0,0,0,3.33-1.07,3.72,3.72,0,0,0,1.23-3,3.57,3.57,0,0,0-1.18-2.83,4.69,4.69,0,0,0-3.25-1.05Z"/><polygon class="cls-1" points="251.34 367.57 252.97 367.57 252.97 386.94 251.34 386.94 251.34 370.37 240.31 386.94 238.66 386.94 238.66 367.57 240.31 367.57 240.31 384.13 251.34 367.57"/><path class="cls-1" d="M272.55,385.56h2.06v6.08H273v-4.7h-14.6v4.7h-1.64v-6.08H258a11.19,11.19,0,0,0,2.39-4.5,27.07,27.07,0,0,0,1.1-6.49l.34-7h10.71Zm-12.63,0h11V369h-7.51l-.26,5.55a28.38,28.38,0,0,1-1,6.38,13.82,13.82,0,0,1-2.21,4.67"/><path class="cls-1" d="M284.41,380l5.5-12.41h1.93l-7.49,16.22-.48.92a4.5,4.5,0,0,1-4.15,2.51,4,4,0,0,1-1.25-.15l.15-1.33a3.81,3.81,0,0,0,1.11.1,3,3,0,0,0,2.65-1.69l.34-.6.83-1.73-7.33-14.25h1.88Z"/><path class="cls-1" d="M304.28,381.5h-8.79l-2,5.44h-1.72l7.33-19.37h1.56L308,386.94h-1.7ZM296,380.12h7.77l-3.89-10.55Z"/><path class="cls-1" d="M325.25,367.57v19.37h-1.63V369h-8.18l-.46,8a31.89,31.89,0,0,1-.82,6.25A5.64,5.64,0,0,1,312.6,386a4.24,4.24,0,0,1-2.77.9h-.69v-1.37h.54a2.82,2.82,0,0,0,2.06-.87,5.9,5.9,0,0,0,1.07-2.59,40.3,40.3,0,0,0,.59-5.53l.48-9Z"/><path class="cls-1" d="M331.74,376h4.81a8.23,8.23,0,0,1,3.43.66,5,5,0,0,1,2.21,1.89,5.39,5.39,0,0,1,.77,2.9,5,5,0,0,1-1.72,4,7.07,7.07,0,0,1-4.75,1.47h-6.38V367.57h1.63Zm0,1.38v8.2h4.79a5.13,5.13,0,0,0,3.51-1.11,3.85,3.85,0,0,0,1.27-3.05,3.7,3.7,0,0,0-1.23-2.92,5.06,5.06,0,0,0-3.43-1.12Z"/><polygon class="cls-1" points="361.22 386.94 359.57 386.94 359.57 377.66 348.5 377.66 348.5 386.94 346.87 386.94 346.87 367.57 348.5 367.57 348.5 376.27 359.57 376.27 359.57 367.57 361.22 367.57 361.22 386.94"/><path class="cls-1" d="M380.45,378.31a11.25,11.25,0,0,1-.92,4.69,7.13,7.13,0,0,1-2.64,3.12,7.32,7.32,0,0,1-4,1.09,6.89,6.89,0,0,1-5.48-2.43,9.72,9.72,0,0,1-2.09-6.55v-2a11.17,11.17,0,0,1,.94-4.68,7,7,0,0,1,6.61-4.24,7.21,7.21,0,0,1,3.94,1.08,7,7,0,0,1,2.64,3,11,11,0,0,1,1,4.56Zm-1.63-2.1a8.53,8.53,0,0,0-1.59-5.48,5.7,5.7,0,0,0-8.64,0,8.7,8.7,0,0,0-1.6,5.56v2a8.51,8.51,0,0,0,1.6,5.46,5.71,5.71,0,0,0,8.67,0,8.8,8.8,0,0,0,1.56-5.54Z"/><path class="cls-1" d="M397.3,367.58h1.64v19.36H397.3V370.37l-11,16.57h-1.65V367.58h1.65v16.55Zm-1.57-4.77a3.17,3.17,0,0,1-1,2.48,4,4,0,0,1-2.8.94,4,4,0,0,1-2.79-.94,3.15,3.15,0,0,1-1.05-2.48h1.35a2.13,2.13,0,0,0,.66,1.69,2.67,2.67,0,0,0,1.83.59,2.62,2.62,0,0,0,1.83-.61,2.18,2.18,0,0,0,.66-1.67Z"/><path class="cls-1" d="M421.11,372.62a3.5,3.5,0,0,0-1.31-2.88,5.89,5.89,0,0,0-3.75-1.05,5.36,5.36,0,0,0-3.48,1.12,3.54,3.54,0,0,0-1.37,2.85h-1.63a4.74,4.74,0,0,1,.84-2.76,5.5,5.5,0,0,1,2.34-1.91,8,8,0,0,1,3.3-.68,7.74,7.74,0,0,1,4.92,1.4,4.73,4.73,0,0,1,1.78,4,4.05,4.05,0,0,1-.95,2.63,5.48,5.48,0,0,1-2.54,1.72q3.78,1,3.78,4.67a4.86,4.86,0,0,1-1.89,4,8,8,0,0,1-5.1,1.51,8.34,8.34,0,0,1-3.54-.74,5.48,5.48,0,0,1-2.41-2,5.21,5.21,0,0,1-.81-2.9h1.64a3.77,3.77,0,0,0,1.45,3.05,5.55,5.55,0,0,0,3.67,1.2,6.31,6.31,0,0,0,3.93-1.1,3.6,3.6,0,0,0,1.43-3,3.51,3.51,0,0,0-1.27-3,6.4,6.4,0,0,0-3.89-1h-2.48v-1.41h2.39a6.15,6.15,0,0,0,3.69-1,3.24,3.24,0,0,0,1.26-2.79"/><path class="cls-1" d="M437.19,381.5H428.4l-2,5.44h-1.72L432,367.57h1.56l7.33,19.37H439.2Zm-8.28-1.38h7.77l-3.89-10.55Z"/><polygon class="cls-1" points="445.38 367.57 445.38 385.56 453.12 385.56 453.12 367.57 454.75 367.57 454.75 385.56 462.47 385.56 462.47 367.57 464.1 367.57 464.1 385.6 465.94 385.6 465.82 391.61 464.37 391.61 464.37 386.94 443.73 386.94 443.73 367.57 445.38 367.57"/><polygon class="cls-1" points="482.15 367.57 483.79 367.57 483.79 386.94 482.15 386.94 482.15 370.37 471.13 386.94 469.48 386.94 469.48 367.57 471.13 367.57 471.13 384.13 482.15 367.57"/><polygon class="cls-1" points="501.52 368.96 494.88 368.96 494.88 386.94 493.25 386.94 493.25 368.96 486.62 368.96 486.62 367.57 501.52 367.57 501.52 368.96"/><path class="cls-1" d="M506.31,376h4.8a8.23,8.23,0,0,1,3.43.66,5,5,0,0,1,2.22,1.89,5.38,5.38,0,0,1,.76,2.9,5,5,0,0,1-1.72,4,7,7,0,0,1-4.74,1.47h-6.39V367.58h1.64Zm0,1.38v8.2h4.79a5.17,5.17,0,0,0,3.51-1.11,3.87,3.87,0,0,0,1.26-3.05,3.72,3.72,0,0,0-1.22-2.92,5.09,5.09,0,0,0-3.44-1.12Zm16,9.58h-1.64V367.58h1.64Z"/><path class="cls-1" d="M280.53,102.52c.11-.46-.24-1-.37-1.52a51.09,51.09,0,0,1-6.19,4,181.47,181.47,0,0,1-20.49,8.37,6,6,0,0,0-2.43,1.31c-1.75,1.78-3.34,3.72-5,5.59q-7.71,8.61-15.44,17.21c-2.3,2.57-4.65,5.09-6.94,7.66-4.71,5.29-9.37,10.63-14.09,15.91-5.85,6.53-11.74,13-17.59,19.54-1.28,1.43-2.44,3-3.66,4.45.39.28.57.51.72.49,3.39-.4,6.78-.8,10.16-1.28a14.76,14.76,0,0,0,3.63-.84c4.89-2.05,9.74-4.22,14.62-6.31,4.68-2,9.38-4,14.06-6,5.16-2.22,10.32-4.43,15.45-6.72,5.6-2.49,11.14-5.14,16.76-7.6a107.79,107.79,0,0,0,13-6.75,6.38,6.38,0,0,0,2.92-3.85c1.14-3.67,2.41-7.3,3.44-11,1.57-5.62,2.79-11.3,2.1-17.35-.72-.64-1.48-1.34-2.41-2.18-3.89.14-7.85.28-11.81.39a9.65,9.65,0,0,1-1.77-.38c1.87-1.4,3.37-2.49,4.84-3.62a16.74,16.74,0,0,0,6.53-9.59"/><path class="cls-1" d="M298.71,205.67l-7-.33-1.23.88-2.23-2.1c-6.23-1.51-12.15-.41-18.11-1.57-1.86-6.47-3.69-12.83-5.5-19.14,8.19-9.56,17.2-18.2,25.88-28.12a26.32,26.32,0,0,0-2.78.5c-4.74,1.55-9.42,3.27-14.21,4.62a8.16,8.16,0,0,0-4.74,3.25c-3.85,5.31-7.77,10.58-11.63,15.88-.59.81-1,1.71-1.78,3l3.66.28c2.43,6.72,4.83,13.4,7.39,20.49-2.91-.42-5.45.48-8.05-1.26-2.58-6.18-4.17-13-6.59-19.44l3.32-5.5,6.25-10.46c.44-.74,1-1.48-.31-2.13-1.88.62-3.85,1.23-5.8,1.91-7.36,2.57-14.7,5.24-22.09,7.74-8.95,3-18,5.89-26.92,8.9A9.63,9.63,0,0,0,202.8,185a57.84,57.84,0,0,0-4.11,4.7c-3.54,4.1-7.06,8.22-10.63,12.3-2.27,2.59-3.64,3.71-5.92,6.29-.16.17-.09.54-.13.82a96.06,96.06,0,0,0,20-1c4.63-3.58,9.26-7.13,13.85-10.72s9.32-7.38,14-11c4.52-3.52,9-7.16,14-10.9-.26,2.73-.47,4.84-.68,7l3.56.25c.49,1.26,1,2.49,1.45,3.76,1.56,4.52,3.14,9,4.6,13.58.52,1.63,1.23,3.37-.08,4.92-10.06.95-20.15.57-30.09,2.32a47.63,47.63,0,0,0,7.08.91c6.58.27,13.16.59,19.73.6,14.64,0,29.27-.13,43.91-.25,5.32,0,10.64-.14,16-.33,2.77-.1,5.53-.47,8.3-.72a9.54,9.54,0,0,0-3.6-1.07c-5.1-.31-10.21-.51-15.32-.75"/><path class="cls-1" d="M295.89,91.7c4.92,3.4,9,7.75,13.18,11.94a15.47,15.47,0,0,0,1.63,1.2A10.17,10.17,0,0,0,311,103c-.12-1.44-.46-2.88-.46-4.32a37.16,37.16,0,0,0-1.92-11.29,30.21,30.21,0,0,0-6.14-11.07,8.4,8.4,0,0,0-7.54-2.92,62.26,62.26,0,0,0-9.64,2.3,13.55,13.55,0,0,0-3.8,2.07c-.45.32-.55,1.13-1,2l4.71-1.77c1.36,1.4,1.11,2.81,1.25,4.13.23,2.14.86,3.93,3,5.11a74.24,74.24,0,0,1,6.43,4.37"/><path class="cls-1" d="M301,151.31a73,73,0,0,0,12.71-11.95,18.93,18.93,0,0,0,4-7.67,47.18,47.18,0,0,0,1.43-14.55,6.82,6.82,0,0,0-3.26-5.72c-1.33-.83-2.71-1.56-4.08-2.31-.15-.08-.4,0-.72,0l-.63.72a20.9,20.9,0,0,1,.35,2.93c-.08,4.89.26,9.77-.42,14.68a40.92,40.92,0,0,1-5.79,16.3c-1.58,2.54-3.35,4.95-5,7.42l.41.52a5.34,5.34,0,0,0,1-.41"/><path class="cls-1" d="M288.21,90.47c-.28-.33-.39-.54-.56-.63-2.42-1.38-4.47-2.86-4.49-6.16a3,3,0,0,0-2.9-3,4.76,4.76,0,0,0-2.81,3A31.36,31.36,0,0,0,275.86,93c.52.16.73.3.91.26,3.46-.63,6.92-1.26,10.37-2,.39-.08.71-.55,1.07-.84"/><path class="cls-1" d="M190,193.94l-11-9.77L289,60.13h28.64l0,0,19.63,0V51.72h-40.8l40.8-46L330.88,0,167.93,183.84l17.41,15.52,4.69-5.42"/><polygon class="cls-1" points="344.45 110.43 344.45 195.2 317.68 155.34 310.04 158.26 344.38 209.41 352.75 209.41 352.75 110.43 344.45 110.43"/><polygon class="cls-1" points="17.25 334.01 62.3 334.01 62.3 347.78 0 347.78 0 248.52 17.25 248.52 17.25 334.01"/><path class="cls-1" d="M141.07,324.67H102.62l-8,23.11H76.65l37.49-99.26h15.47l37.56,99.26h-18Zm-33.61-13.91h28.77l-14.39-41.17Z"/><polygon class="cls-1" points="260.25 347.78 243 347.78 198.76 277.36 198.76 347.78 181.52 347.78 181.52 248.52 198.76 248.52 243.14 319.21 243.14 248.52 260.25 248.52 260.25 347.78"/><polygon class="cls-1" points="353.33 347.78 336.08 347.78 291.84 277.36 291.84 347.78 274.59 347.78 274.59 248.52 291.84 248.52 336.22 319.21 336.22 248.52 353.33 248.52 353.33 347.78"/><polygon class="cls-1" points="425.68 303.47 384.92 303.47 384.92 334.01 432.57 334.01 432.57 347.78 367.67 347.78 367.67 248.52 432.09 248.52 432.09 262.43 384.92 262.43 384.92 289.83 425.68 289.83 425.68 303.47"/><path class="cls-1" d="M483.38,309.6H464.16v38.18H446.91V248.52h34.9q17.18,0,26.52,7.71t9.34,22.31q0,10-4.81,16.68a30.58,30.58,0,0,1-13.39,10.34l22.29,41.33v.89H503.28Zm-19.22-13.9h17.72q8.73,0,13.63-4.4t4.91-12q0-8-4.53-12.34t-13.53-4.5h-18.2Z"/></g></g></svg>