<svg width="179" height="62" viewBox="0 0 179 62" fill="none" xmlns="http://www.w3.org/2000/svg">
<path d="M54.7772 59.3777C54.7229 59.8767 54.5446 60.2581 54.2424 60.5221C53.903 60.7994 53.4724 60.9405 53.0345 60.918C52.7046 60.9239 52.3802 60.8324 52.1021 60.6549C51.8256 60.4723 51.6082 60.2132 51.4764 59.9092C51.323 59.5617 51.2466 59.1852 51.2525 58.8055V58.1913C51.2449 57.8073 51.3203 57.4262 51.4737 57.074C51.6068 56.7658 51.8283 56.5039 52.1103 56.3215C52.3947 56.1434 52.7247 56.0516 53.0603 56.0571C53.5679 56.0571 53.9687 56.1927 54.2628 56.4638C54.5693 56.7645 54.7518 57.1689 54.7745 57.5974H54.3673C54.2669 56.7929 53.8298 56.3911 53.0562 56.392C52.8592 56.3851 52.6634 56.4252 52.485 56.5089C52.3066 56.5926 52.1507 56.7175 52.0302 56.8733C51.775 57.1942 51.6474 57.6376 51.6474 58.2035V58.7824C51.6474 59.3248 51.7714 59.7605 52.0193 60.0895C52.1348 60.2465 52.2869 60.3731 52.4624 60.4581C52.6379 60.5432 52.8314 60.5842 53.0264 60.5777C53.4444 60.5777 53.7606 60.4773 53.9764 60.2766C54.2094 60.0315 54.3487 59.7123 54.37 59.375L54.7772 59.3777Z" fill="white"/>
<path d="M56.1507 58.9262V60.8529H55.7435V56.1208H57.3572C57.8494 56.1208 58.238 56.2465 58.5231 56.4977C58.7942 56.7724 58.9476 57.1419 58.9506 57.5276C58.9537 57.9134 58.8061 58.2852 58.5393 58.5641C58.2679 58.8055 57.8707 58.9262 57.3477 58.9262H56.1507ZM56.1507 58.5886H57.364C57.7522 58.5886 58.048 58.4982 58.2516 58.3174C58.3554 58.2186 58.4365 58.0984 58.4892 57.9652C58.542 57.832 58.5651 57.6889 58.557 57.5459C58.5639 57.4015 58.5404 57.2572 58.4881 57.1225C58.4357 56.9877 58.3556 56.8654 58.253 56.7635C58.0147 56.5563 57.7053 56.4494 57.3898 56.4652H56.1507V58.5886Z" fill="white"/>
<path d="M62.467 58.5845H60.2521V60.5153H62.7995V60.8529H59.853V56.1208H62.7833V56.4584H60.2521V58.2455H62.467V58.5845Z" fill="white"/>
<path d="M67.6502 60.5153V62H67.2499V60.8529H63.675V62H63.2678V60.5153H63.5827C63.8592 60.1984 64.0589 59.8221 64.1663 59.4157C64.3207 58.9007 64.4119 58.3689 64.4377 57.832L64.5219 56.1222H67.1399V60.5153H67.6502ZM64.055 60.5153H66.745V56.4598H64.91L64.8449 57.8157C64.8245 58.3425 64.7435 58.8653 64.6033 59.3736C64.4953 59.7847 64.3111 60.1719 64.0604 60.5153H64.055Z" fill="white"/>
<path d="M71.7381 59.3777C71.6838 59.8767 71.5055 60.2581 71.2033 60.5221C70.8639 60.7994 70.4333 60.9405 69.9954 60.918C69.6655 60.9239 69.3411 60.8324 69.063 60.6549C68.7865 60.4723 68.5691 60.2132 68.4373 59.9092C68.2845 59.5615 68.2082 59.1852 68.2134 58.8055V58.1913C68.2058 57.8073 68.2812 57.4262 68.4346 57.074C68.5677 56.7658 68.7892 56.5039 69.0712 56.3215C69.3556 56.1434 69.6856 56.0516 70.0212 56.0571C70.5288 56.0571 70.9296 56.1927 71.2237 56.4638C71.5302 56.7645 71.7127 57.1689 71.7354 57.5974H71.3282C71.2278 56.7929 70.7907 56.3911 70.0171 56.392C69.8201 56.3851 69.6243 56.4252 69.4459 56.5089C69.2675 56.5926 69.1116 56.7175 68.9911 56.8733C68.7359 57.1942 68.6083 57.6376 68.6083 58.2035V58.7824C68.6083 59.3248 68.7323 59.7605 68.9802 60.0895C69.0957 60.2465 69.2478 60.3731 69.4233 60.4581C69.5988 60.5432 69.7923 60.5842 69.9873 60.5777C70.4053 60.5777 70.7215 60.4773 70.9373 60.2766C71.1703 60.0315 71.3096 59.7123 71.3309 59.375L71.7381 59.3777Z" fill="white"/>
<path d="M75.83 56.4598H74.2014V60.8529H73.7942V56.4598H72.1859V56.1222H75.8287V56.4598H75.83Z" fill="white"/>
<path d="M76.5955 60.8529V56.1208H77.9948C78.5024 56.1208 78.8865 56.2252 79.1498 56.434C79.2834 56.5465 79.3886 56.6889 79.457 56.8495C79.5253 57.0101 79.5549 57.1846 79.5434 57.3587C79.5486 57.5877 79.4785 57.812 79.3439 57.9974C79.2083 58.1809 79.0184 58.317 78.801 58.3865C79.0635 58.4401 79.2989 58.5841 79.466 58.7933C79.6328 58.999 79.7221 59.2567 79.7185 59.5214C79.728 59.7046 79.6963 59.8876 79.6259 60.057C79.5554 60.2264 79.4479 60.3779 79.3113 60.5004C79.0398 60.7354 78.6644 60.8529 78.1848 60.8529H76.5955ZM76.9945 58.2441H78.0871C78.3651 58.2552 78.6387 58.1721 78.8634 58.0082C78.9563 57.9266 79.0291 57.8247 79.0762 57.7104C79.1233 57.5961 79.1433 57.4725 79.1349 57.3493C79.1458 57.2216 79.1255 57.0933 79.0759 56.9752C79.0263 56.8571 78.9487 56.7529 78.8498 56.6713C78.6598 56.5276 78.3735 56.4544 77.9894 56.4544H76.9905V58.2387L76.9945 58.2441ZM76.9945 60.5153H78.1943C78.4888 60.5318 78.779 60.4385 79.0086 60.2536C79.1099 60.1628 79.1895 60.0506 79.2417 59.925C79.2938 59.7995 79.3171 59.6639 79.3099 59.5282C79.316 59.3987 79.2934 59.2694 79.2437 59.1496C79.1939 59.0298 79.1183 58.9225 79.0222 58.8353C78.798 58.6546 78.5145 58.5637 78.2269 58.5804H76.9945V60.5153Z" fill="white"/>
<path d="M83.2337 59.5241H81.0839L80.5953 60.8529H80.1759L81.9756 56.1208H82.3556L84.1472 60.8529H83.7305L83.2337 59.5241ZM81.2074 59.1865H83.1075L82.1575 56.6103L81.2074 59.1865Z" fill="white"/>
<path d="M89.5761 56.1222H89.9765V60.8543H89.5761V56.8123L86.8793 60.861H86.4721V56.1289H86.8793V60.175L89.5761 56.1222Z" fill="white"/>
<path d="M94.6981 60.8529H94.2909V58.5845H91.5887V60.8529H91.1816V56.1208H91.5887V58.2455H94.295V56.1208H94.7022L94.6981 60.8529Z" fill="white"/>
<path d="M99.9776 60.5153V62H99.5704V60.8529H96.0023V62H95.5951V60.5153H95.91C96.1865 60.1984 96.3862 59.8221 96.4936 59.4157C96.6481 58.9007 96.7392 58.3689 96.7651 57.832L96.8492 56.1222H99.4673V60.5153H99.9776ZM96.3823 60.5153H99.0764V56.4598H97.2374L97.1722 57.8157C97.1497 58.3428 97.0664 58.8656 96.9239 59.3736C96.8174 59.785 96.6336 60.1724 96.3823 60.5153Z" fill="white"/>
<path d="M103.903 56.1222H104.31V60.8543H103.903V56.8123L101.206 60.861H100.799V56.1289H101.206V60.175L103.903 56.1222Z" fill="white"/>
<path d="M105.521 60.8529V56.1208H106.92C107.427 56.1208 107.812 56.2252 108.075 56.434C108.208 56.5465 108.314 56.6889 108.382 56.8495C108.45 57.0101 108.48 57.1846 108.468 57.3587C108.474 57.5877 108.404 57.812 108.269 57.9974C108.133 58.1809 107.943 58.317 107.726 58.3865C107.989 58.4401 108.224 58.5841 108.391 58.7933C108.558 58.999 108.647 59.2567 108.644 59.5214C108.654 59.7047 108.622 59.8879 108.552 60.0574C108.481 60.2269 108.374 60.3783 108.236 60.5004C107.965 60.7354 107.589 60.8529 107.11 60.8529H105.521ZM105.921 58.2441H107.013C107.291 58.2552 107.565 58.1721 107.79 58.0082C107.883 57.9266 107.956 57.8247 108.003 57.7104C108.05 57.5961 108.07 57.4725 108.061 57.3493C108.072 57.2216 108.052 57.0933 108.002 56.9752C107.953 56.8571 107.875 56.7529 107.776 56.6713C107.586 56.5276 107.3 56.4544 106.916 56.4544H105.917V58.2387L105.921 58.2441ZM105.921 60.5153H107.121C107.415 60.5318 107.705 60.4385 107.935 60.2536C108.036 60.1628 108.116 60.0506 108.168 59.925C108.22 59.7995 108.244 59.6639 108.236 59.5282C108.242 59.3987 108.22 59.2694 108.17 59.1496C108.12 59.0298 108.045 58.9225 107.949 58.8353C107.724 58.6546 107.441 58.5637 107.153 58.5804H105.921V60.5153Z" fill="white"/>
<path d="M112.715 56.1222H113.122V60.8543H112.715V56.8123L110.018 60.861H109.611V56.1289H110.018V60.175L112.715 56.1222Z" fill="white"/>
<path d="M117.904 60.5153H118.408V62H118.008V60.8529H114.433V62H114.033V60.5153H114.348C114.624 60.1984 114.824 59.8221 114.931 59.4157C115.086 58.9007 115.177 58.3689 115.203 57.832L115.287 56.1222H117.905V60.5153H117.904ZM114.813 60.5153H117.503V56.4598H115.668L115.603 57.8157C115.581 58.3428 115.497 58.8656 115.355 59.3736C115.25 59.7845 115.069 60.1719 114.82 60.5153H114.813Z" fill="white"/>
<path d="M120.803 59.154L122.149 56.1222H122.621L120.792 60.0841L120.675 60.3078C120.582 60.4964 120.437 60.6545 120.257 60.7634C120.078 60.8722 119.87 60.9273 119.66 60.9221C119.557 60.9255 119.454 60.9136 119.355 60.8868L119.39 60.5614C119.479 60.5808 119.57 60.5885 119.661 60.5844C119.796 60.5829 119.928 60.5441 120.042 60.4723C120.157 60.4005 120.249 60.2985 120.309 60.1777L120.39 60.0312L120.595 59.6082L118.802 56.1276H119.261L120.803 59.154Z" fill="white"/>
<path d="M125.662 59.5241H123.506L123.018 60.8529H122.598L124.391 56.1208H124.771L126.564 60.8529H126.153L125.662 59.5241ZM123.642 59.1865H125.542L124.592 56.6103L123.642 59.1865Z" fill="white"/>
<path d="M130.792 56.1222V60.8543H130.392V56.4611H128.392L128.281 58.4191C128.264 58.9332 128.197 59.4444 128.082 59.9458C128.024 60.2079 127.89 60.4474 127.697 60.6346C127.505 60.7868 127.264 60.8647 127.019 60.8543H126.849V60.5194H126.985C127.079 60.5209 127.172 60.5029 127.259 60.4664C127.346 60.43 127.424 60.376 127.488 60.3078C127.626 60.121 127.716 59.9037 127.75 59.6746C127.83 59.2265 127.878 58.7735 127.896 58.3187L128.012 56.1208L130.792 56.1222Z" fill="white"/>
<path d="M132.38 58.175H133.55C133.838 58.1676 134.124 58.2227 134.388 58.3363C134.611 58.4327 134.8 58.5932 134.931 58.7974C135.06 59.0116 135.125 59.2581 135.119 59.5079C135.128 59.6931 135.095 59.8781 135.022 60.0488C134.949 60.2195 134.839 60.3716 134.699 60.4936C134.42 60.734 134.032 60.8538 133.537 60.8529H131.978V56.1208H132.385V58.175H132.38ZM132.38 58.514V60.5153H133.55C133.86 60.5337 134.166 60.4371 134.409 60.2441C134.512 60.1507 134.594 60.0354 134.647 59.9067C134.701 59.778 134.725 59.6389 134.718 59.4997C134.724 59.3659 134.7 59.2324 134.648 59.1088C134.597 58.9853 134.518 58.8747 134.418 58.7852C134.181 58.5957 133.883 58.4992 133.579 58.514H132.38Z" fill="white"/>
<path d="M139.588 60.8529H139.181V58.5845H136.475V60.8529H136.067V56.1208H136.475V58.2455H139.181V56.1208H139.588V60.8529Z" fill="white"/>
<path d="M144.292 58.7445C144.3 59.1387 144.223 59.53 144.065 59.8916C143.93 60.2032 143.705 60.4678 143.419 60.6522C143.129 60.8347 142.793 60.9289 142.45 60.9234C142.197 60.9319 141.944 60.883 141.712 60.7804C141.48 60.6778 141.275 60.5241 141.111 60.3309C140.77 59.935 140.6 59.4016 140.6 58.7309V58.2428C140.592 57.8488 140.671 57.4578 140.83 57.0971C140.963 56.7822 141.189 56.515 141.477 56.3302C141.765 56.1454 142.102 56.0517 142.445 56.0611C142.785 56.0549 143.12 56.1462 143.41 56.3242C143.693 56.5044 143.917 56.7631 144.056 57.0686C144.214 57.4188 144.295 57.7989 144.293 58.1831V58.7485L144.292 58.7445ZM143.885 58.2306C143.885 57.6611 143.756 57.215 143.498 56.8923C143.367 56.7402 143.205 56.6181 143.023 56.5344C142.841 56.4507 142.643 56.4074 142.442 56.4074C142.241 56.4074 142.043 56.4507 141.861 56.5344C141.679 56.6181 141.517 56.7402 141.386 56.8923C141.125 57.2159 140.994 57.6679 140.994 58.2482V58.7418C140.994 59.3031 141.124 59.7478 141.385 60.076C141.515 60.2297 141.677 60.3533 141.86 60.4383C142.042 60.5233 142.242 60.5677 142.443 60.5684C142.645 60.569 142.844 60.5259 143.027 60.4421C143.211 60.3582 143.373 60.2356 143.505 60.0828C143.758 59.7591 143.885 59.3072 143.886 58.7269V58.2252L143.885 58.2306Z" fill="white"/>
<path d="M148.413 56.1222H148.82V60.8543H148.413V56.8123L145.716 60.861H145.309V56.1289H145.716V60.175L148.413 56.1222ZM148.03 54.9588C148.034 55.0721 148.013 55.1849 147.969 55.2893C147.925 55.3937 147.859 55.4873 147.775 55.5635C147.578 55.7125 147.338 55.7932 147.091 55.7932C146.845 55.7932 146.605 55.7125 146.408 55.5635C146.323 55.4878 146.255 55.3943 146.21 55.2895C146.166 55.1847 146.145 55.0713 146.149 54.9574H146.48C146.476 55.0329 146.488 55.1083 146.516 55.1786C146.544 55.2488 146.587 55.3121 146.641 55.3642C146.767 55.4654 146.927 55.5161 147.088 55.5066C147.251 55.5162 147.411 55.4628 147.536 55.3574C147.59 55.3051 147.633 55.2417 147.661 55.1716C147.689 55.1014 147.701 55.0261 147.697 54.9507H148.03V54.9588Z" fill="white"/>
<path d="M154.236 57.3547C154.242 57.2204 154.215 57.0866 154.16 56.9644C154.104 56.8421 154.02 56.7347 153.914 56.651C153.7 56.4801 153.395 56.3933 152.997 56.3933C152.691 56.3805 152.39 56.4766 152.147 56.6645C152.041 56.746 151.955 56.8513 151.897 56.9719C151.839 57.0924 151.81 57.2249 151.812 57.3587H151.405C151.401 57.1169 151.472 56.8798 151.61 56.6808C151.755 56.4763 151.954 56.3155 152.184 56.2157C152.437 56.103 152.712 56.0461 152.989 56.0489C153.5 56.0489 153.901 56.1628 154.193 56.3906C154.337 56.5057 154.452 56.6536 154.528 56.8219C154.604 56.9903 154.638 57.1744 154.628 57.3587C154.63 57.5939 154.548 57.8221 154.398 58.0028C154.234 58.198 154.018 58.3432 153.776 58.4218C154.392 58.5854 154.7 58.9655 154.7 59.5621C154.706 59.7508 154.668 59.9382 154.587 60.1089C154.506 60.2796 154.386 60.4287 154.236 60.5438C153.927 60.7887 153.511 60.9112 152.989 60.9112C152.69 60.9152 152.395 60.8537 152.123 60.7309C151.884 60.6283 151.68 60.4594 151.534 60.2441C151.399 60.0319 151.33 59.7848 151.336 59.5336H151.743C151.74 59.677 151.771 59.8191 151.832 59.9488C151.894 60.0784 151.984 60.192 152.097 60.2807C152.352 60.4827 152.671 60.5867 152.996 60.5736C153.338 60.5935 153.677 60.498 153.958 60.3024C154.07 60.2178 154.16 60.1075 154.221 59.9808C154.281 59.854 154.31 59.7146 154.305 59.5743C154.315 59.4381 154.292 59.3015 154.239 59.1759C154.185 59.0504 154.102 58.9396 153.996 58.8529C153.79 58.6948 153.473 58.613 153.046 58.6075H152.441V58.2631H153.025C153.421 58.2631 153.721 58.1854 153.927 58.0299C154.03 57.9513 154.112 57.8486 154.166 57.7309C154.22 57.6131 154.244 57.4839 154.236 57.3547Z" fill="white"/>
<path d="M158.169 59.5241H156.02L155.531 60.8529H155.112L156.904 56.1208H157.284L159.077 60.8529H158.658L158.169 59.5241ZM156.142 59.1865H158.042L157.092 56.6103L156.142 59.1865Z" fill="white"/>
<path d="M160.169 56.1222V60.5153H162.062V56.1222H162.469V60.5153H164.356V56.1222H164.763V60.5261H165.212L165.182 61.9946H164.828V60.8543H159.779V56.1222H160.169Z" fill="white"/>
<path d="M169.164 56.1222H169.564V60.8543H169.164V56.8123L166.467 60.861H166.06V56.1289H166.467V60.175L169.164 56.1222Z" fill="white"/>
<path d="M173.9 56.4598H172.271V60.8529H171.871V56.4598H170.25V56.1222H173.893V56.4598H173.9Z" fill="white"/>
<path d="M175.071 58.175H176.245C176.533 58.1676 176.819 58.2227 177.084 58.3363C177.307 58.4321 177.496 58.5928 177.626 58.7974C177.755 59.0116 177.82 59.2581 177.814 59.5079C177.823 59.6931 177.79 59.8781 177.717 60.0488C177.645 60.2195 177.534 60.3716 177.394 60.4936C177.115 60.734 176.727 60.8538 176.233 60.8529H174.673V56.1208H175.08V58.175H175.071ZM175.071 58.514V60.5153H176.242C176.552 60.5337 176.858 60.4371 177.101 60.2441C177.205 60.1507 177.286 60.0354 177.34 59.9067C177.393 59.778 177.417 59.6389 177.411 59.4997C177.417 59.3659 177.393 59.2324 177.341 59.1088C177.289 58.9853 177.21 58.8747 177.111 58.7852C176.874 58.5957 176.575 58.4992 176.272 58.514H175.071ZM178.994 60.8529H178.594V56.1208H178.994V60.8529Z" fill="white"/>
<path d="M27.5689 25.0842C27.5947 24.9703 27.5092 24.8306 27.4767 24.7113C26.9419 25.0639 26.4859 25.4516 25.962 25.6944C24.3312 26.4774 22.6542 27.1607 20.9403 27.7404C20.7199 27.8 20.5164 27.91 20.3459 28.0618C19.917 28.4984 19.5315 28.9716 19.1244 29.4285C17.8658 30.8287 16.6054 32.2303 15.3432 33.6332C14.7799 34.2596 14.2058 34.8765 13.6453 35.5057C12.4863 36.8005 11.3503 38.1009 10.1939 39.3971C8.76342 40.9944 7.31935 42.5753 5.88885 44.178C5.57533 44.5278 5.29167 44.9021 4.99173 45.2627C5.08809 45.3305 5.12745 45.3875 5.16681 45.3834C5.99742 45.2844 6.82804 45.1868 7.65594 45.0702C7.96153 45.0416 8.26214 44.9737 8.55034 44.8682C9.74876 44.3678 10.935 43.8363 12.1293 43.3252C13.2748 42.8343 14.4271 42.3598 15.5726 41.8689C16.8361 41.3266 18.0997 40.7842 19.3551 40.2269C20.7272 39.6168 22.0817 38.9686 23.458 38.368C24.5532 37.8899 25.6147 37.3382 26.6352 36.7165C26.9875 36.5083 27.2443 36.1705 27.3504 35.7755C27.6287 34.8779 27.9395 33.9884 28.1919 33.084C28.576 31.7105 28.8705 30.3207 28.7049 28.8414L28.1159 28.3085C27.1659 28.3411 26.1927 28.3763 25.2237 28.4034C25.0768 28.3857 24.9318 28.3544 24.7907 28.3099C25.2495 27.9668 25.6173 27.7024 25.9756 27.4245C26.7533 26.8116 27.3436 26.0645 27.5689 25.0842Z" fill="white"/>
<path d="M32.0208 50.304L30.3175 50.224L30.0149 50.4396L29.472 49.9243C27.9478 49.5569 26.497 49.8254 25.0393 49.542L23.6916 44.86C25.6976 42.5211 27.899 40.4073 30.0284 37.9829C29.8002 38.0114 29.5737 38.0522 29.3498 38.1049C28.1908 38.4819 27.0426 38.9049 25.8713 39.2344C25.4011 39.3505 24.9889 39.6328 24.7109 40.029C23.769 41.3293 22.8108 42.6174 21.8607 43.915C21.7169 44.1116 21.6069 44.3339 21.4251 44.639L22.3222 44.7082L24.13 49.725C23.4188 49.6233 22.7959 49.843 22.1593 49.4172C21.5296 47.904 21.1401 46.2444 20.547 44.6607C20.8333 44.1875 21.0966 43.7523 21.3613 43.3157L22.8922 40.7571C22.9994 40.5767 23.1257 40.3937 22.8176 40.2378C22.3575 40.3883 21.8743 40.5361 21.3979 40.7028C19.5942 41.3333 17.8 41.9855 15.9908 42.6011C13.7989 43.3414 11.5934 44.0411 9.39882 44.7773C9.08446 44.8752 8.79412 45.0378 8.54649 45.2546C8.17597 45.6004 7.86788 46.018 7.5408 46.4031C6.67354 47.4078 5.81171 48.4139 4.93766 49.4132C4.38256 50.0477 4.04598 50.3189 3.48816 50.9507C3.45016 50.9941 3.46509 51.0863 3.45559 51.1528C3.99847 51.2192 6.65589 51.226 8.35919 50.9006C9.49247 50.0247 10.6271 49.1569 11.7522 48.2783C12.8991 47.3834 14.0323 46.4722 15.1805 45.58C16.2867 44.7109 17.3724 43.8214 18.5939 42.9062C18.5301 43.5733 18.4799 44.0899 18.4283 44.6282L19.301 44.6892C19.4205 44.9956 19.548 45.298 19.6553 45.6085C20.0366 46.7136 20.4221 47.8173 20.7818 48.9305C20.9107 49.3277 21.0831 49.7535 20.7614 50.1331C18.2994 50.3664 15.8279 50.2687 13.3944 50.6999C13.9661 50.8185 14.5459 50.8933 15.129 50.9236C16.7386 50.9887 18.3496 51.0674 19.9593 51.0687C23.5423 51.0687 27.1254 51.0375 30.7084 51.0091C32.0113 50.9982 33.3142 50.9752 34.6158 50.9277C35.2944 50.9033 35.973 50.8124 36.6516 50.7514C36.3775 50.6076 36.0778 50.5187 35.7694 50.4897C34.5208 50.4138 33.2708 50.3636 32.0208 50.304Z" fill="white"/>
<path d="M31.3298 22.4293C32.5336 23.2619 33.5285 24.3276 34.5572 25.35C34.6828 25.4563 34.8157 25.5537 34.9549 25.6415C34.9915 25.498 35.0138 25.3513 35.0214 25.2035C34.9929 24.851 34.9088 24.4984 34.9101 24.1473C34.8968 23.2075 34.7384 22.2754 34.4405 21.3839C34.137 20.3839 33.6245 19.4596 32.9367 18.6721C32.7137 18.4079 32.4278 18.2039 32.1053 18.0788C31.7828 17.9537 31.434 17.9116 31.0909 17.9562C30.2904 18.0827 29.5009 18.2708 28.7294 18.5189C28.3944 18.638 28.0806 18.8097 27.7997 19.0274C27.6897 19.1047 27.664 19.2986 27.5662 19.5277C28.0209 19.3582 28.3643 19.2281 28.7199 19.0965C29.0537 19.4382 28.9913 19.7826 29.028 20.1067C29.0822 20.6287 29.237 21.068 29.7581 21.3555C30.3092 21.6646 30.8086 22.0687 31.3298 22.4293Z" fill="white"/>
<path d="M32.5852 37.008C33.734 36.1612 34.7778 35.1808 35.6945 34.0874C36.1635 33.5457 36.5008 32.903 36.6799 32.2095C36.9819 31.0486 37.1005 29.8477 37.0314 28.6502C37.0269 28.3696 36.9519 28.0946 36.8131 27.8505C36.6744 27.6065 36.4764 27.4012 36.2374 27.2536C35.9131 27.053 35.5751 26.8726 35.2385 26.6896C35.2019 26.6692 35.1408 26.6896 35.0634 26.6991L34.9087 26.874C34.9539 27.1113 34.9829 27.3514 34.9956 27.5926C34.9752 28.7885 35.0594 29.9804 34.8924 31.1817C34.7094 32.5961 34.2263 33.9551 33.4755 35.168C33.0887 35.789 32.653 36.3789 32.2391 36.9822L32.3409 37.1097C32.4266 37.0872 32.5088 37.053 32.5852 37.008Z" fill="white"/>
<path d="M29.4516 22.1283C29.3824 22.047 29.3566 21.9927 29.3159 21.9724C28.7228 21.6375 28.2206 21.2741 28.2152 20.4673C28.2142 20.278 28.1393 20.0964 28.0066 19.9612C27.8738 19.8261 27.6935 19.7479 27.504 19.7433C27.3412 19.8072 27.1949 19.9069 27.076 20.0351C26.9571 20.1633 26.8686 20.3166 26.8172 20.4836C26.5742 21.2141 26.4428 21.977 26.4277 22.7466C26.5553 22.7859 26.6069 22.8198 26.6503 22.8117C27.4972 22.6571 28.3441 22.5026 29.1883 22.3331C29.2833 22.3127 29.3607 22.2002 29.4516 22.1283Z" fill="white"/>
<path d="M5.4112 47.4363L2.728 45.0472L29.6442 14.7061H36.6569L41.4615 14.7183V12.6492H31.4697L41.4574 1.39522L39.902 0L0 44.9658L4.26436 48.7623L5.4112 47.4363Z" fill="white"/>
<path d="M43.2176 27.0109V47.7454L36.6637 37.9965L34.7921 38.7097L43.2013 51.2206H45.248V27.0109H43.2176Z" fill="white"/>
<path d="M66.5033 47.8864V51.2531H51.2509V26.9825H55.4732V47.8864H66.5033Z" fill="white"/>
<path d="M85.7894 45.6017H76.3758L74.4065 51.2531H70.0173L79.1961 26.9825H82.9841L92.1805 51.2531H87.775L85.7894 45.6017ZM77.5607 42.2011H84.6032L81.0745 32.1308L77.5607 42.2011Z" fill="white"/>
<path d="M114.969 51.2531H110.749L99.9152 34.0332V51.2531H95.693V26.9825H99.9152L110.78 44.2729V26.9825H114.969V51.2531Z" fill="white"/>
<path d="M137.757 51.2531H133.535L122.703 34.0332V51.2531H118.485V26.9825H122.707L133.565 44.2729V26.9825H137.757V51.2531Z" fill="white"/>
<path d="M155.471 40.4167H145.493V47.8864H157.165V51.2531H141.268V26.9825H157.04V30.3844H145.493V37.088H155.474L155.471 40.4167Z" fill="white"/>
<path d="M169.597 41.9164H164.89V51.2531H160.668V26.9825H169.219C172.023 26.9825 174.188 27.6111 175.711 28.8685C177.235 30.1259 177.997 31.9451 177.998 34.326C177.998 35.9531 177.606 37.3131 176.822 38.4059C176.037 39.4988 174.944 40.3417 173.543 40.9347L179 51.0443V51.2531H174.478L169.597 41.9164ZM164.892 38.5158H169.235C170.659 38.5158 171.771 38.1574 172.572 37.4405C173.373 36.7237 173.773 35.7429 173.773 34.4982C173.773 33.1984 173.403 32.1923 172.663 31.48C171.923 30.7677 170.819 30.4007 169.35 30.379H164.894V38.5144L164.892 38.5158Z" fill="white"/>
</svg>
